<?xml version="1.0" encoding="UTF-8"?>
<svg width="18px" height="14px" viewBox="0 0 18 14" version="1.1" xmlns="http://www.w3.org/2000/svg" xmlns:xlink="http://www.w3.org/1999/xlink">
    <!-- Generator: Sketch 49.2 (51160) - http://www.bohemiancoding.com/sketch -->
    <title>arrow-next</title>
    <desc>Created with Sketch.</desc>
    <defs></defs>
    <g id="Cosound" stroke="none" stroke-width="1" fill="none" fill-rule="evenodd">
        <g id="5" transform="translate(-1027.000000, -1005.000000)" fill="#FFFFFF" fill-rule="nonzero">
            <g id="arrow-next" transform="translate(1028.000000, 1006.000000)">
                <path d="M0,7 C-0.55228475,7 -1,6.55228475 -1,6 C-1,5.44771525 -0.55228475,5 0,5 L16,5 C16.5522847,5 17,5.44771525 17,6 C17,6.55228475 16.5522847,7 16,7 L0,7 Z" id="Shape"></path>
                <path d="M9.29289322,0.707106781 C8.90236893,0.316582489 8.90236893,-0.316582489 9.29289322,-0.707106781 C9.68341751,-1.09763107 10.3165825,-1.09763107 10.7071068,-0.707106781 L16.7071068,5.29289322 C17.0976311,5.68341751 17.0976311,6.31658249 16.7071068,6.70710678 L10.7071068,12.7071068 C10.3165825,13.0976311 9.68341751,13.0976311 9.29289322,12.7071068 C8.90236893,12.3165825 8.90236893,11.6834175 9.29289322,11.2928932 L14.5857864,6 L9.29289322,0.707106781 Z" id="Shape"></path>
            </g>
        </g>
    </g>
</svg>