<?xml version="1.0" encoding="UTF-8"?>
<svg width="22px" height="20px" viewBox="0 0 22 20" version="1.1" xmlns="http://www.w3.org/2000/svg" xmlns:xlink="http://www.w3.org/1999/xlink">
    <!-- Generator: Sketch 49.3 (51167) - http://www.bohemiancoding.com/sketch -->
    <title>Shape</title>
    <desc>Created with Sketch.</desc>
    <defs></defs>
    <g id="Page-1" stroke="none" stroke-width="1" fill="none" fill-rule="evenodd" opacity="0.779999971">
        <g id="cosound_token_updated" transform="translate(-72.000000, -2716.000000)" fill="#FFFFFF" fill-rule="nonzero">
            <path d="M93.9999957,2725.99736 C93.9866044,2725.63986 93.8458523,2725.22666 93.6114089,2724.96606 L85.9592477,2716.46568 C85.4407175,2715.97853 84.4464135,2715.77743 83.8668429,2716.34068 C83.295991,2716.89543 83.3129692,2717.97133 83.881669,2718.52828 L89.2621015,2724.49734 L73.434782,2724.49734 C72.6423997,2724.49734 72,2725.16891 72,2725.99736 C72,2726.82581 72.6423997,2727.49741 73.434782,2727.49741 L89.2621015,2727.49741 L83.881669,2733.46647 C83.3920735,2733.97922 83.3015866,2735.09298 83.8668429,2735.65408 C84.4319701,2736.21513 85.4620001,2736.03588 85.9592477,2735.52903 L93.6114089,2727.02866 C93.8732566,2726.73776 94.0008565,2726.39646 93.9999957,2725.99736 Z" id="Shape" transform="translate(83.000000, 2726.000000) rotate(-180.000000) translate(-83.000000, -2726.000000) "></path>
        </g>
    </g>
</svg>