<?xml version="1.0" encoding="UTF-8"?>
<svg width="22px" height="20px" viewBox="0 0 22 20" version="1.1" xmlns="http://www.w3.org/2000/svg" xmlns:xlink="http://www.w3.org/1999/xlink">
    <!-- Generator: Sketch 49.3 (51167) - http://www.bohemiancoding.com/sketch -->
    <title>Shape</title>
    <desc>Created with Sketch.</desc>
    <defs></defs>
    <g id="Page-1" stroke="none" stroke-width="1" fill="none" fill-rule="evenodd" opacity="0.779999971">
        <g id="cosound_token_updated" transform="translate(-1825.000000, -2716.000000)" fill="#FFFFFF" fill-rule="nonzero">
            <path d="M1847,2725.99736 C1846.9866,2725.63986 1846.84585,2725.22666 1846.61141,2724.96606 L1838.95925,2716.46568 C1838.44072,2715.97853 1837.44641,2715.77743 1836.86684,2716.34068 C1836.29599,2716.89543 1836.31297,2717.97133 1836.88167,2718.52828 L1842.2621,2724.49734 L1826.43478,2724.49734 C1825.6424,2724.49734 1825,2725.16891 1825,2725.99736 C1825,2726.82581 1825.6424,2727.49741 1826.43478,2727.49741 L1842.2621,2727.49741 L1836.88167,2733.46647 C1836.39207,2733.97922 1836.30159,2735.09298 1836.86684,2735.65408 C1837.43197,2736.21513 1838.462,2736.03588 1838.95925,2735.52903 L1846.61141,2727.02866 C1846.87326,2726.73776 1847.00086,2726.39646 1847,2725.99736 Z" id="Shape"></path>
        </g>
    </g>
</svg>