<?xml version="1.0" encoding="UTF-8"?>
<svg width="50px" height="36px" viewBox="0 0 50 36" version="1.1" xmlns="http://www.w3.org/2000/svg" xmlns:xlink="http://www.w3.org/1999/xlink">

    <g id="Cosound" stroke="none" stroke-width="1" fill="none" fill-rule="evenodd" fill-opacity="0.324388587">
        <g id="5" transform="translate(-935.000000, -383.000000)" fill="#262626" fill-rule="nonzero">
            <g id="Oval-6" transform="translate(907.000000, 345.000000)">
                <path d="M68.8389672,43.9943568 C71.4879128,43.9943568 73.6721311,46.1469767 73.6721311,48.8143534 L73.6721311,62.6659942 C73.6721311,65.380167 71.4879128,67.5327869 68.8389672,67.5327869 L37.2839836,67.5327869 C34.5885653,67.5327869 32.4508197,65.333371 32.4508197,62.6659942 L32.4508197,48.8611495 C32.4508197,46.1469767 34.635038,43.9943568 37.2839836,43.9943568 L45.0449295,43.9943568 L45.8814386,41.7949409 C46.2067477,40.9994075 46.9503114,40.3442623 47.5544569,40.3442623 L58.5220212,40.3442623 C59.1726394,40.3442623 59.8697303,40.9994075 60.1950395,41.7949409 L61.0315486,43.9943568 L68.8389672,43.9943568 Z M53.5,49.1147541 C57.3400532,49.1147541 60.5163934,52.2067241 60.5163934,56.1073632 C60.5163934,60.0080022 57.3400532,63.147541 53.5,63.147541 C49.6599468,63.147541 46.4836066,60.055571 46.4836066,56.1549319 C46.4836066,52.2542929 49.6599468,49.1147541 53.5,49.1147541 Z M53.0614754,65.7786885 C58.6134381,65.7786885 63.147541,61.2805351 63.147541,55.7158093 C63.147541,50.1510835 58.6134381,45.6065574 53.0614754,45.6065574 C47.5095127,45.6065574 42.9754098,50.1047108 42.9754098,55.6694366 C42.9754098,61.2341624 47.5095127,65.7786885 53.0614754,65.7786885 Z M68.4098361,49.1147541 C69.3792062,49.1147541 70.1639344,48.3300259 70.1639344,47.3606557 C70.1639344,46.3912856 69.3792062,45.6065574 68.4098361,45.6065574 C67.4404659,45.6065574 66.6557377,46.3912856 66.6557377,47.3606557 C66.6557377,48.3300259 67.4404659,49.1147541 68.4098361,49.1147541 Z" id="camera"></path>
            </g>
        </g>
    </g>
</svg>
