<?xml version="1.0" encoding="UTF-8"?>
<svg width="23px" height="24px" viewBox="0 0 23 24" version="1.1" xmlns="http://www.w3.org/2000/svg" xmlns:xlink="http://www.w3.org/1999/xlink">
    <!-- Generator: Sketch 49.2 (51160) - http://www.bohemiancoding.com/sketch -->
    <title>cart</title>
    <desc>Created with Sketch.</desc>
    <defs></defs>
    <g id="Cosound" stroke="none" stroke-width="1" fill="none" fill-rule="evenodd">
        <g id="11,12,16_b" transform="translate(-1690.000000, -43.000000)" fill="#FFFFFF" fill-rule="nonzero">
            <g id="Group-15" transform="translate(1691.000000, 28.000000)">
                <g id="cart" transform="translate(0.000000, 16.000000)">
                    <path d="M7,23 C5.34314575,23 4,21.6568542 4,20 C4,18.3431458 5.34314575,17 7,17 C8.65685425,17 10,18.3431458 10,20 C10,21.6568542 8.65685425,23 7,23 Z M7,21 C7.55228475,21 8,20.5522847 8,20 C8,19.4477153 7.55228475,19 7,19 C6.44771525,19 6,19.4477153 6,20 C6,20.5522847 6.44771525,21 7,21 Z" id="Oval-Copy-3"></path>
                    <path d="M19,23 C17.3431458,23 16,21.6568542 16,20 C16,18.3431458 17.3431458,17 19,17 C20.6568542,17 22,18.3431458 22,20 C22,21.6568542 20.6568542,23 19,23 Z M19,21 C19.5522847,21 20,20.5522847 20,20 C20,19.4477153 19.5522847,19 19,19 C18.4477153,19 18,19.4477153 18,20 C18,20.5522847 18.4477153,21 19,21 Z" id="Oval-Copy-2"></path>
                    <path d="M4.67,6 C4.11771525,6 3.67,5.55228475 3.67,5 C3.67,4.44771525 4.11771525,4 4.67,4 L14.8330078,4 C15.3852926,4 15.8330078,4.44771525 15.8330078,5 C15.8330078,5.55228475 15.3852926,6 14.8330078,6 L4.67,6 Z M19.8184213,10.8017248 C19.9268574,10.2601899 20.453763,9.90909393 20.9952979,10.01753 C21.5368328,10.1259661 21.8879288,10.6528717 21.7794927,11.1944066 C21.5626833,12.2771633 21.5626833,12.2771633 21.3008397,13.5848164 C21.0177343,15.0101637 19.7537638,16.02766 18.32,16 L7.75848129,15.999964 C6.24270345,16.0128202 4.95548498,14.8929402 4.75859264,13.3908107 L3.23848586,1.86999885 C3.17329697,1.37279679 2.74994264,1.00075813 2.25,1 L0,1 C-0.55228475,1 -1,0.55228475 -1,-1.11022302e-16 C-1,-0.55228475 -0.55228475,-1 0,-1 L2.25151414,-0.999998854 C3.7558845,-0.997721018 5.0259475,0.118394952 5.22140736,1.60918931 L6.74151871,13.130036 C6.8071866,13.631028 7.23625943,14.0043214 7.75,14 L18.3391603,14.0001836 C18.8234683,14.0094648 19.2447918,13.6702993 19.3394643,13.1936591 L19.8184213,10.8017248 Z" id="Shape-Copy-12"></path>
                </g>
            </g>
        </g>
    </g>
</svg>