<?xml version="1.0" encoding="UTF-8"?>
<svg width="22px" height="20px" viewBox="0 0 22 20" version="1.1" xmlns="http://www.w3.org/2000/svg" xmlns:xlink="http://www.w3.org/1999/xlink">
    <!-- Generator: Sketch 49.2 (51160) - http://www.bohemiancoding.com/sketch -->
    <title>case</title>
    <desc>Created with Sketch.</desc>
    <defs></defs>
    <g id="Cosound" stroke="none" stroke-width="1" fill="none" fill-rule="evenodd">
        <g id="11,12,16_b" transform="translate(-1386.000000, -45.000000)" fill="#FFFFFF" fill-rule="nonzero">
            <g id="case" transform="translate(1387.000000, 46.000000)">
                <path d="M2,5 C1.44771525,5 1,5.44771525 1,6 L1,16 C1,16.5522847 1.44771525,17 2,17 L18,17 C18.5522847,17 19,16.5522847 19,16 L19,6 C19,5.44771525 18.5522847,5 18,5 L2,5 Z M2,3 L18,3 C19.6568542,3 21,4.34314575 21,6 L21,16 C21,17.6568542 19.6568542,19 18,19 L2,19 C0.343145751,19 -1,17.6568542 -1,16 L-1,6 C-1,4.34314575 0.343145751,3 2,3 Z" id="Rectangle-path"></path>
                <path d="M15,18 C15,18.5522847 14.5522847,19 14,19 C13.4477153,19 13,18.5522847 13,18 L13,2 C13,1.44771525 12.5522847,1 12,1 L8,1 C7.44771525,1 7,1.44771525 7,2 L7,18 C7,18.5522847 6.55228475,19 6,19 C5.44771525,19 5,18.5522847 5,18 L5,2 C5,0.343145751 6.34314575,-1 8,-1 L12,-1 C13.6568542,-1 15,0.343145751 15,2 L15,18 Z" id="Shape"></path>
            </g>
        </g>
    </g>
</svg>