<?xml version="1.0" encoding="UTF-8"?>
<svg width="14px" height="12px" viewBox="0 0 14 12" version="1.1" xmlns="http://www.w3.org/2000/svg" xmlns:xlink="http://www.w3.org/1999/xlink">
    <!-- Generator: Sketch 49.2 (51160) - http://www.bohemiancoding.com/sketch -->
    <title>comment</title>
    <desc>Created with Sketch.</desc>
    <defs></defs>
    <g id="Cosound" stroke="none" stroke-width="1" fill="none" fill-rule="evenodd">
        <g id="17" transform="translate(-1137.000000, -1897.000000)" fill="#8E8E8E" fill-rule="nonzero">
            <path d="M1151,1902.26672 L1151,1902.94325 C1151,1902.97469 1150.9818,1903.00612 1150.9776,1903.03756 C1150.87827,1904.01357 1150.48239,1904.93833 1149.8408,1905.69312 C1148.9994,1906.7086 1147.92,1907.3783 1146.66,1907.79788 C1145.8366,1908.07023 1144.97298,1908.20874 1144.1036,1908.2079 C1143.3737,1908.19841 1142.64535,1908.1395 1141.9238,1908.0316 C1141.80352,1908.00987 1141.67925,1908.03122 1141.5738,1908.09173 C1140.80385,1908.54558 1139.94572,1908.83832 1139.0538,1908.95141 C1138.7543,1908.98781 1138.45257,1909.0038 1138.1508,1908.99924 C1137.99783,1908.99454 1137.85959,1908.90897 1137.78998,1908.77591 C1137.72037,1908.64284 1137.73042,1908.48335 1137.8162,1908.35961 C1137.85545,1908.29802 1137.89895,1908.23912 1137.9464,1908.1833 C1138.34302,1907.70145 1138.67865,1907.17464 1138.946,1906.6143 C1138.96547,1906.58836 1138.97306,1906.5557 1138.96695,1906.52411 C1138.96085,1906.49251 1138.94161,1906.46479 1138.9138,1906.44755 C1138.42656,1906.04198 1138.01165,1905.56027 1137.686,1905.02205 C1137.41053,1904.56665 1137.21465,1904.06966 1137.1064,1903.55145 C1137.0658,1903.35191 1137.035,1903.14143 1137,1902.94325 L1137,1902.26672 C1137.01055,1902.22847 1137.01896,1902.18969 1137.0252,1902.15055 C1137.10985,1901.34471 1137.39852,1900.57209 1137.8652,1899.90228 C1138.37807,1899.17363 1139.04679,1898.56231 1139.8252,1898.11049 C1140.57523,1897.6656 1141.39843,1897.35071 1142.2584,1897.17975 C1143.6028,1896.90033 1144.9969,1896.94727 1146.3184,1897.31642 C1147.06499,1897.52061 1147.77377,1897.8389 1148.4184,1898.25947 C1149.13393,1898.71881 1149.74295,1899.31941 1150.2062,1900.02255 C1150.53577,1900.51704 1150.76795,1901.06723 1150.8908,1901.64486 C1150.9328,1901.85124 1150.9636,1902.05898 1151,1902.26672 Z" id="comment"></path>
        </g>
    </g>
</svg>