<?xml version="1.0" encoding="UTF-8"?>
<svg width="46px" height="46px" viewBox="0 0 46 46" version="1.1" xmlns="http://www.w3.org/2000/svg" xmlns:xlink="http://www.w3.org/1999/xlink">
    <!-- Generator: Sketch 49.3 (51167) - http://www.bohemiancoding.com/sketch -->
    <title>Shape</title>
    <desc>Created with Sketch.</desc>
    <defs></defs>
    <g id="Page-1" stroke="none" stroke-width="1" fill="none" fill-rule="evenodd">
        <g id="cosound_token_updated" transform="translate(-380.000000, -2439.000000)" fill="#28BBA8" fill-rule="nonzero">
            <path d="M386.732906,2445.69807 C385.061966,2447.37259 385.061966,2450.03212 386.732906,2451.70664 C387.568376,2452.5439 388.649573,2452.9379 389.730769,2452.9379 C390.517094,2452.9379 391.303419,2452.69165 391.991453,2452.29764 L393.07265,2453.38116 C391.205128,2455.54818 390.025641,2458.30621 389.878205,2461.35974 L388.354701,2461.35974 C387.912393,2459.48822 386.241453,2458.05996 384.226496,2458.05996 C381.916667,2458.05996 380,2459.98073 380,2462.2955 C380,2464.61028 381.916667,2466.53105 384.226496,2466.53105 C386.241453,2466.53105 387.912393,2465.10278 388.354701,2463.23126 L389.92735,2463.23126 C390.222222,2466.13704 391.450855,2468.79657 393.318376,2470.81585 L392.237179,2471.89936 C390.615385,2470.8651 388.403846,2471.0621 386.978632,2472.49036 C386.192308,2473.27837 385.75,2474.36188 385.75,2475.49465 C385.75,2476.62741 386.192308,2477.71092 386.978632,2478.49893 C387.814103,2479.33619 388.895299,2479.73019 389.976496,2479.73019 C391.057692,2479.73019 392.138889,2479.33619 392.974359,2478.49893 C394.399573,2477.07066 394.596154,2474.85439 393.564103,2473.22912 L394.645299,2472.14561 C396.709402,2473.82013 399.264957,2474.90364 402.066239,2475.10064 L402.066239,2476.62741 C400.198718,2477.07066 398.773504,2478.74518 398.773504,2480.76445 C398.773504,2483.07923 400.690171,2485 403,2485 C405.309829,2485 407.226496,2483.07923 407.226496,2480.76445 C407.226496,2478.74518 405.801282,2477.07066 403.933761,2476.62741 L403.933761,2475.10064 C406.833333,2474.90364 409.487179,2473.72163 411.600427,2471.89936 L412.681624,2472.98287 C411.649573,2474.60814 411.846154,2476.82441 413.271368,2478.25268 C414.106838,2479.08994 415.188034,2479.48394 416.269231,2479.48394 C417.350427,2479.48394 418.431624,2479.08994 419.267094,2478.25268 C420.938034,2476.57816 420.938034,2473.91863 419.267094,2472.24411 C417.84188,2470.81585 415.630342,2470.61884 414.008547,2471.6531 L412.92735,2470.56959 C414.647436,2468.55032 415.826923,2466.03854 416.07265,2463.23126 L417.645299,2463.23126 C418.087607,2465.10278 419.758547,2466.53105 421.773504,2466.53105 C424.083333,2466.53105 426,2464.61028 426,2462.2955 C426,2459.98073 424.083333,2458.05996 421.773504,2458.05996 C419.758547,2458.05996 418.087607,2459.48822 417.645299,2461.35974 L416.121795,2461.35974 C415.974359,2458.40471 414.893162,2455.74518 413.123932,2453.62741 L414.205128,2452.5439 C414.893162,2452.98715 415.679487,2453.18415 416.465812,2453.18415 C417.547009,2453.18415 418.628205,2452.79015 419.463675,2451.95289 C420.25,2451.16488 420.692308,2450.08137 420.692308,2448.94861 C420.692308,2447.81585 420.25,2446.73233 419.463675,2445.94433 C417.792735,2444.26981 415.138889,2444.26981 413.467949,2445.94433 C412.681624,2446.73233 412.239316,2447.81585 412.239316,2448.94861 C412.239316,2449.78587 412.485043,2450.52463 412.878205,2451.21413 L411.797009,2452.29764 C409.683761,2450.37687 406.931624,2449.09636 403.884615,2448.89936 L403.884615,2447.37259 C405.752137,2446.92934 407.17735,2445.25482 407.17735,2443.23555 C407.17735,2440.92077 405.260684,2439 402.950855,2439 C400.641026,2439 398.724359,2440.92077 398.724359,2443.23555 C398.724359,2445.25482 400.149573,2446.92934 402.017094,2447.37259 L402.017094,2448.89936 C399.117521,2449.09636 396.463675,2450.27837 394.350427,2452.10064 L393.269231,2451.01713 C394.301282,2449.39186 394.104701,2447.17559 392.679487,2445.74732 C391.057692,2444.07281 388.403846,2444.07281 386.732906,2445.69807 Z M384.5,2465 C383.122449,2465 382,2463.87755 382,2462.5 C382,2461.12245 383.122449,2460 384.5,2460 C385.877551,2460 387,2461.12245 387,2462.5 C387,2463.92857 385.877551,2465 384.5,2465 Z M392.272739,2477.25974 C391.294642,2478.24675 389.6988,2478.24675 388.720703,2477.25974 C388.257394,2476.79221 388,2476.16883 388,2475.49351 C388,2474.81818 388.257394,2474.19481 388.720703,2473.72727 C389.184012,2473.25974 389.853236,2473 390.470981,2473 C391.088727,2473 391.757951,2473.25974 392.22126,2473.72727 C393.250835,2474.66234 393.250835,2476.27273 392.272739,2477.25974 Z M406,2480.5 C406,2481.87755 404.877551,2483 403.5,2483 C402.122449,2483 401,2481.87755 401,2480.5 C401,2479.12245 402.122449,2478 403.5,2478 C404.877551,2478 406,2479.12245 406,2480.5 Z M418.270833,2473.72917 C418.739583,2474.19792 419,2474.82292 419,2475.5 C419,2476.17708 418.739583,2476.80208 418.270833,2477.27083 C417.802083,2477.73958 417.177083,2478 416.5,2478 C415.822917,2478 415.197917,2477.73958 414.729167,2477.27083 C414.260417,2476.80208 414,2476.17708 414,2475.5 C414,2474.82292 414.260417,2474.19792 414.729167,2473.72917 C415.197917,2473.26042 415.822917,2473 416.5,2473 C417.177083,2473 417.802083,2473.26042 418.270833,2473.72917 Z M421.5,2460 C422.877551,2460 424,2461.12245 424,2462.5 C424,2463.87755 422.877551,2465 421.5,2465 C420.122449,2465 419,2463.87755 419,2462.5 C419,2461.12245 420.122449,2460 421.5,2460 Z M403.5,2474 C397.172489,2474 392,2468.82751 392,2462.5 C392,2456.17249 397.172489,2451 403.5,2451 C409.827511,2451 415,2456.17249 415,2462.5 C415,2468.82751 409.827511,2474 403.5,2474 Z M414.696565,2447.74026 C415.681689,2446.75325 417.288996,2446.75325 418.274119,2447.74026 C418.740757,2448.20779 419,2448.83117 419,2449.50649 C419,2450.18182 418.740757,2450.80519 418.274119,2451.27273 C417.807482,2451.74026 417.185298,2452 416.511266,2452 C415.837234,2452 415.215051,2451.74026 414.748413,2451.27273 C414.281776,2450.80519 414.022533,2450.18182 414.022533,2449.50649 C413.918836,2448.88312 414.178079,2448.25974 414.696565,2447.74026 Z M401,2443.5 C401,2442.12245 402.122449,2441 403.5,2441 C404.877551,2441 406,2442.12245 406,2443.5 C406,2444.87755 404.877551,2446 403.5,2446 C402.122449,2446 401,2444.87755 401,2443.5 Z M391.280206,2446.77121 C391.742931,2447.23393 392,2447.8509 392,2448.51928 C392,2449.18766 391.742931,2449.80463 391.280206,2450.26735 C390.303342,2451.24422 388.709512,2451.24422 387.732648,2450.26735 C386.755784,2449.29049 386.755784,2447.69666 387.732648,2446.71979 C388.195373,2446.25707 388.812339,2446 389.48072,2446 C390.200514,2446 390.817481,2446.25707 391.280206,2446.77121 Z M407,2464.02833 C407,2465.95467 405.507772,2467.49575 403.642487,2467.49575 L403.362694,2467.49575 L403.362694,2469.08499 C403.362694,2469.56657 402.989637,2470 402.476684,2470 C402.010363,2470 401.590674,2469.61473 401.590674,2469.08499 L401.590674,2467.49575 L399.53886,2467.49575 C399.072539,2467.49575 398.65285,2467.11048 398.65285,2466.58074 C398.65285,2466.09915 399.025907,2465.66572 399.53886,2465.66572 L403.595855,2465.66572 C404.481865,2465.66572 405.181347,2464.94334 405.181347,2464.02833 C405.181347,2463.11331 404.481865,2462.39093 403.595855,2462.39093 L401.357513,2462.39093 C399.492228,2462.39093 398,2460.84986 398,2458.92351 C398,2456.99717 399.492228,2455.45609 401.357513,2455.45609 L401.637306,2455.45609 L401.637306,2453.91501 C401.637306,2453.43343 402.010363,2453 402.523316,2453 C402.989637,2453 403.409326,2453.38527 403.409326,2453.91501 L403.409326,2455.45609 L405.414508,2455.45609 C405.880829,2455.45609 406.300518,2455.84136 406.300518,2456.3711 C406.300518,2456.90085 405.927461,2457.28612 405.414508,2457.28612 L401.404145,2457.28612 C400.518135,2457.28612 399.818653,2458.0085 399.818653,2458.92351 C399.818653,2459.83853 400.518135,2460.56091 401.404145,2460.56091 L403.642487,2460.56091 C405.507772,2460.56091 407,2462.10198 407,2464.02833 Z" id="Shape"></path>
        </g>
    </g>
</svg>