<?xml version="1.0" encoding="UTF-8"?>
<svg width="14px" height="14px" viewBox="0 0 14 14" version="1.1" xmlns="http://www.w3.org/2000/svg" xmlns:xlink="http://www.w3.org/1999/xlink">
    <!-- Generator: Sketch 49.2 (51160) - http://www.bohemiancoding.com/sketch -->
    <title>fullscreen</title>
    <desc>Created with Sketch.</desc>
    <defs></defs>
    <g id="Cosound" stroke="none" stroke-width="1" fill="none" fill-rule="evenodd" fill-opacity="0.52">
        <g id="11,12,16_b" transform="translate(-1469.000000, -4523.000000)" fill="#262626" fill-rule="nonzero">
            <path d="M1482.99882,4523 L1482.36993,4523 L1478.42255,4523 L1478.42255,4524.27696 L1480.88952,4524.23276 L1476.98596,4528.01944 L1477.83986,4528.89865 L1481.74224,4525.1143 L1481.74224,4527.62286 L1482.99763,4527.62286 L1482.99763,4523.61638 L1482.99763,4523 L1482.99882,4523 Z M1482.99882,4532.37714 L1481.74342,4532.37714 L1481.74342,4534.8415 L1477.84105,4531.10018 L1476.98714,4531.98056 L1480.8907,4535.76607 L1478.42374,4535.76607 L1478.42374,4537 L1482.37112,4537 L1483,4537 L1483,4536.38362 L1483,4532.37714 L1482.99882,4532.37714 Z M1475.05786,4528.23808 L1471.1543,4524.45257 L1473.62127,4524.45257 L1473.62127,4523.2198 L1469.62888,4523.2198 L1469,4523.2198 L1469,4523.83619 L1469,4527.84266 L1470.25776,4527.84266 L1470.25776,4525.33295 L1474.20514,4529.11962 L1475.05786,4528.23808 Z M1475.05786,4531.76076 L1474.20633,4530.92457 L1470.25895,4534.66589 L1470.25895,4532.20153 L1469,4532.20153 L1469,4536.16265 L1469,4536.82323 L1469.62888,4536.82323 L1473.62127,4536.77903 L1473.62127,4535.50208 L1471.1543,4535.54511 L1475.05786,4531.76076 Z" id="fullscreen"></path>
        </g>
    </g>
</svg>