<?xml version="1.0" encoding="UTF-8"?>
<svg width="19px" height="15px" viewBox="0 0 19 15" version="1.1" xmlns="http://www.w3.org/2000/svg" xmlns:xlink="http://www.w3.org/1999/xlink">
    <!-- Generator: Sketch 49.2 (51160) - http://www.bohemiancoding.com/sketch -->
    <title>header-outline</title>
    <desc>Created with Sketch.</desc>
    <defs></defs>
    <g id="Cosound" stroke="none" stroke-width="1" fill="none" fill-rule="evenodd">
        <g id="21" transform="translate(-326.000000, -1012.000000)" fill="#262626" fill-rule="nonzero">
            <g id="heart-copy-15" transform="translate(327.000000, 1012.000000)">
                <path d="M17.0764107,4.875 C17.0764107,6.10517296 16.5731771,7.28396227 15.6791468,8.15129035 L8.84823769,14.7812903 C8.65425271,14.9695699 8.34574729,14.9695699 8.15176231,14.7812903 L1.32085322,8.15129034 C-0.541614236,6.34360129 -0.541614214,3.40639872 1.32085327,1.5987097 C3.17495598,-0.20086058 6.17504404,-0.200860602 8.02914678,1.59870965 L8.5,2.05571425 L8.97076906,1.59879136 C9.86155349,0.73380052 11.0679504,0.248630784 12.325,0.248630784 C13.58201,0.248630784 14.7883705,0.733769963 15.6791468,1.59870965 C16.5732087,2.46611173 17.0764107,3.64486565 17.0764107,4.875 Z M14.1635805,8.22870965 L14.9827556,7.43362797 C15.6835633,6.75375143 16.0764107,5.83353408 16.0764107,4.875 C16.0764107,3.91646592 15.6835633,2.99624857 14.9827556,2.31637203 C14.2791979,1.63318668 13.3229819,1.24863078 12.325,1.24863078 C11.3270181,1.24863078 10.3708021,1.63318668 9.6673286,2.31629035 L8.84823769,3.11129035 C8.65425271,3.29956988 8.34574729,3.29956988 8.15176231,3.11129035 L7.33267141,2.31629035 C5.86653863,0.893279168 3.4834614,0.893279186 2.01732864,2.31629039 C0.559560656,3.73118285 0.559560639,6.01881718 2.0173286,7.43370965 L8.5,13.7257143 L14.1635805,8.22870965 Z" id="header-outline"></path>
            </g>
        </g>
    </g>
</svg>