<?xml version="1.0" encoding="UTF-8"?>
<svg width="16px" height="14px" viewBox="0 0 16 14" version="1.1" xmlns="http://www.w3.org/2000/svg" xmlns:xlink="http://www.w3.org/1999/xlink">
    <!-- Generator: Sketch 49.2 (51160) - http://www.bohemiancoding.com/sketch -->
    <title>images</title>
    <desc>Created with Sketch.</desc>
    <defs></defs>
    <g id="Cosound" stroke="none" stroke-width="1" fill="none" fill-rule="evenodd">
        <g id="17" transform="translate(-1143.000000, -1044.000000)" fill="#2ABEA7" fill-rule="nonzero">
            <g id="Group" transform="translate(1143.000000, 1044.000000)">
                <g id="images">
                    <g>
                        <path d="M6.01690141,9.97119184 L4.4,7.84162458 L1.6,11.5294118 L6,11.5294118 L14.4,11.5294118 L9.6,5.38309973 L6.01690141,9.97119184 Z M0,1.64714627 C0,0.737452504 0.718569904,0 1.59263611,0 L14.4073639,0 C15.2869526,0 16,0.732989279 16,1.64714627 L16,12.3528537 C16,13.2625475 15.2814301,14 14.4073639,14 L1.59263611,14 C0.713047472,14 0,13.2670107 0,12.3528537 L0,1.64714627 Z M4,5.76470588 C4.8836556,5.76470588 5.6,5.02729253 5.6,4.11764706 C5.6,3.20800159 4.8836556,2.47058824 4,2.47058824 C3.1163444,2.47058824 2.4,3.20800159 2.4,4.11764706 C2.4,5.02729253 3.1163444,5.76470588 4,5.76470588 Z"></path>
                    </g>
                </g>
            </g>
        </g>
    </g>
</svg>