<?xml version="1.0" encoding="UTF-8"?>
<svg width="14px" height="12px" viewBox="0 0 14 12" version="1.1" xmlns="http://www.w3.org/2000/svg" xmlns:xlink="http://www.w3.org/1999/xlink">
    <!-- Generator: Sketch 49.2 (51160) - http://www.bohemiancoding.com/sketch -->
    <title>like</title>
    <desc>Created with Sketch.</desc>
    <defs></defs>
    <g id="Cosound" stroke="none" stroke-width="1" fill="none" fill-rule="evenodd">
        <g id="17" transform="translate(-919.000000, -1835.000000)" fill="#8E8E8E" fill-rule="nonzero">
            <path d="M932.791439,1839.79424 C932.551851,1840.48767 931.316572,1843.25728 925.999998,1846.9574 L925.860151,1847 C920.543577,1843.29988 919.448144,1840.48767 919.208556,1839.79424 C918.754272,1838.52959 919.042089,1837.06536 920.072525,1836.05373 C920.750667,1835.38797 921.628811,1835.03838 922.517154,1835.00409 C922.939804,1834.98288 925.002405,1834.97728 925.999998,1836.78856 L925.999652,1836.78839 L925.999998,1836.78856 L926.00017,1836.78839 L925.999998,1836.78856 C926.99759,1834.97728 929.060191,1834.98288 929.483014,1835.00409 C930.371357,1835.03838 931.249328,1835.38797 931.927643,1836.05373 C932.957906,1837.06519 933.245723,1838.52942 932.791439,1839.79424 Z" id="like"></path>
        </g>
    </g>
</svg>