<?xml version="1.0" encoding="UTF-8"?>
<svg width="417px" height="79px" viewBox="0 0 417 79" version="1.1" xmlns="http://www.w3.org/2000/svg" xmlns:xlink="http://www.w3.org/1999/xlink">
    <!-- Generator: Sketch 48.2 (47327) - http://www.bohemiancoding.com/sketch -->
    <title>logo</title>
    <desc>Created with Sketch.</desc>
    <defs></defs>
    <g id="Group-3" stroke="none" stroke-width="1" fill="none" fill-rule="evenodd">
        <g id="logo" fill="#FFFFFF">
            <path d="M414.892267,64.5310455 C413.592873,63.1863735 411.811767,62.4334353 409.87711,62.4114212 C407.953471,62.3942836 406.178362,63.1034723 404.884825,64.4227862 C403.592543,65.7411249 402.863003,67.5779097 402.831065,69.5949873 C402.762867,73.938176 405.696929,77.2924018 409.655779,77.3970384 C409.71547,77.3985711 409.775022,77.3992677 409.834294,77.3992677 C411.579837,77.3992677 413.246163,76.7264441 414.544023,75.4933753 C416.029743,74.0819644 416.876295,72.121176 416.927897,69.9721531 C416.978104,67.8739855 416.255118,65.9416205 414.892267,64.5310455" id="Fill-1"></path>
            <path d="M380.241506,57.6445584 C378.570856,60.9944649 375.760081,63.6007683 372.327432,64.9833379 C368.893946,66.3661862 364.976656,66.4692903 361.296875,65.2734226 C357.98835,64.1984931 355.404065,62.1542462 353.615428,59.1975284 C351.755943,56.1237735 350.804374,52.1340646 350.786801,47.3391686 C350.867273,41.6970081 354.028523,36.7708635 359.243394,34.1619129 C364.809856,31.3769887 370.444377,31.7669728 375.538471,35.289091 C378.610185,37.4123379 380.797134,40.9574455 381.696682,45.271375 C382.580192,49.5088123 382.049668,54.0186395 380.241506,57.6445584 Z M382.110335,29.918763 C381.896117,29.7412568 381.718857,29.6030416 381.57214,29.4886519 C381.289445,29.2683714 381.118879,29.1353115 380.998521,28.9693697 C379.15354,26.4250681 376.610259,24.4266607 373.439385,23.0298794 C370.482032,21.7271457 367.056775,21.0160063 363.533613,20.9730928 C359.613952,20.9259993 355.698336,21.6932885 352.203765,23.1935919 C348.499019,24.7839023 345.355899,27.177867 343.114141,30.116472 C338.156304,36.6162074 336.321504,44.3122286 337.504863,53.6439817 C338.961574,65.1366007 344.602092,72.5685919 354.269937,75.7334684 C357.742612,76.8699817 361.035239,77.4397012 364.11281,77.4395619 C365.792107,77.4395619 367.407808,77.2698582 368.952242,76.9300328 C373.695303,75.8861739 377.90254,73.2100663 381.457918,68.9751369 C381.546479,68.9752762 381.817459,68.9748582 382.146317,68.9698423 C382.146317,70.1045443 382.147293,71.2523432 382.14827,72.4154684 C382.149246,73.6351616 382.150222,74.8717136 382.150222,76.1269358 L382.150222,76.1966007 L395.295206,76.1966007 L395.295206,0.139246208 L382.110335,0.139246208 L382.110335,29.918763 Z" id="Fill-4"></path>
            <path d="M205.901072,61.4315007 C203.044971,64.2420616 199.155295,65.7661903 194.954055,65.7273173 C190.568163,65.685379 186.605826,63.9749663 183.797143,60.9109646 C180.987065,57.8454302 179.460343,53.5663332 179.498278,48.8617229 C179.536491,44.1260422 181.054706,40.0647176 183.888772,37.1167776 C186.716562,34.1752467 190.586991,32.6210228 195.083339,32.6210228 L195.108164,32.6210228 C199.528642,32.6267353 203.361137,34.1344231 206.191159,36.980931 C209.161203,39.9684407 210.782343,44.2950492 210.755705,49.1636506 C210.728928,54.0205483 209.004863,58.377252 205.901072,61.4315007 M201.039605,21.5444425 C195.131594,20.6211039 189.814495,20.8108711 185.235863,22.1084496 C180.067992,23.5732238 175.655183,26.4981744 172.120027,30.8019328 C165.011921,39.4550104 163.746695,49.9223014 168.461166,61.0723085 C172.603273,70.8687265 180.888742,76.178864 193.087736,76.8548922 C193.845309,76.8969698 194.594933,76.9178693 195.336607,76.9178693 C199.149298,76.9178693 202.7454,76.363894 206.053228,75.2648605 C209.90218,73.9858129 213.266073,72.0030104 216.051605,69.371349 C218.686655,66.8815254 220.733999,63.8743702 222.136737,60.4332026 C223.572109,56.9116418 224.300534,53.0078993 224.302208,48.8306524 C224.304858,41.6682644 222.167419,35.3591321 218.121124,30.5851356 C214.049029,25.7810439 208.142552,22.6547617 201.039605,21.5444425" id="Fill-7"></path>
            <path d="M319.951004,21.5500436 C309.122393,19.6089007 301.015718,22.758869 295.173813,31.1809377 L295.173813,21.5728937 L281.897593,21.5728937 L281.897593,76.2708496 L295.135739,76.2708496 L295.135739,73.0893928 C295.136297,70.9048407 295.128626,68.6837843 295.121234,66.5357367 C295.101849,60.9477755 295.081905,55.1693504 295.203937,49.4898496 C295.259444,46.8953892 295.725536,44.3581935 296.551307,42.152742 C298.858614,35.9946432 305.451119,32.6345656 312.582656,33.9810489 C318.433068,35.0857949 321.665446,39.5878196 321.684274,46.6578319 C321.700731,52.8127261 321.697244,59.0707243 321.693897,65.1226538 C321.692363,67.7428901 321.690968,70.3628478 321.691108,72.9830841 L321.691108,76.1741547 L335.150166,76.1741547 L335.150166,76.1044898 C335.150166,72.3623698 335.174433,68.590294 335.197863,64.9425004 C335.251278,56.6012429 335.306646,47.9761705 335.067185,39.5456026 C334.798157,30.0686679 329.006041,23.1730965 319.951004,21.5500436" id="Fill-9"></path>
            <path d="M264.96901,21.595897 C264.96901,22.8855337 264.971939,24.139084 264.974589,25.3679728 C264.980725,28.0474243 264.986443,30.5782109 264.962455,33.1250205 C264.945441,34.9218176 264.955761,36.7513573 264.965803,38.5205672 C264.990488,42.9027683 265.01601,47.4341915 264.629274,51.8530363 C264.290374,55.7265443 262.681926,58.9471527 259.977841,61.1665372 C257.352833,63.320994 253.790621,64.3670822 249.946969,64.1111333 C243.271482,63.6676466 239.718335,59.0442656 239.671754,50.7409058 C239.652647,47.3560275 239.656971,43.9138847 239.661294,40.5852956 C239.663107,39.1315284 239.66492,37.6779005 239.66492,36.2242727 C239.664641,33.0244243 239.664781,29.824994 239.66492,26.5825108 L239.66492,21.5624578 L226.214927,21.5624578 L226.214927,21.6321228 C226.214927,25.3529252 226.173367,29.113158 226.13334,32.7493873 C226.041572,41.056091 225.946736,49.6454949 226.352161,58.0366325 C226.821041,67.7392815 231.710401,74.1915055 240.119715,76.2045425 C242.043494,76.6650275 244.173402,76.936024 246.375552,76.9358847 C252.950485,76.9357453 260.163329,74.5194878 264.40864,67.5150998 C264.498316,67.5148212 264.732617,67.5144032 265.02633,67.5159358 L265.02633,76.2629217 L278.293346,76.2629217 L278.293346,21.5262321 L264.96901,21.5262321 L264.96901,21.595897 Z" id="Fill-11"></path>
            <path d="M153.431635,45.3876178 C151.373273,44.5629247 149.217425,43.8855032 147.132565,43.2303744 C145.622578,42.7558171 144.061269,42.2652369 142.549191,41.7224079 C140.596403,41.0218577 138.86146,40.3565578 137.40461,39.3072651 C135.920425,38.2383268 135.169546,36.7043056 135.395897,35.2037236 C135.619181,33.7239018 136.770184,32.4972422 138.474864,31.9225067 C140.397666,31.2747624 142.96898,31.1503409 144.66055,31.3136354 C149.267911,32.017251 153.396211,33.6049141 158.909677,36.7938947 L158.973691,36.8309564 L159.007023,36.7649141 C159.60728,35.5677924 160.397349,33.936937 161.233859,32.2102228 C162.195748,30.2246337 163.190412,28.1714697 164.057047,26.4437801 L164.086334,26.3855402 L164.02999,26.352519 C155.975057,21.6328612 147.994179,19.8391293 139.631585,20.8687765 C133.134056,21.6688083 128.63464,23.9797325 125.471437,28.1413744 C124.935473,28.8465226 123.91724,30.6952898 123.907059,30.7138206 L123.886558,30.7510217 L123.910267,30.7862721 C123.922121,30.803967 125.102134,32.5591046 125.483849,33.4239247 C125.521226,33.5084979 125.567947,33.6129952 125.622896,33.7357448 C126.452433,35.5898065 128.976747,41.231967 129.185526,45.260967 C129.274784,46.9839194 129.416341,49.9179265 129.416341,49.9180658 L129.418432,49.961676 L129.458738,49.9786743 C129.492767,49.9931646 132.883577,51.4299335 134.874299,52.0821363 C135.553772,52.3047854 136.233802,52.5261804 136.913833,52.7475755 C140.483855,53.9095861 144.175351,55.1111663 147.724314,56.4983339 C149.745858,57.2884732 152.034197,58.927967 151.456394,62.2519582 C150.960318,65.1075226 148.68439,65.8254891 146.194663,66.3620481 C145.59092,66.4923215 144.945616,66.500124 144.32165,66.5077871 C144.145645,66.5100164 143.969919,66.511967 143.79517,66.5167042 C138.608192,66.6558947 133.416054,65.1890305 127.456998,61.9019617 L127.397307,61.8689406 L127.362999,61.9280164 C127.088811,62.4002051 126.822991,62.8590182 126.562471,63.3087748 C125.98411,64.3070728 125.432387,65.2596707 124.875364,66.209064 C124.273852,67.235228 123.667319,68.2580481 123.03122,69.3307483 L122.177137,70.7716972 L122.229018,70.8088982 C122.439331,70.9597924 122.637231,71.1113832 122.828438,71.2579582 C123.220892,71.5586319 123.59159,71.8425861 123.996875,72.0632845 C129.99233,75.3259705 136.137572,76.9623991 142.356032,76.9623991 C145.303762,76.9623991 148.269064,76.5944291 151.240782,75.8572351 C159.541174,73.7979406 164.224544,68.7062721 164.784495,61.1327219 C165.317809,53.9161346 161.498145,48.6185367 153.431635,45.3876178" id="Fill-13"></path>
            <path d="M109.70708,54.1539705 C107.456395,61.1267307 101.45048,65.380191 93.8754444,65.3750358 C89.5438046,65.4204573 85.7509177,63.9945561 82.6395956,60.995482 C79.1536709,57.6348471 75.7947986,54.1440781 72.3410903,50.750422 C71.8013612,50.2201328 70.7577455,49.1406055 70.7577455,49.1406055 C70.7577455,49.1406055 71.5260575,48.2869317 72.0947953,47.7351857 C75.9298006,44.0115966 79.5275762,40.021609 83.5592271,36.5287501 C89.1344752,31.6998577 97.2128391,31.4689882 103.203274,35.5244608 C109.197056,39.5825808 111.905883,47.341579 109.70708,54.1539705 M122.60019,40.8840605 C119.675053,31.2365861 113.346974,24.2813815 103.858341,21.0741487 C91.1480692,16.7779141 80.2419154,20.4776778 70.9550883,29.9861011 C65.080409,36.0012474 58.7297361,42.4497095 52.7726331,48.3847413 L57.3932441,53.8307254 C57.3932441,53.8307254 65.3932287,62.4606743 66.2926378,63.3972492 C68.8127682,66.0218048 71.3598154,68.6230922 74.1245672,70.9623004 C76.9246036,73.3316037 80.0721866,75.6507483 83.468017,76.8907836 C94.7590939,81.0135526 105.43262,79.0655825 114.090461,70.8564097 C122.593635,62.7933938 126.155568,52.6120076 122.60019,40.8840605" id="Fill-15"></path>
            <path d="M40.6104027,61.486745 C32.3645415,69.3827044 18.069391,65.5593552 14.3081626,54.8033728 C11.7888689,47.5975139 14.3845893,39.3585245 20.2680549,35.4760995 C27.2128482,31.2226392 35.0937298,31.7761965 41.0233582,37.0219637 C41.6113422,37.5422212 45.9470265,41.735909 48.0392786,43.6672988 C51.2009475,40.6198772 54.1602529,37.7673781 57.3470255,34.6958526 C56.1788676,33.4708649 55.2517051,32.4243587 54.2476974,31.4578279 C49.0137198,26.4163182 43.7199117,21.6680977 36.1934104,20.0021312 C14.8034024,15.2671471 -4.65655114,35.3055598 0.987453211,56.4693393 C6.90745856,78.6662494 34.4538649,86.4889213 50.6832539,70.0836727 C52.9061846,67.8369795 55.1825305,65.6408631 57.4081111,63.3972353 C56.508981,62.4606603 48.5088569,53.8307115 48.5088569,53.8307115 C45.9256883,56.3658173 43.35549,58.8582882 40.6104027,61.486745" id="Fill-18"></path>
        </g>
    </g>
</svg>