<?xml version="1.0" encoding="UTF-8"?>
<svg width="417px" height="79px" viewBox="0 0 417 79" version="1.1" xmlns="http://www.w3.org/2000/svg" xmlns:xlink="http://www.w3.org/1999/xlink">
    <!-- Generator: Sketch 48.2 (47327) - http://www.bohemiancoding.com/sketch -->
    <title>logo</title>
    <desc>Created with Sketch.</desc>
    <defs>
        <polygon id="path-1" points="0.0553184864 0.00808419441 14.1556856 0.00808419441 14.1556856 14.9962342 0.0553184864 14.9962342"></polygon>
        <polygon id="path-3" points="0.0710488206 0.0167195767 58.2085837 0.0167195767 58.2085837 77.3169517 0.0710488206 77.3169517"></polygon>
        <polygon id="path-5" points="0.0549073244 0.0871500846 71.250515 0.0871500846 71.250515 59.7724868 0.0549073244 59.7724868"></polygon>
        <polygon id="path-7" points="0 0.090386772 57.4081111 0.090386772 57.4081111 59.6325247 0 59.6325247"></polygon>
    </defs>
    <g id="Group-3" stroke="none" stroke-width="1" fill="none" fill-rule="evenodd">
        <g id="logo">
            <g id="Group-3" transform="translate(402.774582, 62.403034)">
                <mask id="mask-2" fill="white">
                    <use xlink:href="#path-1"></use>
                </mask>
                <g id="Clip-2"></g>
                <path d="M12.1176853,2.12801199 C10.818291,0.783340035 9.03718495,0.0304017637 7.10252809,0.00838765432 C5.17888896,-0.00874991182 3.40377993,0.700438801 2.11024314,2.01975273 C0.817961538,3.33809136 0.0884207358,5.17487619 0.0564832776,7.19195379 C-0.0117150502,11.5351425 2.92234716,14.8893683 6.88119732,14.9940049 C6.94088829,14.9955376 7.0004398,14.9962342 7.05971237,14.9962342 C8.80525485,14.9962342 10.4715813,14.3234106 11.7694415,13.0903418 C13.2551609,11.6789309 14.1017127,9.7181425 14.1533147,7.56911958 C14.2035221,5.47095203 13.4805361,3.53858695 12.1176853,2.12801199" id="Fill-1" fill="#FFFFFF" mask="url(#mask-2)"></path>
            </g>
            <g id="Group-6" transform="translate(337.086622, 0.122610)">
                <mask id="mask-4" fill="white">
                    <use xlink:href="#path-3"></use>
                </mask>
                <g id="Clip-5"></g>
                <path d="M43.1548837,57.5219481 C41.4842339,60.8718547 38.6734586,63.478158 35.2408095,64.8607277 C31.8073235,66.243576 27.8900339,66.3466801 24.2102529,65.1508123 C20.9017275,64.0758829 18.3174432,62.031636 16.5288061,59.0749182 C14.6693208,56.0011633 13.7177519,52.0114543 13.7001794,47.2165584 C13.7806506,41.5743979 16.9419011,36.6482533 22.156772,34.0393026 C27.7232339,31.2543785 33.3577546,31.6443626 38.4518489,35.1664808 C41.523563,37.2897277 43.7105118,40.8348353 44.6100603,45.1487647 C45.4935703,49.3862021 44.9630459,53.8960293 43.1548837,57.5219481 Z M45.0237131,29.7961527 C44.8094951,29.6186466 44.6322352,29.4804314 44.4855182,29.3660416 C44.2028228,29.1457612 44.0322573,29.0127012 43.9118991,28.8467594 C42.0669182,26.3024578 39.5236366,24.3040504 36.352763,22.9072691 C33.3954101,21.6045354 29.9701526,20.8933961 26.4469907,20.8504825 C22.5273302,20.8033891 18.6117141,21.5706783 15.1171426,23.0709817 C11.4123974,24.6612921 8.26927736,27.0552568 6.02751883,29.9938617 C1.06968171,36.4935972 -0.765118294,44.1896183 0.418241237,53.5213714 C1.87495194,65.0139905 7.51546967,72.4459817 17.1833148,75.6108582 C20.6559904,76.7473714 23.9486168,77.317091 27.0261884,77.3169517 C28.7054851,77.3169517 30.3211857,77.147248 31.8656198,76.8074226 C36.608681,75.7635637 40.8159182,73.0874561 44.3712964,68.8525266 C44.4598566,68.852666 44.7308369,68.852248 45.0596951,68.8472321 C45.0596951,69.981934 45.0606713,71.129733 45.0616476,72.2928582 C45.0626238,73.5125513 45.0636001,74.7491034 45.0636001,76.0043256 L45.0636001,76.0739905 L58.2085837,76.0739905 L58.2085837,0.0166359788 L45.0237131,0.0166359788 L45.0237131,29.7961527 Z" id="Fill-4" fill="#FFFFFF" mask="url(#mask-4)"></path>
            </g>
            <path d="M205.901072,61.4315007 C203.044971,64.2420616 199.155295,65.7661903 194.954055,65.7273173 C190.568163,65.685379 186.605826,63.9749663 183.797143,60.9109646 C180.987065,57.8454302 179.460343,53.5663332 179.498278,48.8617229 C179.536491,44.1260422 181.054706,40.0647176 183.888772,37.1167776 C186.716562,34.1752467 190.586991,32.6210228 195.083339,32.6210228 L195.108164,32.6210228 C199.528642,32.6267353 203.361137,34.1344231 206.191159,36.980931 C209.161203,39.9684407 210.782343,44.2950492 210.755705,49.1636506 C210.728928,54.0205483 209.004863,58.377252 205.901072,61.4315007 M201.039605,21.5444425 C195.131594,20.6211039 189.814495,20.8108711 185.235863,22.1084496 C180.067992,23.5732238 175.655183,26.4981744 172.120027,30.8019328 C165.011921,39.4550104 163.746695,49.9223014 168.461166,61.0723085 C172.603273,70.8687265 180.888742,76.178864 193.087736,76.8548922 C193.845309,76.8969698 194.594933,76.9178693 195.336607,76.9178693 C199.149298,76.9178693 202.7454,76.363894 206.053228,75.2648605 C209.90218,73.9858129 213.266073,72.0030104 216.051605,69.371349 C218.686655,66.8815254 220.733999,63.8743702 222.136737,60.4332026 C223.572109,56.9116418 224.300534,53.0078993 224.302208,48.8306524 C224.304858,41.6682644 222.167419,35.3591321 218.121124,30.5851356 C214.049029,25.7810439 208.142552,22.6547617 201.039605,21.5444425" id="Fill-7" fill="#FFFFFF"></path>
            <path d="M319.951004,21.5500436 C309.122393,19.6089007 301.015718,22.758869 295.173813,31.1809377 L295.173813,21.5728937 L281.897593,21.5728937 L281.897593,76.2708496 L295.135739,76.2708496 L295.135739,73.0893928 C295.136297,70.9048407 295.128626,68.6837843 295.121234,66.5357367 C295.101849,60.9477755 295.081905,55.1693504 295.203937,49.4898496 C295.259444,46.8953892 295.725536,44.3581935 296.551307,42.152742 C298.858614,35.9946432 305.451119,32.6345656 312.582656,33.9810489 C318.433068,35.0857949 321.665446,39.5878196 321.684274,46.6578319 C321.700731,52.8127261 321.697244,59.0707243 321.693897,65.1226538 C321.692363,67.7428901 321.690968,70.3628478 321.691108,72.9830841 L321.691108,76.1741547 L335.150166,76.1741547 L335.150166,76.1044898 C335.150166,72.3623698 335.174433,68.590294 335.197863,64.9425004 C335.251278,56.6012429 335.306646,47.9761705 335.067185,39.5456026 C334.798157,30.0686679 329.006041,23.1730965 319.951004,21.5500436" id="Fill-9" fill="#FFFFFF"></path>
            <path d="M264.96901,21.595897 C264.96901,22.8855337 264.971939,24.139084 264.974589,25.3679728 C264.980725,28.0474243 264.986443,30.5782109 264.962455,33.1250205 C264.945441,34.9218176 264.955761,36.7513573 264.965803,38.5205672 C264.990488,42.9027683 265.01601,47.4341915 264.629274,51.8530363 C264.290374,55.7265443 262.681926,58.9471527 259.977841,61.1665372 C257.352833,63.320994 253.790621,64.3670822 249.946969,64.1111333 C243.271482,63.6676466 239.718335,59.0442656 239.671754,50.7409058 C239.652647,47.3560275 239.656971,43.9138847 239.661294,40.5852956 C239.663107,39.1315284 239.66492,37.6779005 239.66492,36.2242727 C239.664641,33.0244243 239.664781,29.824994 239.66492,26.5825108 L239.66492,21.5624578 L226.214927,21.5624578 L226.214927,21.6321228 C226.214927,25.3529252 226.173367,29.113158 226.13334,32.7493873 C226.041572,41.056091 225.946736,49.6454949 226.352161,58.0366325 C226.821041,67.7392815 231.710401,74.1915055 240.119715,76.2045425 C242.043494,76.6650275 244.173402,76.936024 246.375552,76.9358847 C252.950485,76.9357453 260.163329,74.5194878 264.40864,67.5150998 C264.498316,67.5148212 264.732617,67.5144032 265.02633,67.5159358 L265.02633,76.2629217 L278.293346,76.2629217 L278.293346,21.5262321 L264.96901,21.5262321 L264.96901,21.595897 Z" id="Fill-11" fill="#FFFFFF"></path>
            <path d="M153.431635,45.3876178 C151.373273,44.5629247 149.217425,43.8855032 147.132565,43.2303744 C145.622578,42.7558171 144.061269,42.2652369 142.549191,41.7224079 C140.596403,41.0218577 138.86146,40.3565578 137.40461,39.3072651 C135.920425,38.2383268 135.169546,36.7043056 135.395897,35.2037236 C135.619181,33.7239018 136.770184,32.4972422 138.474864,31.9225067 C140.397666,31.2747624 142.96898,31.1503409 144.66055,31.3136354 C149.267911,32.017251 153.396211,33.6049141 158.909677,36.7938947 L158.973691,36.8309564 L159.007023,36.7649141 C159.60728,35.5677924 160.397349,33.936937 161.233859,32.2102228 C162.195748,30.2246337 163.190412,28.1714697 164.057047,26.4437801 L164.086334,26.3855402 L164.02999,26.352519 C155.975057,21.6328612 147.994179,19.8391293 139.631585,20.8687765 C133.134056,21.6688083 128.63464,23.9797325 125.471437,28.1413744 C124.935473,28.8465226 123.91724,30.6952898 123.907059,30.7138206 L123.886558,30.7510217 L123.910267,30.7862721 C123.922121,30.803967 125.102134,32.5591046 125.483849,33.4239247 C125.521226,33.5084979 125.567947,33.6129952 125.622896,33.7357448 C126.452433,35.5898065 128.976747,41.231967 129.185526,45.260967 C129.274784,46.9839194 129.416341,49.9179265 129.416341,49.9180658 L129.418432,49.961676 L129.458738,49.9786743 C129.492767,49.9931646 132.883577,51.4299335 134.874299,52.0821363 C135.553772,52.3047854 136.233802,52.5261804 136.913833,52.7475755 C140.483855,53.9095861 144.175351,55.1111663 147.724314,56.4983339 C149.745858,57.2884732 152.034197,58.927967 151.456394,62.2519582 C150.960318,65.1075226 148.68439,65.8254891 146.194663,66.3620481 C145.59092,66.4923215 144.945616,66.500124 144.32165,66.5077871 C144.145645,66.5100164 143.969919,66.511967 143.79517,66.5167042 C138.608192,66.6558947 133.416054,65.1890305 127.456998,61.9019617 L127.397307,61.8689406 L127.362999,61.9280164 C127.088811,62.4002051 126.822991,62.8590182 126.562471,63.3087748 C125.98411,64.3070728 125.432387,65.2596707 124.875364,66.209064 C124.273852,67.235228 123.667319,68.2580481 123.03122,69.3307483 L122.177137,70.7716972 L122.229018,70.8088982 C122.439331,70.9597924 122.637231,71.1113832 122.828438,71.2579582 C123.220892,71.5586319 123.59159,71.8425861 123.996875,72.0632845 C129.99233,75.3259705 136.137572,76.9623991 142.356032,76.9623991 C145.303762,76.9623991 148.269064,76.5944291 151.240782,75.8572351 C159.541174,73.7979406 164.224544,68.7062721 164.784495,61.1327219 C165.317809,53.9161346 161.498145,48.6185367 153.431635,45.3876178" id="Fill-13" fill="#FFFFFF"></path>
            <g id="Group-17" transform="translate(52.717726, 19.210794)">
                <mask id="mask-6" fill="white">
                    <use xlink:href="#path-5"></use>
                </mask>
                <g id="Clip-16"></g>
                <path d="M56.9893538,34.9431769 C54.7386695,41.915937 48.7327538,46.1693974 41.1577187,46.1642422 C36.8260789,46.2096637 33.0331919,44.7837624 29.9218699,41.7846884 C26.4359451,38.4240534 23.0770729,34.9332845 19.6233645,31.5396284 C19.0836354,31.0093392 18.0400197,29.9298118 18.0400197,29.9298118 C18.0400197,29.9298118 18.8083317,29.0761381 19.3770695,28.5243921 C23.2120749,24.800803 26.8098505,20.8108153 30.8415013,17.3179564 C36.4167495,12.489064 44.4951133,12.2581945 50.4855485,16.3136672 C56.4793307,20.3717871 59.1881572,28.1307854 56.9893538,34.9431769 M69.8824638,21.6732668 C66.9573274,12.0257924 60.6292478,5.07058783 51.140615,1.86335503 C38.4303434,-2.43287954 27.5241896,1.26688413 18.2373625,10.7753074 C12.3626832,16.7904538 6.01201033,23.2389159 0.0549073244,29.1739476 L4.67551836,34.6199317 C4.67551836,34.6199317 12.675503,43.2498806 13.574912,44.1864556 C16.0950424,46.8110111 18.6420896,49.4122986 21.4068414,51.7515067 C24.2068779,54.1208101 27.3544608,56.4399547 30.7502913,57.6799899 C42.0413682,61.8027589 52.7148946,59.8547889 61.3727351,51.645616 C69.875909,43.5826002 73.4378421,33.4012139 69.8824638,21.6732668" id="Fill-15" fill="#FFFFFF" mask="url(#mask-6)"></path>
            </g>
            <g id="Group-20" transform="translate(0.000000, 19.210794)">
                <mask id="mask-8" fill="white">
                    <use xlink:href="#path-7"></use>
                </mask>
                <g id="Clip-19"></g>
                <path d="M40.6104027,42.2759513 C32.3645415,50.1719108 18.069391,46.3485616 14.3081626,35.5925792 C11.7888689,28.3867203 14.3845893,20.1477309 20.2680549,16.2653058 C27.2128482,12.0118455 35.0937298,12.5654028 41.0233582,17.81117 C41.6113422,18.3314275 45.9470265,22.5251153 48.0392786,24.4565051 C51.2009475,21.4090836 54.1602529,18.5565845 57.3470255,15.4850589 C56.1788676,14.2600713 55.2517051,13.2135651 54.2476974,12.2470342 C49.0137198,7.20552451 43.7199117,2.45730406 36.1934104,0.791337566 C14.8034024,-3.94364656 -4.65655114,16.0947661 0.987453211,37.2585457 C6.90745856,59.4554557 34.4538649,67.2781277 50.6832539,50.872879 C52.9061846,48.6261859 55.1825305,46.4300695 57.4081111,44.1864416 C56.508981,43.2498667 48.5088569,34.6199178 48.5088569,34.6199178 C45.9256883,37.1550236 43.35549,39.6474945 40.6104027,42.2759513" id="Fill-18" fill="#FFFFFF" mask="url(#mask-8)"></path>
            </g>
        </g>
    </g>
</svg>