<?xml version="1.0" encoding="UTF-8"?>
<svg width="15px" height="17px" viewBox="0 0 15 17" version="1.1" xmlns="http://www.w3.org/2000/svg" xmlns:xlink="http://www.w3.org/1999/xlink">
    <!-- Generator: Sketch 49.2 (51160) - http://www.bohemiancoding.com/sketch -->
    <title>music</title>
    <desc>Created with Sketch.</desc>
    <defs></defs>
    <g id="Cosound" stroke="none" stroke-width="1" fill="none" fill-rule="evenodd">
        <g id="17" transform="translate(-922.000000, -1043.000000)" fill="#8C5BCC" fill-rule="nonzero">
            <path d="M926.854859,1045.80591 L926.854859,1056.68238 C926.165001,1056.57094 925.290523,1056.63101 924.402656,1056.91245 C922.741313,1057.43718 921.698892,1058.48833 922.077762,1059.2605 C922.454048,1060.03305 924.106936,1060.23175 925.768279,1059.70684 C927.125682,1059.28071 928.067807,1058.49929 928.161996,1057.8072 L928.161996,1056.84105 L928.166458,1056.84105 L928.166458,1050.2557 L935.68819,1048.17984 L935.68819,1054.37249 C934.998332,1054.26312 934.12268,1054.323 933.228941,1054.60463 C931.569477,1055.12898 930.529639,1056.18051 930.905926,1056.95287 C931.283151,1057.72485 932.93463,1057.92809 934.594799,1057.40129 C936.039579,1056.9438 937.016467,1056.09117 936.99979,1055.36773 L936.99979,1054.56175 L936.99979,1043 L926.854859,1045.80591 Z" id="music"></path>
        </g>
    </g>
</svg>