<?xml version="1.0" encoding="UTF-8"?>
<svg width="22px" height="22px" viewBox="0 0 22 22" version="1.1" xmlns="http://www.w3.org/2000/svg" xmlns:xlink="http://www.w3.org/1999/xlink">
    <!-- Generator: Sketch 49.2 (51160) - http://www.bohemiancoding.com/sketch -->
    <title>notifications</title>
    <desc>Created with Sketch.</desc>
    <defs></defs>
    <g id="Cosound" stroke="none" stroke-width="1" fill="none" fill-rule="evenodd">
        <g id="11,12,16_b" transform="translate(-1611.000000, -44.000000)" fill="#FFFFFF" fill-rule="nonzero">
            <path d="M1628,57.0021266 L1628,52.0012405 C1628,48.6868072 1625.31367,46 1622,46 C1618.68633,46 1616,48.6868072 1616,52.0012405 L1616,57.0021266 C1616,57.7309016 1615.80515,58.4141693 1615.46472,59.0026582 L1628.53528,59.0026582 C1628.19485,58.4141693 1628,57.7309016 1628,57.0021266 Z M1632,61.0026582 L1612,61.0026582 C1610.66667,61.0026582 1610.66667,59.0026582 1612,59.0026582 C1613.10453,59.0026582 1614,58.1070294 1614,57.0021266 L1614,52.0012404 C1614,47.582317 1617.58168,44 1622,44 C1626.41832,44 1630,47.582317 1630,52.0012405 L1630,57.0021266 C1630,58.1070294 1630.89547,59.0026582 1632,59.0026582 C1633.33333,59.0026582 1633.33333,61.0026582 1632,61.0026582 Z M1622.86496,63.5016618 C1622.68605,63.8101483 1622.35649,64 1622,64 C1621.64351,64 1621.31395,63.8101483 1621.13504,63.5016618 L1620.27,64.0033671 L1620.27,65.0033671 L1623.73,65.0033671 L1623.73,64.0033671 L1622.86496,63.5016618 Z M1624.59504,64.5050725 C1624.05836,65.4304132 1623.06964,66 1622,66 C1620.93036,66 1619.94164,65.4304132 1619.40496,64.5050725 C1619.01831,63.8384077 1619.49932,63.0033671 1620.27,63.0033671 L1623.73,63.0033671 C1624.50068,63.0033671 1624.98169,63.8384077 1624.59504,64.5050725 Z" id="notifications"></path>
        </g>
    </g>
</svg>