<?xml version="1.0" encoding="UTF-8"?>
<svg width="35px" height="35px" viewBox="0 0 35 35" version="1.1" xmlns="http://www.w3.org/2000/svg" xmlns:xlink="http://www.w3.org/1999/xlink">
    <!-- Generator: Sketch 49.2 (51160) - http://www.bohemiancoding.com/sketch -->
    <title>plan-benefit-3</title>
    <desc>Created with Sketch.</desc>
    <defs></defs>
    <g id="Cosound" stroke="none" stroke-width="1" fill="none" fill-rule="evenodd">
        <g id="14-v.1" transform="translate(-1330.000000, -1320.000000)" fill="#8262CB" fill-rule="nonzero">
            <g id="plan-benefit-3" transform="translate(1331.000000, 1321.000000)">
                <path d="M16.5,34 C6.83501688,34 -1,26.1649831 -1,16.5 C-1,6.83501688 6.83501688,-1 16.5,-1 C26.1649831,-1 34,6.83501688 34,16.5 C34,26.1649831 26.1649831,34 16.5,34 Z M16.5,32 C25.0604136,32 32,25.0604136 32,16.5 C32,7.93958638 25.0604136,1 16.5,1 C7.93958638,1 1,7.93958638 1,16.5 C1,25.0604136 7.93958638,32 16.5,32 Z" id="Oval"></path>
                <path d="M0,18 C-0.55228475,18 -1,17.5522847 -1,17 C-1,16.4477153 -0.55228475,16 0,16 L33,16 C33.5522847,16 34,16.4477153 34,17 C34,17.5522847 33.5522847,18 33,18 L0,18 Z" id="Shape"></path>
                <path d="M10.9997896,16.4794872 C11.1125247,21.9741703 13.0586022,27.2544926 16.5000047,31.4643963 C19.9414013,27.2546581 21.8874754,21.9768457 22.0002104,16.5205128 C21.8874753,11.0258297 19.9413978,5.74550744 16.4999953,1.53560369 C13.0585987,5.7453419 11.1125246,11.0231543 10.9997896,16.4794872 Z M17.2434474,-0.668794405 C21.4687743,4.0281772 23.8693511,10.1219491 23.9997896,16.5205128 C23.8693511,22.8780509 21.4687743,28.9718228 17.2434474,33.6687944 C16.8461838,34.1104019 16.1538162,34.1104019 15.7565526,33.6687944 C11.5312257,28.9718228 9.13064885,22.8780509 9.00021041,16.4794872 C9.13064885,10.1219491 11.5312257,4.0281772 15.7565526,-0.668794405 C16.1538162,-1.11040186 16.8461838,-1.11040186 17.2434474,-0.668794405 Z" id="Shape"></path>
            </g>
        </g>
    </g>
</svg>