<?xml version="1.0" encoding="UTF-8"?>
<svg width="30px" height="30px" viewBox="0 0 30 30" version="1.1" xmlns="http://www.w3.org/2000/svg" xmlns:xlink="http://www.w3.org/1999/xlink">
    <!-- Generator: Sketch 49.2 (51160) - http://www.bohemiancoding.com/sketch -->
    <title>plan-benefit-6</title>
    <desc>Created with Sketch.</desc>
    <defs></defs>
    <g id="Cosound" stroke="none" stroke-width="1" fill="none" fill-rule="evenodd">
        <g id="14-v.1" transform="translate(-1334.000000, -1705.000000)" fill="#8262CB" fill-rule="nonzero">
            <path d="M1360.11147,1714.8 C1361.23596,1714.78747 1362.31053,1715.26209 1363.05117,1716.10031 C1363.79521,1716.94236 1364.1267,1718.06605 1363.95584,1719.17386 L1361.99295,1731.77213 C1361.70397,1733.6474 1360.06186,1735.02105 1358.15948,1734.99982 L1342.11287,1735 C1341.56058,1735.00001 1341.11286,1734.55229 1341.11286,1734 L1341.11286,1718.59992 C1341.11286,1718.45799 1341.14307,1718.31768 1341.20149,1718.18833 L1346.89178,1705.58841 C1347.05354,1705.23022 1347.41012,1705 1347.80315,1705 C1350.70888,1705 1353.07086,1707.32449 1353.07086,1710.19997 L1353.07086,1714.79994 L1360.11147,1714.8 Z M1358.17059,1732.99988 C1359.0945,1733.01016 1359.87979,1732.35326 1360.01653,1731.46588 L1361.97945,1718.86749 C1362.05935,1718.34938 1361.90388,1717.82236 1361.55242,1717.42459 C1361.19757,1717.02299 1360.67867,1716.7938 1360.12262,1716.79994 L1352.07086,1716.79994 C1351.51858,1716.79994 1351.07086,1716.35222 1351.07086,1715.79994 L1351.07086,1710.19997 C1351.07086,1708.64302 1349.9335,1707.34121 1348.42285,1707.05742 L1343.11286,1718.81525 L1343.11286,1733 L1358.17059,1732.99988 Z M1341.11286,1719.59992 L1337.84514,1719.59992 C1336.82255,1719.59992 1336,1720.40941 1336,1721.3999 L1336,1731.19984 C1336,1732.19033 1336.82255,1732.99982 1337.84514,1732.99982 L1341.11286,1732.99982 L1341.11286,1719.59992 Z M1342.11286,1734.99982 L1337.84514,1734.99982 C1335.72508,1734.99982 1334,1733.30212 1334,1731.19984 L1334,1721.3999 C1334,1719.29761 1335.72508,1717.59992 1337.84514,1717.59992 L1342.11286,1717.59992 C1342.66514,1717.59992 1343.11286,1718.04763 1343.11286,1718.59992 L1343.11286,1733.99982 C1343.11286,1734.5521 1342.66514,1734.99982 1342.11286,1734.99982 Z" id="plan-benefit-6"></path>
        </g>
    </g>
</svg>