<?xml version="1.0" encoding="UTF-8"?>
<svg width="37px" height="41px" viewBox="0 0 37 41" version="1.1" xmlns="http://www.w3.org/2000/svg" xmlns:xlink="http://www.w3.org/1999/xlink">
    <!-- Generator: Sketch 49.2 (51160) - http://www.bohemiancoding.com/sketch -->
    <title>plan-benefit-2</title>
    <desc>Created with Sketch.</desc>
    <defs></defs>
    <g id="Cosound" stroke="none" stroke-width="1" fill="none" fill-rule="evenodd">
        <g id="14-v.1" transform="translate(-940.000000, -1317.000000)" fill="#8262CB" fill-rule="nonzero">
            <g id="plan-benefit-2" transform="translate(941.000000, 1318.000000)">
                <path d="M16.3928092,1.26166247 L2.39062198,8.32257388 C1.54011304,8.74881309 1.00059126,9.62628682 1.00008522,10.5878193 L1.00006141,27.397031 C0.993410607,28.360853 1.52837497,29.2437291 2.37534329,29.6741423 L16.3755966,36.734082 C17.078141,37.0886393 17.9044443,37.0886393 18.6072761,36.733937 L32.6094632,29.6730256 C33.4599722,29.2467864 33.999494,28.3693127 34,27.4077802 L34.0000001,10.5883454 C33.999494,9.62628682 33.4599722,8.74881309 32.607242,8.32145722 L18.6084792,1.2622692 C17.9095757,0.912407061 17.0893748,0.912576474 16.3928092,1.26166247 Z M19.5055805,-0.525246322 L33.5055462,6.53454835 C35.0338334,7.30046141 35.9990965,8.87035736 36,10.5878193 L35.9999999,27.4083064 C35.9990965,29.1252421 35.0338334,30.6951381 33.5077675,31.4599345 L19.5080889,38.5195843 C18.2388504,39.1601386 16.7437349,39.1601386 15.4747837,38.5197292 L1.47204636,31.4585315 C-0.0547346983,30.6826602 -1.0117598,29.103238 -0.99991478,27.3901307 L-0.999914642,10.5872931 C-0.999011287,8.87035736 -0.0337481384,7.30046141 1.49231774,6.53566501 L15.4945048,-0.525246322 C16.7575892,-1.15825123 18.242496,-1.15825123 19.5055805,-0.525246322 Z" id="Shape"></path>
                <path d="M18,16.8685068 L34.5321123,8.11621208 C35.0202149,7.85780483 35.6253807,8.04400969 35.8837879,8.53211228 C36.1421952,9.02021487 35.9559903,9.62538066 35.4678877,9.88378792 L18.4678877,18.8837879 C18.1752054,19.0387374 17.8247946,19.0387374 17.5321123,18.8837879 L0.53211228,9.88378792 C0.0440096913,9.62538066 -0.142195169,9.02021487 0.116212084,8.53211228 C0.374619336,8.04400969 0.979785132,7.85780483 1.46788772,8.11621208 L18,16.8685068 Z" id="Shape"></path>
                <path d="M19,39 C19,39.5522847 18.5522847,40 18,40 C17.4477153,40 17,39.5522847 17,39 L17,18 C17,17.4477153 17.4477153,17 18,17 C18.5522847,17 19,17.4477153 19,18 L19,39 Z" id="Shape"></path>
            </g>
        </g>
    </g>
</svg>