<?xml version="1.0" encoding="UTF-8"?>
<svg width="38px" height="36px" viewBox="0 0 38 36" version="1.1" xmlns="http://www.w3.org/2000/svg" xmlns:xlink="http://www.w3.org/1999/xlink">
    <!-- Generator: Sketch 49.2 (51160) - http://www.bohemiancoding.com/sketch -->
    <title>plan-benefit-1</title>
    <desc>Created with Sketch.</desc>
    <defs></defs>
    <g id="Cosound" stroke="none" stroke-width="1" fill="none" fill-rule="evenodd">
        <g id="14-v.1" transform="translate(-550.000000, -1319.000000)" fill="#8262CB" fill-rule="nonzero">
            <g id="plan-benefit-1" transform="translate(551.000000, 1320.000000)">
                <path d="M33,15.42858 C33,14.8762952 33.4477153,14.42858 34,14.42858 C34.5522847,14.42858 35,14.8762952 35,15.42858 L34.9999998,17.0100473 C34.9954419,24.9811997 29.7481263,31.9999082 22.1036521,34.2599976 C14.4591976,36.5200811 6.23860533,33.4831893 1.89982296,26.7961803 C-2.4389782,20.1091424 -1.86235157,11.3649329 3.31699815,5.3054837 C8.49632362,-0.753937139 17.0445269,-2.68516852 24.3260068,0.559064171 C24.8304846,0.783832114 25.0572342,1.37500257 24.8324663,1.87948033 C24.6076983,2.3839581 24.0165279,2.61070771 23.5120501,2.38593977 C17.0395919,-0.497836718 9.44114652,1.21882299 4.83730305,6.60497322 C0.233483848,11.9910951 -0.27906564,19.7636117 3.57760083,25.7075751 C7.4342861,31.6515673 14.7415089,34.3510377 21.5366149,32.3420641 C28.3317012,30.3330963 32.9959487,24.0942885 33,17.0094755 L33,15.42858 Z" id="Shape"></path>
                <path d="M35.3095211,1.27664443 C35.7090193,0.89530524 36.342013,0.910026025 36.7233522,1.30952423 C37.1046914,1.70902243 37.0899706,2.34201621 36.6904724,2.7233554 L17.833332,20.7233539 C17.446908,21.0922131 16.8388046,21.0922131 16.4523807,20.7233539 L11.3095242,15.8142634 C10.910026,15.4329242 10.8953052,14.7999304 11.2766444,14.4004322 C11.6579836,14.000934 12.2909773,13.9862132 12.6904755,14.3675524 L17.1428563,18.6175525 L35.3095211,1.27664443 Z" id="Shape"></path>
            </g>
        </g>
    </g>
</svg>