<?xml version="1.0" encoding="UTF-8"?>
<svg width="26px" height="29px" viewBox="0 0 26 29" version="1.1" xmlns="http://www.w3.org/2000/svg" xmlns:xlink="http://www.w3.org/1999/xlink">
    <!-- Generator: Sketch 49.2 (51160) - http://www.bohemiancoding.com/sketch -->
    <title>plan-benefit-5</title>
    <desc>Created with Sketch.</desc>
    <defs></defs>
    <g id="Cosound" stroke="none" stroke-width="1" fill="none" fill-rule="evenodd">
        <g id="14-v.1" transform="translate(-945.000000, -1708.000000)" fill="#8262CB" fill-rule="nonzero">
            <path d="M946,1726.2 C945.155016,1726.2 944.690912,1725.21694 945.227886,1724.56452 L958.56122,1708.36452 C959.197296,1707.59168 960.448439,1708.12914 960.325799,1709.12253 L959.131049,1718.8 L970,1718.8 C970.844984,1718.8 971.309088,1719.78306 970.772114,1720.43548 L957.43878,1736.63548 C956.802704,1737.40832 955.551561,1736.87086 955.674201,1735.87747 L956.868951,1726.2 L946,1726.2 Z M948.118191,1724.2 L958,1724.2 C958.600888,1724.2 959.06609,1724.72617 958.992465,1725.32253 L958.080624,1732.70844 L967.881809,1720.8 L958,1720.8 C957.399112,1720.8 956.93391,1720.27383 957.007535,1719.67747 L957.919376,1712.29156 L948.118191,1724.2 Z" id="plan-benefit-5"></path>
        </g>
    </g>
</svg>