<?xml version="1.0" encoding="UTF-8"?>
<svg width="37px" height="30px" viewBox="0 0 37 30" version="1.1" xmlns="http://www.w3.org/2000/svg" xmlns:xlink="http://www.w3.org/1999/xlink">
    <!-- Generator: Sketch 49.2 (51160) - http://www.bohemiancoding.com/sketch -->
    <title>plan-benefit-4</title>
    <desc>Created with Sketch.</desc>
    <defs></defs>
    <g id="Cosound" stroke="none" stroke-width="1" fill="none" fill-rule="evenodd">
        <g id="14-v.1" transform="translate(-549.000000, -1708.000000)" fill="#8262CB" fill-rule="nonzero">
            <g id="plan-benefit-4" transform="translate(550.000000, 1709.000000)">
                <path d="M1,10 L10,10 C10.5522847,10 11,10.4477153 11,11 C11,11.5522847 10.5522847,12 10,12 L0,12 C-0.55228475,12 -1,11.5522847 -1,11 L-1,2 C-1,1.44771525 -0.55228475,1 0,1 C0.55228475,1 1,1.44771525 1,2 L1,10 Z" id="Shape"></path>
                <path d="M34,18 L25,18 C24.4477153,18 24,17.5522847 24,17 C24,16.4477153 24.4477153,16 25,16 L35,16 C35.5522847,16 36,16.4477153 36,17 L36,26 C36,26.5522847 35.5522847,27 35,27 C34.4477153,27 34,26.5522847 34,26 L34,18 Z" id="Shape"></path>
                <path d="M31.9471586,8.9919595 C32.1350653,9.51129515 31.866389,10.0846284 31.3470534,10.272535 C30.8277177,10.4604417 30.2543845,10.1917655 30.0664778,9.67242984 C28.5436455,5.46363304 24.9150324,2.30938617 20.4525731,1.32189504 C15.9863104,0.333562248 11.3145205,1.65517539 8.05847509,4.84055116 L0.676656909,11.6244282 C0.270010496,11.9981355 -0.362591172,11.9714331 -0.736298464,11.5647867 C-1.11000576,11.1581403 -1.08330332,10.5255386 -0.676656909,10.1518313 L6.68243427,3.38950649 C10.3999859,-0.248142417 15.7608969,-1.76470257 20.8846964,-0.630864407 C26.0122994,0.50381541 30.1899129,4.13529224 31.9471586,8.9919595 Z M34.3233431,16.3755718 C34.7299895,16.0018645 35.3625912,16.0285669 35.7362985,16.4352133 C36.1100058,16.8418597 36.0833033,17.4744614 35.6766569,17.8481687 L28.3175657,24.6104935 C24.6000141,28.2481424 19.2391031,29.7647026 14.1153036,28.6308644 C8.98770063,27.4961846 4.81008707,23.8647078 3.05284144,19.0080405 C2.86493474,18.4887049 3.133611,17.9153716 3.65294665,17.727465 C4.1722823,17.5395583 4.7456155,17.8082345 4.9335222,18.3275702 C6.4563545,22.536367 10.0849676,25.6906138 14.5474269,26.678105 C19.0136896,27.6664378 23.6854795,26.3448246 26.9415249,23.1594488 L34.3233431,16.3755718 Z" id="Shape"></path>
            </g>
        </g>
    </g>
</svg>