<?xml version="1.0" encoding="UTF-8"?>
<svg width="18px" height="18px" viewBox="0 0 18 18" version="1.1" xmlns="http://www.w3.org/2000/svg" xmlns:xlink="http://www.w3.org/1999/xlink">
    <!-- Generator: Sketch 49.2 (51160) - http://www.bohemiancoding.com/sketch -->
    <title>plus</title>
    <desc>Created with Sketch.</desc>
    <defs></defs>
    <g id="Cosound" stroke="none" stroke-width="1" fill="none" fill-rule="evenodd">
        <g id="5" transform="translate(-1193.000000, -866.000000)" fill="#262626" fill-rule="nonzero">
            <g id="plus" transform="translate(1194.000000, 867.000000)">
                <path d="M7,0 C7,-0.55228475 7.44771525,-1 8,-1 C8.55228475,-1 9,-0.55228475 9,0 L9,16 C9,16.5522847 8.55228475,17 8,17 C7.44771525,17 7,16.5522847 7,16 L7,0 Z" id="Shape"></path>
                <path d="M0,9 C-0.55228475,9 -1,8.55228475 -1,8 C-1,7.44771525 -0.55228475,7 0,7 L16,7 C16.5522847,7 17,7.44771525 17,8 C17,8.55228475 16.5522847,9 16,9 L0,9 Z" id="Shape"></path>
            </g>
        </g>
    </g>
</svg>