<?xml version="1.0" encoding="UTF-8"?>
<svg width="35px" height="35px" viewBox="0 0 35 35" version="1.1" xmlns="http://www.w3.org/2000/svg" xmlns:xlink="http://www.w3.org/1999/xlink">
    <!-- Generator: Sketch 49.2 (51160) - http://www.bohemiancoding.com/sketch -->
    <title>promo-benefiit-3</title>
    <desc>Created with Sketch.</desc>
    <defs></defs>
    <g id="Page-1" stroke="none" stroke-width="1" fill="none" fill-rule="evenodd">
        <g id="1_c" transform="translate(-1383.000000, -640.000000)" fill="#7178BF" fill-rule="nonzero">
            <path d="M1400.41399,640 C1390.82228,640 1383,647.834537 1383,657.5 C1383,667.165463 1390.82192,675 1400.41399,675 C1410.00715,675 1418,667.165463 1418,657.5 C1418,647.834537 1410.00752,640 1400.41399,640 Z M1414.24393,662.974557 L1409.60881,662.974557 C1409.86028,661.692363 1410.01444,660.307054 1410.04506,658.819359 L1415.21885,658.819359 C1415.09238,660.274626 1414.75599,661.669044 1414.24393,662.974557 Z M1415.22031,656.188292 L1409.97107,656.188292 C1409.86137,654.763997 1409.63905,653.411116 1409.32963,652.140582 L1414.28949,652.140582 C1414.7775,653.415124 1415.09785,654.773106 1415.22031,656.188292 Z M1412.97053,649.509515 L1408.51909,649.509515 C1407.46181,646.700639 1405.95369,644.473287 1404.29543,643.074132 C1407.92648,644.061921 1411.00503,646.396396 1412.97053,649.509515 Z M1401.80876,644.078682 C1403.41964,644.825626 1404.84174,646.795374 1405.82686,649.509515 L1401.80876,649.509515 L1401.80876,644.078682 Z M1401.80876,652.140582 L1406.58857,652.140582 C1406.87175,653.402007 1407.0722,654.761082 1407.1717,656.188292 L1401.80876,656.188292 L1401.80876,652.140582 Z M1407.23839,658.819359 C1407.21033,660.324179 1407.06419,661.709488 1406.82802,662.974557 L1401.80876,662.974557 L1401.80876,658.819359 L1407.23839,658.819359 Z M1385.57523,658.819359 L1390.69654,658.819359 C1390.72716,660.307054 1390.88096,661.692727 1391.1328,662.974557 L1386.55051,662.974557 C1386.03809,661.669044 1385.70206,660.274626 1385.57523,658.819359 Z M1393.6683,658.819359 L1399.09685,658.819359 L1399.09685,662.974557 L1394.05973,662.974557 C1393.8345,661.709124 1393.69491,660.324544 1393.6683,658.819359 Z M1393.73136,656.188292 C1393.82575,654.761082 1394.01672,653.402007 1394.28788,652.140582 L1399.09649,652.140582 L1399.09649,656.188292 L1393.73136,656.188292 Z M1399.09685,644.010181 L1399.09685,649.509515 L1395.01861,649.509515 C1395.99826,646.706833 1397.43786,644.698828 1399.09685,644.010181 Z M1396.42176,643.095994 C1394.77333,644.496242 1393.27506,646.715214 1392.22288,649.509515 L1387.82392,649.509515 C1389.77593,646.418622 1392.82459,644.095807 1396.42176,643.095994 Z M1386.50459,652.140582 L1391.41197,652.140582 C1391.10255,653.411116 1390.88023,654.763997 1390.77053,656.188292 L1385.57378,656.188292 C1385.69623,654.773106 1386.01695,653.415124 1386.50459,652.140582 Z M1387.89717,665.605988 L1391.83546,665.605988 C1392.74915,668.27094 1394.13153,670.324491 1395.7016,671.683566 C1392.46196,670.601772 1389.71835,668.431989 1387.89717,665.605988 Z M1394.71356,665.605988 L1399.09685,665.605988 L1399.09685,671.048845 C1397.25417,670.449832 1395.68556,668.539476 1394.71356,665.605988 Z M1401.80876,670.99492 L1401.80876,665.605988 L1406.1443,665.605988 C1405.16173,668.455673 1403.60406,670.341252 1401.80876,670.99492 Z M1405.00721,671.712715 C1406.59112,670.354005 1407.98589,668.289887 1408.90614,665.605988 L1412.89764,665.605988 C1411.06079,668.45713 1408.28438,670.640394 1405.00721,671.712715 Z" id="promo-benefiit-3"></path>
        </g>
    </g>
</svg>