<?xml version="1.0" encoding="UTF-8"?>
<svg width="39px" height="32px" viewBox="0 0 39 32" version="1.1" xmlns="http://www.w3.org/2000/svg" xmlns:xlink="http://www.w3.org/1999/xlink">
    <!-- Generator: Sketch 49.2 (51160) - http://www.bohemiancoding.com/sketch -->
    <title>promo-benefiit-5</title>
    <desc>Created with Sketch.</desc>
    <defs></defs>
    <g id="Page-1" stroke="none" stroke-width="1" fill="none" fill-rule="evenodd">
        <g id="1_c" transform="translate(-974.000000, -1042.000000)" fill="#7178BF">
            <path d="M1003.60329,1071.61367 C1002.81366,1072.40358 1001.53296,1072.40358 1000.74309,1071.61367 C999.953226,1070.82377 999.953464,1069.54285 1000.74309,1068.7527 C1001.53296,1067.96279 1002.81342,1067.96279 1003.60329,1068.7527 C1004.39292,1069.54285 1004.39292,1070.82377 1003.60329,1071.61367 Z M984.882389,1058.8481 L999.72115,1073.01091 C1003.03073,1076.17006 1008.15663,1071.03995 1004.99979,1067.7304 L990.841768,1052.88637 C993.41485,1047.69858 986.536939,1040.65447 980.264234,1042.22285 L985.758748,1047.71502 L985.30103,1053.30397 L979.714306,1053.76161 L974.222175,1048.26896 C972.656739,1054.54294 979.697151,1061.42138 984.882389,1058.8481 Z M983.396774,1071.61367 C982.606908,1070.82377 982.607146,1069.54285 983.396774,1068.7527 C984.186402,1067.96279 985.467105,1067.96279 986.256733,1068.7527 C987.046599,1069.54261 987.046599,1070.82353 986.256733,1071.61367 C985.467105,1072.40382 984.186402,1072.40382 983.396774,1071.61367 Z M1002.11743,1058.8481 L1000.14789,1060.72777 L994.413679,1054.71527 L996.158056,1052.88637 C993.585213,1047.69858 1000.46289,1040.65424 1006.73583,1042.22309 L1001.24131,1047.71526 L1001.69903,1053.30397 L1007.28552,1053.76161 L1012.77789,1048.2692 C1014.34309,1054.54294 1007.30267,1061.42138 1002.11743,1058.8481 Z M986.854553,1062.64057 L992.499177,1068.0281 L987.278674,1073.01091 C983.969099,1076.17006 978.842952,1071.03995 981.999795,1067.7304 L986.854553,1062.64057 Z" id="promo-benefiit-5"></path>
        </g>
    </g>
</svg>