<?xml version="1.0" encoding="UTF-8"?>
<svg width="31px" height="31px" viewBox="0 0 31 31" version="1.1" xmlns="http://www.w3.org/2000/svg" xmlns:xlink="http://www.w3.org/1999/xlink">
    <!-- Generator: Sketch 49.2 (51160) - http://www.bohemiancoding.com/sketch -->
    <title>promo-benefiit-6</title>
    <desc>Created with Sketch.</desc>
    <defs></defs>
    <g id="Page-1" stroke="none" stroke-width="1" fill="none" fill-rule="evenodd">
        <g id="1_c" transform="translate(-1385.000000, -1043.000000)" fill="#7178BF" fill-rule="nonzero">
            <path d="M1416,1043 L1395.24964,1046.30773 L1395.24964,1066.55807 C1394.19307,1065.52033 1392.57772,1064.85557 1390.7648,1064.85557 C1387.58077,1064.85557 1385,1066.90284 1385,1069.42809 C1385,1071.95272 1387.58077,1074 1390.7648,1074 C1393.94852,1074 1396.5296,1071.95303 1396.5296,1069.42809 C1396.5296,1069.40331 1396.53862,1052.67476 1396.53862,1052.67476 L1414.72844,1049.74495 L1414.72595,1060.90847 C1413.66969,1059.8568 1412.04469,1059.17995 1410.21653,1059.17995 C1407.03312,1059.17995 1404.45204,1061.22753 1404.45204,1063.75247 C1404.45204,1066.27741 1407.03312,1068.32438 1410.21653,1068.32438 C1413.40119,1068.32438 1415.99969,1066.37159 1415.99969,1063.84695 C1416,1063.84014 1416,1043 1416,1043 Z" id="promo-benefiit-6"></path>
        </g>
    </g>
</svg>