<?xml version="1.0" encoding="UTF-8"?>
<svg width="28px" height="36px" viewBox="0 0 28 36" version="1.1" xmlns="http://www.w3.org/2000/svg" xmlns:xlink="http://www.w3.org/1999/xlink">
    <!-- Generator: Sketch 49.2 (51160) - http://www.bohemiancoding.com/sketch -->
    <title>promo-benefiit-4</title>
    <desc>Created with Sketch.</desc>
    <defs></defs>
    <g id="Page-1" stroke="none" stroke-width="1" fill="none" fill-rule="evenodd">
        <g id="1_c" transform="translate(-598.000000, -1041.000000)" fill="#7178BF" fill-rule="nonzero">
            <path d="M603.116769,1041 C600.302921,1041 598,1043.37126 598,1046.223 C598,1048.51661 599.490172,1050.46594 601.538615,1051.14651 L601.538615,1066.85349 C599.490172,1067.53966 598,1069.52058 598,1071.81419 C598,1074.6664 600.302921,1077 603.116769,1077 C605.930618,1077 608.245769,1074.6664 608.245769,1071.81419 C608.245769,1069.52058 606.743367,1067.53966 604.694923,1066.85349 L604.694923,1066.60358 C604.694923,1064.2328 605.41101,1063.30872 606.729163,1062.46741 C608.047316,1061.6265 610.122983,1061.11067 612.363962,1060.55566 C614.604546,1060.00066 617.034903,1059.39406 619.04626,1057.86899 C620.873762,1056.48347 622.18718,1054.23824 622.412067,1051.1589 C624.479449,1050.48993 626,1048.53061 626,1046.223 C626,1043.37118 623.684848,1041 620.871,1041 C618.057152,1041 615.754231,1043.37126 615.754231,1046.223 C615.754231,1048.50262 617.226648,1050.44195 619.25576,1051.13371 C619.089264,1053.32615 618.311234,1054.43737 617.147346,1055.31987 C615.829982,1056.31912 613.821781,1056.91212 611.623808,1057.45673 C609.426228,1058.00134 607.063338,1058.48518 605.052375,1059.76834 C604.931646,1059.84551 604.811707,1059.92108 604.694923,1060.00585 L604.694923,1051.14651 C606.743367,1050.46594 608.245769,1048.51661 608.245769,1046.223 C608.245769,1043.37118 605.930618,1041 603.116769,1041 Z M603.116769,1044.21137 C604.225028,1044.21137 605.101692,1045.09987 605.101692,1046.22308 C605.101692,1047.34629 604.225028,1048.1976 603.116769,1048.1976 C602.008511,1048.1976 601.144077,1047.34629 601.144077,1046.22308 C601.144077,1045.09987 602.008511,1044.21137 603.116769,1044.21137 Z M620.871,1044.21137 C621.979259,1044.21137 622.855923,1045.09987 622.855923,1046.22308 C622.855923,1047.34629 621.979259,1048.1976 620.871,1048.1976 C619.762741,1048.1976 618.898308,1047.34629 618.898308,1046.22308 C618.898308,1045.09987 619.762741,1044.21137 620.871,1044.21137 Z M603.116769,1069.80256 C604.225028,1069.80256 605.101692,1070.69105 605.101692,1071.81427 C605.101692,1072.93748 604.225028,1073.78879 603.116769,1073.78879 C602.008511,1073.78879 601.144077,1072.93748 601.144077,1071.81427 C601.144077,1070.69105 602.008511,1069.80256 603.116769,1069.80256 Z" id="promo-benefiit-4"></path>
        </g>
    </g>
</svg>