<?xml version="1.0" encoding="UTF-8"?>
<svg width="37px" height="36px" viewBox="0 0 37 36" version="1.1" xmlns="http://www.w3.org/2000/svg" xmlns:xlink="http://www.w3.org/1999/xlink">
    <!-- Generator: Sketch 49.2 (51160) - http://www.bohemiancoding.com/sketch -->
    <title>promo-benefiit-2</title>
    <desc>Created with Sketch.</desc>
    <defs></defs>
    <g id="Page-1" stroke="none" stroke-width="1" fill="none" fill-rule="evenodd">
        <g id="1_c" transform="translate(-975.000000, -639.000000)" fill="#7178BF" fill-rule="nonzero">
            <path d="M990.521045,675 C988.947731,675 987.636635,673.687962 987.636635,672.113516 C987.636635,670.53907 988.947731,669.227032 990.521045,669.227032 C992.09436,669.227032 993.405456,670.53907 993.405456,672.113516 C993.339901,673.687962 992.09436,675 990.521045,675 Z M1004.15644,675 C1005.72975,675 1007.04085,673.687962 1007.04085,672.113516 C1007.04085,670.53907 1005.72975,669.227032 1004.15644,669.227032 C1002.58313,669.227032 1001.27203,670.53907 1001.27203,672.113516 C1001.27203,673.687962 1002.58313,675 1004.15644,675 Z M983.768903,646.594373 L982.720026,641.608627 C982.720026,641.477423 982.654471,641.411822 982.654471,641.34622 C982.523362,640.952608 982.195588,640.624599 981.736705,640.493395 L976.820096,639.050153 C976.033438,638.853347 975.246781,639.246959 975.050117,640.034181 C974.853452,640.821404 975.246781,641.608627 976.033438,641.805433 L980.097835,642.986267 L985.014444,666.734159 C985.079998,667.45578 985.735546,667.980596 986.456649,667.980596 L1007.63084,667.980596 C1008.4175,667.980596 1009.07305,667.324576 1009.07305,666.537353 C1009.07305,665.750131 1008.4175,665.094111 1007.63084,665.094111 L987.57108,665.094111 L986.915532,661.814016 L1008.02417,661.814016 C1009.1386,661.814016 1010.05637,661.092395 1010.25303,660.042764 L1011.95746,651.448914 C1012.21968,650.202478 1011.23636,649.087245 1009.92526,648.956041 L984.162231,646.528771 C984.031122,646.528771 983.900012,646.528771 983.768903,646.594373 Z" id="promo-benefiit-2"></path>
        </g>
    </g>
</svg>