<?xml version="1.0" encoding="UTF-8"?>
<svg width="35px" height="35px" viewBox="0 0 35 35" version="1.1" xmlns="http://www.w3.org/2000/svg" xmlns:xlink="http://www.w3.org/1999/xlink">
    <!-- Generator: Sketch 49.2 (51160) - http://www.bohemiancoding.com/sketch -->
    <title>promo-benefiit-1</title>
    <desc>Created with Sketch.</desc>
    <defs></defs>
    <g id="Page-1" stroke="none" stroke-width="1" fill="none" fill-rule="evenodd">
        <g id="1_c" transform="translate(-590.000000, -640.000000)" fill="#7178BF" fill-rule="nonzero">
            <path d="M624.906186,654.455856 C625.30094,655.965936 624.413759,657.514579 622.923975,657.915958 L616.00588,659.776306 C616.349833,658.757405 616.338487,657.649772 615.973736,656.638326 L621.952513,655.031333 L618.827405,643.087466 L602.21612,647.553748 L604.851925,657.62641 L602.251836,659.555526 L599.262447,648.129225 C598.869801,646.619434 599.756166,645.072215 601.244658,644.669123 L618.255957,640.09426 C619.745809,639.696358 621.272592,640.594587 621.67036,642.103001 L624.906186,654.455856 Z M615.713013,663.037344 C615.65858,662.830462 615.525261,662.653975 615.342396,662.546725 C615.159532,662.439475 614.94211,662.410252 614.737979,662.465486 L609.919956,663.757595 L613.384361,659.953655 C614.158103,659.131355 614.269184,657.876607 613.652228,656.927875 C613.086875,656.090734 612.062572,655.705103 611.094997,655.965127 C610.810533,656.041865 610.542799,656.171999 610.305684,656.348778 L603.187582,661.640273 L603.166153,661.640273 C602.507574,662.129577 601.61629,662.145525 600.941076,661.680086 C600.544562,661.395408 600.262964,660.97507 600.148192,660.496558 L598.212411,653.073263 C598.035645,653.101638 597.860413,653.139086 597.687393,653.185463 C596.60153,653.473321 595.635994,654.10786 594.933727,654.99514 L590.212136,660.992409 C590.019311,661.237934 589.953031,661.561678 590.033559,661.864673 L593.3051,674.358683 C593.362879,674.580243 593.505396,674.769339 593.701119,674.884133 C593.896842,674.998927 594.129635,675.029956 594.347993,674.970354 L596.619499,674.358683 L598.265984,673.917122 C601.08151,673.158112 603.609616,671.565246 605.526948,669.342258 C605.909588,670.066551 606.669446,670.502967 607.479219,670.463522 C608.288992,670.424077 609.004041,669.915817 609.316364,669.157671 C609.817344,669.906634 610.73087,670.2527 611.593813,670.020426 C612.456756,669.788152 613.080425,669.028325 613.148639,668.126156 C613.836662,668.667768 614.78352,668.721732 615.527131,668.261712 C616.270742,667.801693 616.656115,666.923571 616.495182,666.055885 L615.713013,663.037344 Z M616.427323,645.479858 L605.46266,648.426013 C605.013845,648.60246 604.768269,649.093201 604.892994,649.564393 C605.017719,650.035585 605.472688,650.335894 605.948391,650.261025 L616.916625,647.311252 C617.35902,647.130019 617.59807,646.64243 617.473364,646.175674 C617.348659,645.708918 616.899514,645.410152 616.427323,645.479858 Z M617.320211,648.896529 L606.35912,651.842683 C605.875757,651.993861 605.596242,652.504641 605.725688,653.000204 C605.855134,653.495767 606.347412,653.799515 606.841279,653.688553 L617.809513,650.73878 C618.292876,650.587601 618.572391,650.076821 618.442945,649.581258 C618.313499,649.085695 617.821221,648.781947 617.327354,648.892909 L617.320211,648.896529 Z M614.405825,653.337476 C613.922462,653.488654 613.642948,653.999434 613.772394,654.494997 C613.901839,654.990561 614.394117,655.294308 614.887984,655.183346 L618.702401,654.159069 C619.205392,654.022143 619.503613,653.497931 619.368495,652.988208 C619.233378,652.478485 618.71609,652.176273 618.213099,652.313199 L614.405825,653.337476 Z" id="promo-benefiit-1"></path>
        </g>
    </g>
</svg>