<?xml version="1.0" encoding="UTF-8"?>
<svg width="241px" height="180px" viewBox="0 0 241 180" version="1.1" xmlns="http://www.w3.org/2000/svg" xmlns:xlink="http://www.w3.org/1999/xlink">
    <!-- Generator: Sketch 49.3 (51167) - http://www.bohemiancoding.com/sketch -->
    <title>quotemark</title>
    <desc>Created with Sketch.</desc>
    <defs></defs>
    <g id="Page-1" stroke="none" stroke-width="1" fill="none" fill-rule="evenodd" fill-opacity="0.0299999993">
        <g id="Ambassadors" transform="translate(-837.000000, -2084.000000)" fill="#262626" fill-rule="nonzero">
            <path d="M975.245333,2264 C975.245333,2264 965,2264 965,2253.74874 C965,2253.74874 965,2251.9397 965,2238.37186 C965,2228.1206 975.245333,2228.1206 975.245333,2228.1206 C1001.76267,2226.31156 1024.36267,2209.72864 1035.21067,2186.81407 L1000.85867,2186.81407 C986.696,2186.81407 975.245333,2175.35678 975.245333,2161.18593 L975.245333,2109.62814 C975.245333,2095.45729 986.696,2084 1000.85867,2084 L1052.38667,2084 C1066.54933,2084 1078,2095.45729 1078,2109.62814 L1078,2161.18593 C1078,2217.86935 1031.896,2264 975.245333,2264 Z M847.245333,2264 C847.245333,2264 837,2264 837,2253.74874 C837,2253.74874 837,2251.9397 837,2238.37186 C837,2228.1206 847.245333,2228.1206 847.245333,2228.1206 C873.762667,2226.31156 896.362667,2209.72864 907.210667,2186.81407 L872.858667,2186.81407 C858.696,2186.81407 847.245333,2175.35678 847.245333,2161.18593 L847.245333,2109.62814 C847.245333,2095.45729 858.696,2084 872.858667,2084 L924.386667,2084 C938.549333,2084 950,2095.45729 950,2109.62814 L950,2161.18593 C950,2217.86935 904.197333,2264 847.245333,2264 Z" id="quotemark"></path>
        </g>
    </g>
</svg>