<?xml version="1.0" encoding="UTF-8"?>
<svg width="20px" height="20px" viewBox="0 0 20 20" version="1.1" xmlns="http://www.w3.org/2000/svg" xmlns:xlink="http://www.w3.org/1999/xlink">
    <!-- Generator: Sketch 49.2 (51160) - http://www.bohemiancoding.com/sketch -->
    <title>search</title>
    <desc>Created with Sketch.</desc>
    <defs></defs>
    <g id="Cosound" stroke="none" stroke-width="1" fill="none" fill-rule="evenodd">
        <g id="5" transform="translate(-1194.000000, -771.000000)" fill="#262626" fill-rule="nonzero">
            <g id="search" transform="translate(1195.000000, 772.000000)">
                <path d="M7.5,16 C2.80557963,16 -1,12.1944204 -1,7.5 C-1,2.80557963 2.80557963,-1 7.5,-1 C12.1944204,-1 16,2.80557963 16,7.5 C16,12.1944204 12.1944204,16 7.5,16 Z M7.5,14 C11.0898509,14 14,11.0898509 14,7.5 C14,3.91014913 11.0898509,1 7.5,1 C3.91014913,1 1,3.91014913 1,7.5 C1,11.0898509 3.91014913,14 7.5,14 Z" id="Oval"></path>
                <path d="M18.7071068,17.2928932 C19.0976311,17.6834175 19.0976311,18.3165825 18.7071068,18.7071068 C18.3165825,19.0976311 17.6834175,19.0976311 17.2928932,18.7071068 L12.0928932,13.5071068 C11.7023689,13.1165825 11.7023689,12.4834175 12.0928932,12.0928932 C12.4834175,11.7023689 13.1165825,11.7023689 13.5071068,12.0928932 L18.7071068,17.2928932 Z" id="Shape"></path>
            </g>
        </g>
    </g>
</svg>