<?xml version="1.0" encoding="UTF-8"?>
<svg width="15px" height="10px" viewBox="0 0 15 10" version="1.1" xmlns="http://www.w3.org/2000/svg" xmlns:xlink="http://www.w3.org/1999/xlink">
    <!-- Generator: Sketch 49.2 (51160) - http://www.bohemiancoding.com/sketch -->
    <title>share</title>
    <desc>Created with Sketch.</desc>
    <defs></defs>
    <g id="Cosound" stroke="none" stroke-width="1" fill="none" fill-rule="evenodd">
        <g id="17" transform="translate(-1001.000000, -1835.000000)" fill="#8E8E8E">
            <path d="M1012.93178,1837 L1012.93178,1839 L1012.24997,1839 C1011.97724,1839 1011.80679,1839.33333 1011.97724,1839.53333 L1013.68177,1841.66667 C1013.81814,1841.83333 1014.09086,1841.83333 1014.22722,1841.66667 L1015.93175,1839.53333 C1016.10221,1839.3 1015.93175,1839 1015.65903,1839 L1014.97722,1839 L1014.97722,1835.66667 C1014.97722,1835.3 1014.6704,1835 1014.2954,1835 L1003.72731,1835 C1003.35232,1835 1003.0455,1835.3 1003.0455,1835.66667 L1003.0455,1836.33333 C1003.0455,1836.7 1003.35232,1837 1003.72731,1837 L1012.93178,1837 Z M1013.27269,1843 C1013.64768,1843 1013.9545,1843.3 1013.9545,1843.66667 L1013.9545,1844.33333 C1013.9545,1844.7 1013.64768,1845 1013.27269,1845 L1002.7046,1845 C1002.3296,1845 1002.02278,1844.7 1002.02278,1844.33333 L1002.02278,1841 L1001.34097,1841 C1001.06825,1841 1000.89779,1840.66667 1001.06825,1840.46667 L1002.77278,1838.33333 C1002.90914,1838.16667 1003.18186,1838.16667 1003.31823,1838.33333 L1005.02276,1840.46667 C1005.19321,1840.7 1005.02276,1841 1004.75003,1841 L1004.06822,1841 L1004.06822,1843 L1013.27269,1843 Z" id="share"></path>
        </g>
    </g>
</svg>