<?xml version="1.0" encoding="UTF-8"?>
<svg width="15px" height="12px" viewBox="0 0 15 12" version="1.1" xmlns="http://www.w3.org/2000/svg" xmlns:xlink="http://www.w3.org/1999/xlink">
    <!-- Generator: Sketch 49.2 (51160) - http://www.bohemiancoding.com/sketch -->
    <title>social-tw</title>
    <desc>Created with Sketch.</desc>
    <defs></defs>
    <g id="Cosound" stroke="none" stroke-width="1" fill="none" fill-rule="evenodd">
        <g id="3" transform="translate(-906.000000, -828.000000)" fill="#1CA1F3">
            <g id="Group-4" transform="translate(879.000000, 812.000000)">
                <path d="M42,17.4375 C41.6186422,18.0208363 41.1101727,18.5416644 40.4745763,19 L40.4745763,19.375 C40.4745763,21.5625109 39.6747961,23.5468661 38.0752119,25.328125 C36.4756276,27.1093839 34.3517082,28 31.7033898,28 C30.0084661,28 28.4406852,27.5416713 27,26.625 C27.3389847,26.6666669 27.5826264,26.6875 27.7309322,26.6875 C29.1504308,26.6875 30.4216046,26.2500044 31.5444915,25.375 C30.8877086,25.3541666 30.2944942,25.1510436 29.7648305,24.765625 C29.2351668,24.3802064 28.875001,23.8854197 28.684322,23.28125 C28.9385606,23.3229169 29.1292367,23.34375 29.2563559,23.34375 C29.4682214,23.34375 29.7436424,23.3020838 30.0826271,23.21875 C29.3834711,23.0729159 28.7955532,22.7239611 28.3188559,22.171875 C27.8421586,21.6197889 27.6038136,20.9791703 27.6038136,20.25 L27.6038136,20.21875 C28.0699176,20.4687513 28.5360146,20.59375 29.0021186,20.59375 C28.0910971,20.0104137 27.6355932,19.1666722 27.6355932,18.0625 C27.6355932,17.5416641 27.7733037,17.0416691 28.0487288,16.5625 C29.6800929,18.5416766 31.7881227,19.5937494 34.3728814,19.71875 C34.3305083,19.5729159 34.309322,19.3437516 34.309322,19.03125 C34.309322,18.1770791 34.6059292,17.4583363 35.1991525,16.875 C35.7923758,16.2916637 36.5233007,16 37.3919492,16 C38.2605976,16 39.0021156,16.3229134 39.6165254,16.96875 C40.2521218,16.8645828 40.9088949,16.6145853 41.5868644,16.21875 C41.3749989,16.9479203 40.919495,17.5104147 40.220339,17.90625 C40.8771219,17.8437497 41.4703363,17.6875013 42,17.4375 Z" id="social-tw"></path>
            </g>
        </g>
    </g>
</svg>