<?xml version="1.0" encoding="UTF-8"?>
<svg width="25px" height="11px" viewBox="0 0 25 11" version="1.1" xmlns="http://www.w3.org/2000/svg" xmlns:xlink="http://www.w3.org/1999/xlink">
    <!-- Generator: Sketch 48.2 (47327) - http://www.bohemiancoding.com/sketch -->
    <title>social-soundcloud</title>
    <desc>Created with Sketch.</desc>
    <defs></defs>
    <g id="1" stroke="none" stroke-width="1" fill="none" fill-rule="evenodd" transform="translate(-1447.000000, -1978.000000)" opacity="0.52">
        <g id="Group-2" transform="translate(1368.000000, 1975.000000)" fill="#FFFFFF" fill-rule="nonzero">
            <path d="M79.2831102,9.57880791 C79.2309512,9.57880791 79.1895467,9.61966669 79.1828252,9.67795855 L79,11.0848624 L79.1828252,12.4675235 C79.1895467,12.5258153 79.2309512,12.5664017 79.2831102,12.5664017 C79.333656,12.5664017 79.3747916,12.5260877 79.3828575,12.4680682 L79.3828575,12.4677959 C79.3828575,12.4677959 79.3828575,12.4677959 79.3828575,12.4680682 L79.5995591,11.0848624 L79.3828575,9.67768616 C79.3750605,9.61966669 79.3333871,9.57880791 79.2831102,9.57880791 Z M80.311233,8.81011812 C80.3026295,8.74964713 80.2598806,8.70797118 80.207184,8.70797118 C80.1542184,8.70797118 80.1103941,8.75100909 80.1031349,8.81011812 C80.1031349,8.8106629 79.8573964,11.0848624 79.8573964,11.0848624 L80.1031349,13.3092143 C80.1101253,13.3688681 80.1539496,13.411906 80.207184,13.411906 C80.2596118,13.411906 80.3023606,13.3699577 80.3109641,13.3097591 L80.5905791,11.0848624 L80.311233,8.81011812 Z M84.1839006,6.71188371 C84.0830779,6.71188371 83.9997311,6.79550801 83.9948916,6.90174083 L83.7991612,11.0867692 L83.9948916,13.7913478 C84,13.8970359 84.0830779,13.9803878 84.1839006,13.9803878 C84.2841856,13.9803878 84.3672635,13.8967635 84.3731785,13.7908031 L84.3731785,13.7916202 L84.5944507,11.0867692 L84.3731785,6.90174083 C84.3672635,6.79550801 84.2841856,6.71188371 84.1839006,6.71188371 Z M82.1795451,8.16645618 C82.1021132,8.16645618 82.038931,8.22910631 82.0327472,8.3127306 L81.8122816,11.0856796 L82.0327472,13.7684669 C82.0386621,13.8515464 82.1021132,13.9141966 82.1795451,13.9141966 C82.2561704,13.9141966 82.3193526,13.8515464 82.3260741,13.7684669 L82.5766521,11.0856796 L82.3260741,8.31218582 C82.3193526,8.22910631 82.2561704,8.16645618 82.1795451,8.16645618 Z M86.2207883,13.9801154 C86.3458085,13.9801154 86.4474378,13.8779685 86.4525461,13.7472204 L86.6445126,11.0881311 L86.452815,5.51635589 C86.4477066,5.38560781 86.3460773,5.28346086 86.2210572,5.28346086 C86.0949616,5.28346086 85.9930634,5.3858802 85.9890305,5.51662828 C85.9890305,5.51690068 85.8188417,11.0878588 85.8188417,11.0878588 L85.9890305,13.7480375 C85.9930634,13.8776961 86.0949616,13.9801154 86.2207883,13.9801154 Z M90.3908157,13.9926454 C90.5628865,13.9926454 90.7048449,13.8490949 90.7080712,13.672585 L90.7080712,13.6744917 L90.7080712,13.672585 L90.8419638,11.0897655 L90.7080712,4.65478048 C90.7051137,4.47854295 90.5628865,4.33472006 90.3908157,4.33472006 C90.2184761,4.33472006 90.0762489,4.47827056 90.0735603,4.65505287 L89.9539173,11.0875864 C89.9539173,11.0916722 90.0735603,13.6742193 90.0735603,13.6742193 C90.0762489,13.8490949 90.218745,13.9926454 90.3908157,13.9926454 Z M88.2899392,13.9825669 C88.4396946,13.9825669 88.560413,13.8608078 88.5644459,13.7055444 L88.5644459,13.7074512 L88.7273754,11.0886759 L88.564177,5.47658668 C88.5601441,5.32132333 88.4394257,5.19983656 88.2896704,5.19983656 C88.1388396,5.19983656 88.0181212,5.32132333 88.0148949,5.47658668 L87.869979,11.0889483 L88.0151637,13.7071788 C88.0183901,13.8608078 88.1391085,13.9825669 88.2899392,13.9825669 Z M83.1778244,13.9580517 C83.2668172,13.9580517 83.3388719,13.8858678 83.3455934,13.7908031 L83.581653,11.0856796 L83.3455934,8.51239383 C83.3391407,8.41732907 83.2670861,8.34569002 83.1778244,8.34569002 C83.0874872,8.34569002 83.0154326,8.41787386 83.0097865,8.5134834 L82.8019573,11.0856796 L83.0097865,13.7905307 C83.0157015,13.8858678 83.0874872,13.9580517 83.1778244,13.9580517 Z M81.1893316,13.8098705 C81.2543959,13.8098705 81.3070925,13.7578436 81.3146206,13.6859322 L81.5797172,11.0851348 L81.3148895,8.3862764 C81.3070925,8.31409256 81.2543959,8.26206572 81.1893316,8.26206572 C81.1234608,8.26206572 81.0707641,8.31436496 81.0640426,8.3862764 C81.0640426,8.3865488 80.8306716,11.0851348 80.8306716,11.0851348 L81.0640426,13.6853874 C81.0704952,13.7575713 81.1231919,13.8098705 81.1893316,13.8098705 Z M89.3363446,5.38315628 C89.1736839,5.38315628 89.0432866,5.51417676 89.0400602,5.68197014 L88.9077808,11.0892207 L89.0400602,13.6911076 C89.0432866,13.8567219 89.1734151,13.9877424 89.3363446,13.9877424 C89.4987364,13.9877424 89.6283271,13.8569943 89.6320912,13.6892009 L89.6320912,13.69138 L89.7805022,11.0894931 L89.6320912,5.68142535 C89.6283271,5.51417676 89.4987364,5.38315628 89.3363446,5.38315628 Z M85.1985804,13.9855632 C85.3109641,13.9855632 85.403721,13.8926776 85.4090982,13.7741872 L85.6155832,11.0875864 L85.4090982,5.94537305 C85.4034522,5.82661021 85.3109641,5.73399698 85.1985804,5.73399698 C85.0851213,5.73399698 84.9926332,5.8268826 84.9877937,5.94537305 C84.9877937,5.94564544 84.8049685,11.0875864 84.8049685,11.0875864 L84.9880626,13.7752767 C84.9926332,13.8926776 85.0851213,13.9855632 85.1985804,13.9855632 Z M87.5043287,13.7319664 L87.5043287,13.7306045 L87.6817766,11.0884035 L87.5043287,5.3289503 C87.5000269,5.18594458 87.3887186,5.07371914 87.2513309,5.07371914 C87.1131365,5.07371914 87.0018283,5.18567219 86.9980642,5.3289503 L86.8405119,11.0881311 L86.9983331,13.731694 C87.0020971,13.8733378 87.1134054,13.9852908 87.2513309,13.9852908 C87.3889875,13.9852908 87.499758,13.8733378 87.5043287,13.7308769 L87.5043287,13.7319664 Z M100.925311,7.76849169 C100.504006,7.76849169 100.102059,7.85483991 99.7358714,8.01037565 C99.4912083,5.20256048 97.1671775,3 94.3323117,3 C93.6386514,3 92.9624671,3.13837506 92.3653277,3.37235966 C92.1333011,3.46333853 92.0714631,3.55704133 92.0693123,3.73872669 L92.0693123,13.6265508 C92.071732,13.8172251 92.2177233,13.9760295 92.4013551,13.9948246 C92.409152,13.9956417 100.870194,14 100.925042,14 C102.623165,14 104,12.6050813 104,10.884382 C104,9.16368274 102.623434,7.76849169 100.925311,7.76849169 Z M91.4407162,3.73001015 C91.256009,3.73001015 91.1043717,3.88363916 91.1016831,4.07240671 L90.962951,11.0905827 L91.1019519,13.6377188 C91.1043717,13.8237625 91.256009,13.9771191 91.4407162,13.9771191 C91.6248857,13.9771191 91.7765231,13.8237625 91.7792117,13.6349949 L91.7792117,13.6379912 L91.9300425,11.0905827 L91.7792117,4.07186192 C91.7765231,3.88363916 91.6248857,3.73001015 91.4407162,3.73001015 Z" id="social-soundcloud"></path>
        </g>
    </g>
</svg>