<?xml version="1.0" encoding="UTF-8"?>
<svg width="8px" height="15px" viewBox="0 0 8 15" version="1.1" xmlns="http://www.w3.org/2000/svg" xmlns:xlink="http://www.w3.org/1999/xlink">
    <!-- Generator: Sketch 48.2 (47327) - http://www.bohemiancoding.com/sketch -->
    <title>social-fb</title>
    <desc>Created with Sketch.</desc>
    <defs></defs>
    <g id="1" stroke="none" stroke-width="1" fill="none" fill-rule="evenodd" transform="translate(-1368.000000, -1975.000000)" opacity="0.52">
        <g id="Group-2" transform="translate(1368.000000, 1975.000000)" fill="#FFFFFF">
            <g id="fb_white">
                <path d="M5.33333333,5 L8,5 L7.66666667,7.5 L5.33333333,7.5 L5.33333333,15 L1.875,15 L1.875,7.5 L0,7.5 L0,5 L1.875,5 L1.875,3.3203125 C1.875,2.22655703 2.16666375,1.39974238 2.75,0.83984375 C3.33333625,0.279945117 4.30554875,0 5.66666667,0 L8,0 L8,2.5 L6.58333333,2.5 C6.05555292,2.5 5.71527854,2.57812422 5.5625,2.734375 C5.40972146,2.89062578 5.33333333,3.15103984 5.33333333,3.515625 L5.33333333,5 Z"></path>
            </g>
        </g>
    </g>
</svg>