<?xml version="1.0" encoding="UTF-8"?>
<svg width="17px" height="15px" viewBox="0 0 17 15" version="1.1" xmlns="http://www.w3.org/2000/svg" xmlns:xlink="http://www.w3.org/1999/xlink">
    <!-- Generator: Sketch 49.2 (51160) - http://www.bohemiancoding.com/sketch -->
    <title>social-gplus</title>
    <desc>Created with Sketch.</desc>
    <defs></defs>
    <g id="Cosound" stroke="none" stroke-width="1" fill="none" fill-rule="evenodd">
        <g id="3" transform="translate(-1114.000000, -827.000000)" fill="#EA4336">
            <g id="Group-3" transform="translate(1091.000000, 812.000000)">
                <g id="social-gplus" transform="translate(23.000000, 15.000000)">
                    <path d="M8.26388889,8.28125 C8.65740938,8.59375156 8.95254531,8.84114492 9.14930556,9.0234375 C9.3460658,9.20573008 9.54282309,9.49218555 9.73958333,9.8828125 C9.93634358,10.2734395 10.0347222,10.690102 10.0347222,11.1328125 C10.0347222,12.1744844 9.54938757,13.0794232 8.5787037,13.8476562 C7.60801984,14.6158893 6.27007025,15 4.56481481,15 C3.09567167,15 1.96759653,14.7005238 1.18055556,14.1015625 C0.393514583,13.5026012 0,12.7994832 0,11.9921875 C0,10.9505156 0.550920417,10.1041699 1.65277778,9.453125 C2.46605345,8.95833086 3.58101144,8.65885469 4.99768519,8.5546875 C4.78780759,8.19010234 4.68287037,7.85156406 4.68287037,7.5390625 C4.68287037,7.35676992 4.69598752,7.22656289 4.72222222,7.1484375 L4.56481481,7.1484375 C3.46295745,7.1484375 2.58410822,6.80989922 1.92824074,6.1328125 C1.29860796,5.50780937 0.983796296,4.7656293 0.983796296,3.90625 C0.983796296,2.81249453 1.44289664,1.88802461 2.36111111,1.1328125 C3.33179498,0.377600391 4.56480734,0 6.06018519,0 L11.3333333,0 L8.97222222,1.2890625 L8.46064815,1.2890625 C9.06404623,1.99219102 9.36574074,2.7473918 9.36574074,3.5546875 C9.36574074,4.04948164 9.26080352,4.4986959 9.05092593,4.90234375 C8.84104833,5.3059916 8.63773247,5.59895742 8.44097222,5.78125 C8.24421198,5.96354258 7.96219319,6.18489453 7.59490741,6.4453125 L7.59490741,6.484375 C7.30632572,6.77083477 7.16203704,6.99218672 7.16203704,7.1484375 C7.16203704,7.33073008 7.29320856,7.52604063 7.55555556,7.734375 L8.26388889,8.28125 Z M3.4,2.8184111 C3.4,3.47415208 3.57060761,4.11727301 3.91182796,4.74779319 C4.30179406,5.42875498 4.80143065,5.76923077 5.41075269,5.76923077 C5.82509168,5.76923077 6.1663069,5.63051841 6.4344086,5.35308953 C6.67813742,5.10088146 6.8,4.72257503 6.8,4.21815889 C6.8,3.56241791 6.61720613,2.89407654 6.2516129,2.21311475 C5.83727391,1.50693216 5.34982359,1.15384615 4.78924731,1.15384615 C4.32616256,1.15384615 3.97276108,1.31777894 3.72903226,1.64564943 C3.50967632,1.92307831 3.4,2.31399496 3.4,2.8184111 Z M7.93333333,11.1843107 C7.93333333,10.864431 7.80395868,10.5788284 7.54520548,10.3274943 C7.28645228,10.0761602 6.76895365,9.72201295 5.99269406,9.26504189 C5.96681874,9.26504189 5.92153761,9.25932984 5.85684932,9.24790556 C5.79216102,9.23648128 5.73394242,9.23076923 5.68219178,9.23076923 C5.03530879,9.23076923 4.3884355,9.32216207 3.74155251,9.5049505 C2.75829037,9.82483024 2.26666667,10.3046427 2.26666667,10.9444021 C2.26666667,11.4699188 2.55129091,11.8926107 3.12054795,12.2124905 C3.68980498,12.5323702 4.44017799,12.6923077 5.3716895,12.6923077 C6.17382441,12.6923077 6.8012915,12.5552184 7.25410959,12.2810358 C7.70692768,12.0068532 7.93333333,11.6412818 7.93333333,11.1843107 Z M14.2375,3.2642487 L17,3.2642487 L17,4.68712635 L14.2375,4.68712635 L14.2375,8.07692308 L13.0333333,8.07692308 L13.0333333,4.68712635 L10.2,4.68712635 L10.2,3.2642487 L13.0333333,3.2642487 L13.0333333,0 L14.2375,0 L14.2375,3.2642487 Z" id="g+_black"></path>
                </g>
            </g>
        </g>
    </g>
</svg>