<?xml version="1.0" encoding="UTF-8"?>
<svg width="13px" height="13px" viewBox="0 0 13 13" version="1.1" xmlns="http://www.w3.org/2000/svg" xmlns:xlink="http://www.w3.org/1999/xlink">
    <!-- Generator: Sketch 48.2 (47327) - http://www.bohemiancoding.com/sketch -->
    <title>social-insta</title>
    <desc>Created with Sketch.</desc>
    <defs></defs>
    <g id="1" stroke="none" stroke-width="1" fill="none" fill-rule="evenodd" transform="translate(-1407.000000, -1977.000000)" opacity="0.52">
        <g id="Group-2" transform="translate(1368.000000, 1975.000000)" fill="#FFFFFF">
            <g id="insta_white" transform="translate(39.000000, 2.000000)">
                <path d="M3.79166667,6.5 C3.79166667,4.69443542 4.69443542,3.79166667 6.5,3.79166667 C8.30556458,3.79166667 9.20833333,4.69443542 9.20833333,6.5 C9.20833333,8.30556458 8.30556458,9.20833333 6.5,9.20833333 C4.69443542,9.20833333 3.79166667,8.30556458 3.79166667,6.5 Z M3.82552083,3.82552083 C3.35156013,4.29948154 3.03559107,4.82985818 2.87760417,5.41666667 L0,5.41666667 L0,1.625 C0,1.1510393 0.157984531,0.767362578 0.473958333,0.473958333 C0.83507125,0.157984531 1.23003258,0 1.65885417,0 L11.4088542,0 C11.8376758,0 12.2100679,0.157984531 12.5260417,0.473958333 C12.8420155,0.789932135 13,1.17360885 13,1.625 L13,5.41666667 L10.15625,5.41666667 C9.9982631,4.82985818 9.68229404,4.29948154 9.20833333,3.82552083 C8.46353794,3.08072544 7.56076919,2.70833333 6.5,2.70833333 C5.46180036,2.70833333 4.57031622,3.08072544 3.82552083,3.82552083 Z M11.9166667,2.84375 L11.9166667,1.5234375 C11.9166667,1.41058971 11.8715282,1.30902823 11.78125,1.21875 C11.6909718,1.12847177 11.5894103,1.08333333 11.4765625,1.08333333 L10.1901042,1.08333333 C10.0772564,1.08333333 9.9756949,1.12847177 9.88541667,1.21875 C9.79513844,1.30902823 9.75,1.41058971 9.75,1.5234375 L9.75,2.84375 C9.75,2.95659779 9.79513844,3.05815927 9.88541667,3.1484375 C9.95312534,3.21614617 10.0546868,3.25 10.1901042,3.25 L11.4765625,3.25 C11.6119798,3.25 11.7135413,3.21614617 11.78125,3.1484375 C11.8715282,3.05815927 11.9166667,2.95659779 11.9166667,2.84375 Z M9.20833333,9.17447917 C9.93055917,8.45225333 10.2916667,7.56076919 10.2916667,6.5 L13,6.5 L13,11.375 C13,11.781252 12.8420155,12.1649287 12.5260417,12.5260417 C12.2326374,12.8420155 11.8602453,13 11.4088542,13 L1.65885417,13 C1.20746302,13 0.823786302,12.8420155 0.5078125,12.5260417 C0.169269141,12.1874983 0,11.8038216 0,11.375 L0,6.5 L2.7421875,6.5 C2.7421875,7.56076919 3.103295,8.45225333 3.82552083,9.17447917 C4.57031622,9.91927456 5.46180036,10.2916667 6.5,10.2916667 C7.56076919,10.2916667 8.46353794,9.91927456 9.20833333,9.17447917 Z"></path>
            </g>
        </g>
    </g>
</svg>