<?xml version="1.0" encoding="UTF-8"?>
<svg width="19px" height="15px" viewBox="0 0 19 15" version="1.1" xmlns="http://www.w3.org/2000/svg" xmlns:xlink="http://www.w3.org/1999/xlink">
    <!-- Generator: Sketch 49.2 (51160) - http://www.bohemiancoding.com/sketch -->
    <title>soundbar</title>
    <desc>Created with Sketch.</desc>
    <defs>
        <linearGradient x1="9.49000853%" y1="66.303003%" x2="89.4845726%" y2="85.2715962%" id="linearGradient-1">
            <stop stop-color="#8E5ACD" offset="0%"></stop>
            <stop stop-color="#21B0B0" offset="100%"></stop>
        </linearGradient>
    </defs>
    <g id="Cosound" stroke="none" stroke-width="1" fill="none" fill-rule="evenodd">
        <g id="11,12,16_b" transform="translate(-1427.000000, -4523.000000)" fill="url(#linearGradient-1)" fill-rule="nonzero">
            <path d="M1442.87351,4523.00029 L1442.03396,4523.83307 C1443.75269,4525.53794 1444.81252,4527.8908 1444.81252,4530.50015 C1444.81252,4533.1095 1443.75284,4535.46236 1442.03396,4537.16722 L1442.87351,4538 C1444.80628,4536.08282 1446,4533.42694 1446,4530.5 C1446,4527.57321 1444.80628,4524.91718 1442.87351,4523 L1442.87351,4523.00029 Z M1435.16408,4523.43288 C1435.07502,4523.43288 1434.94232,4523.49177 1434.85326,4523.58012 L1430.13109,4527.70278 C1430.04203,4527.77639 1429.8648,4527.85001 1429.74605,4527.85001 L1427.22265,4527.85001 C1427.1039,4527.85001 1427,4527.95308 1427,4528.07087 L1427,4532.92972 C1427,4533.04751 1427.1039,4533.15058 1427.22265,4533.15058 L1429.74605,4533.15058 C1429.8648,4533.15058 1430.04203,4533.20947 1430.13109,4533.29781 L1434.85326,4537.42047 C1434.94232,4537.49409 1435.08987,4537.56771 1435.16408,4537.56771 C1435.2383,4537.56771 1435.31252,4537.46464 1435.31252,4537.34685 L1435.31252,4523.65374 C1435.31252,4523.53595 1435.25314,4523.43288 1435.16408,4523.43288 Z M1440.35011,4525.50348 L1439.51056,4526.33626 C1440.59132,4527.4083 1441.25007,4528.87773 1441.25007,4530.50029 C1441.25007,4532.12286 1440.58642,4533.60583 1439.51056,4534.65976 L1440.34551,4535.49725 C1441.64461,4534.22482 1442.43756,4532.44089 1442.43756,4530.50029 C1442.43756,4528.5597 1441.64432,4526.7871 1440.35011,4525.50334 L1440.35011,4525.50348 Z M1437.81736,4528.00196 L1436.99162,4528.84858 C1437.42817,4529.26998 1437.68748,4529.84759 1437.68748,4530.50044 C1437.68748,4531.15315 1437.42831,4531.73091 1436.99162,4532.1523 L1437.81736,4532.99892 C1438.47923,4532.3602 1438.87496,4531.46735 1438.87496,4530.50044 C1438.87496,4529.53353 1438.47923,4528.64083 1437.81736,4528.00196 Z" id="soundbar"></path>
        </g>
    </g>
</svg>