<?xml version="1.0" encoding="UTF-8"?>
<svg width="30px" height="30px" viewBox="0 0 30 30" version="1.1" xmlns="http://www.w3.org/2000/svg" xmlns:xlink="http://www.w3.org/1999/xlink">
    <!-- Generator: Sketch 49.2 (51160) - http://www.bohemiancoding.com/sketch -->
    <title>ssl</title>
    <desc>Created with Sketch.</desc>
    <defs></defs>
    <g id="Cosound" stroke="none" stroke-width="1" fill="none" fill-rule="evenodd">
        <g id="23a" transform="translate(-1387.000000, -747.000000)" fill="#20ACAC" fill-rule="nonzero">
            <g id="Shape" transform="translate(1387.000000, 747.000000)">
                <path d="M24.3749619,18.1251526 C24.3749619,15.7130432 22.4120712,13.7501526 19.9999619,13.7501526 C17.5878525,13.7501526 15.6249619,15.7130432 15.6249619,18.1251526 L15.6249619,21.25 L13.125,21.25 L13.125,30 L26.875,30 L26.875,21.25 L24.3749619,21.25 L24.3749619,18.1251526 Z M23.1249619,21.25 L16.8749619,21.25 L16.8749619,18.1251526 C16.8749619,16.4021301 18.2769394,15.0001526 19.9999619,15.0001526 C21.7229843,15.0001526 23.1249619,16.4021301 23.1249619,18.1251526 L23.1249619,21.25 Z"></path>
                <path d="M26.875,0 L3.125,0 C1.39999388,0 0,1.39999388 0,3.125 L0,4.37515256 L30,4.37515256 L30,3.125 C30,1.39999388 28.5999679,0 26.875,0 Z"></path>
                <path d="M0,16.875 C0,18.6000061 1.39999387,20 3.125,20 L14.3749619,20 L14.3749619,18.1251526 C14.3749619,15.0233459 16.8981553,12.5001526 19.9999619,12.5001526 C23.1017685,12.5001526 25.6249619,15.0233459 25.6249619,18.1251526 L25.6249619,20 L26.875,20 C28.5999679,20 30,18.6000061 30,16.875 L30,9.37515256 L0,9.37515256 L0,16.875 Z M3.125,13.75 L11.875,13.75 L11.875,17.5 L3.125,17.5 L3.125,13.75 Z"></path>
            </g>
        </g>
    </g>
</svg>