<?xml version="1.0" encoding="UTF-8"?>
<svg width="15px" height="15px" viewBox="0 0 15 15" version="1.1" xmlns="http://www.w3.org/2000/svg" xmlns:xlink="http://www.w3.org/1999/xlink">
    <!-- Generator: Sketch 49.2 (51160) - http://www.bohemiancoding.com/sketch -->
    <title>time</title>
    <desc>Created with Sketch.</desc>
    <defs></defs>
    <g id="Cosound" stroke="none" stroke-width="1" fill="none" fill-rule="evenodd">
        <g id="22" transform="translate(-788.000000, -541.000000)" fill="#8E8E8E" fill-rule="nonzero">
            <g id="Group-6" transform="translate(789.000000, 531.000000)">
                <g id="time" transform="translate(0.000000, 11.000000)">
                    <path d="M6.5,13.75 C2.49593556,13.75 -0.75,10.5040644 -0.75,6.5 C-0.75,2.49593556 2.49593556,-0.75 6.5,-0.75 C10.5040644,-0.75 13.75,2.49593556 13.75,6.5 C13.75,10.5040644 10.5040644,13.75 6.5,13.75 Z M6.5,12.25 C9.67563731,12.25 12.25,9.67563731 12.25,6.5 C12.25,3.32436269 9.67563731,0.75 6.5,0.75 C3.32436269,0.75 0.75,3.32436269 0.75,6.5 C0.75,9.67563731 3.32436269,12.25 6.5,12.25 Z" id="Oval"></path>
                    <path d="M7.75,6.68933983 L9.53033009,8.46966991 C9.8232233,8.76256313 9.8232233,9.23743687 9.53033009,9.53033009 C9.23743687,9.8232233 8.76256313,9.8232233 8.46966991,9.53033009 L6.46966991,7.53033009 C6.32901763,7.3896778 6.25,7.19891237 6.25,7 L6.25,3 C6.25,2.58578644 6.58578644,2.25 7,2.25 C7.41421356,2.25 7.75,2.58578644 7.75,3 L7.75,6.68933983 Z" id="Shape"></path>
                </g>
            </g>
        </g>
    </g>
</svg>