<?xml version="1.0" encoding="UTF-8"?>
<svg width="20px" height="12px" viewBox="0 0 20 12" version="1.1" xmlns="http://www.w3.org/2000/svg" xmlns:xlink="http://www.w3.org/1999/xlink">
    <!-- Generator: Sketch 49.2 (51160) - http://www.bohemiancoding.com/sketch -->
    <title>video</title>
    <desc>Created with Sketch.</desc>
    <defs></defs>
    <g id="Cosound" stroke="none" stroke-width="1" fill="none" fill-rule="evenodd">
        <g id="17" transform="translate(-1033.000000, -1045.000000)" fill="#3B93BB" fill-rule="nonzero">
            <path d="M1052.64444,1045.62921 L1048.04444,1048.23596 C1047.97778,1048.2809 1047.91111,1048.37079 1047.91111,1048.4382 L1047.91111,1047.1573 C1047.91111,1045.96629 1046.95556,1045 1045.77778,1045 L1035.13333,1045 C1033.95556,1045 1033,1045.96629 1033,1047.1573 L1033,1054.8427 C1033,1056.03371 1033.95556,1057 1035.13333,1057 L1045.77778,1057 C1046.95556,1057 1047.91111,1056.03371 1047.91111,1054.8427 L1047.91111,1053.42697 C1047.91111,1053.51685 1047.95556,1053.60674 1048.04444,1053.62921 L1052.64444,1056.25843 C1052.8,1056.34831 1053,1056.23596 1053,1056.05618 L1053,1045.83146 C1053,1045.65169 1052.8,1045.53933 1052.64444,1045.62921 Z M1043.11111,1051.26966 L1038.42222,1054.2809 C1038.26667,1054.39326 1038.04444,1054.25843 1038.04444,1054.07865 L1038.08889,1047.96629 C1038.08889,1047.76404 1038.31111,1047.65169 1038.46667,1047.76404 L1043.13333,1050.86517 C1043.26667,1050.95506 1043.26667,1051.17978 1043.11111,1051.26966 Z" id="video"></path>
        </g>
    </g>
</svg>