<?xml version="1.0" encoding="UTF-8"?><!DOCTYPE svg PUBLIC "-//W3C//DTD SVG 1.1//EN" "http://www.w3.org/Graphics/SVG/1.1/DTD/svg11.dtd"><svg xmlns="http://www.w3.org/2000/svg"><defs>
        <linearGradient x1="9.49%" y1="66.303%" x2="89.485%" y2="85.272%" id="a">
            <stop stop-color="#8E5ACD" offset="0%"/>
            <stop stop-color="#21B0B0" offset="100%"/>
        </linearGradient>
    </defs><symbol id="ico-arrow-left" viewBox="0 0 22 20">
    <title>
        Shape
    </title>
    <path d="M0 10.003c.013.357.154.77.389 1.03l7.652 8.501c.518.487 1.513.689 2.092.125.571-.554.554-1.63-.015-2.187l-5.38-5.97h15.827c.793 0 1.435-.67 1.435-1.5 0-.828-.642-1.5-1.435-1.5H4.738l5.38-5.968c.49-.513.58-1.627.015-2.188-.565-.561-1.595-.382-2.092.125l-7.652 8.5c-.262.291-.39.633-.389 1.032z" fill-rule="nonzero"/>
</symbol><symbol id="ico-arrow-next" viewBox="0 0 18 14">
    <title>
        arrow-next
    </title>
    <g fill-rule="nonzero">
        <path d="M1 8a1 1 0 1 1 0-2h16a1 1 0 0 1 0 2H1z"/>
        <path d="M10.293 1.707A1 1 0 1 1 11.707.293l6 6a1 1 0 0 1 0 1.414l-6 6a1 1 0 1 1-1.414-1.414L15.586 7l-5.293-5.293z"/>
    </g>
</symbol><symbol id="ico-arrow-right" viewBox="0 0 22 20">
    <title>
        Shape
    </title>
    <path d="M22 9.997c-.013-.357-.154-.77-.389-1.03L13.96.465c-.518-.487-1.513-.689-2.092-.125-.571.554-.554 1.63.015 2.187l5.38 5.97H1.435c-.793 0-1.435.67-1.435 1.5 0 .828.642 1.5 1.435 1.5h15.827l-5.38 5.968c-.49.513-.58 1.627-.015 2.188.565.561 1.595.382 2.092-.125l7.652-8.5c.262-.291.39-.633.389-1.032z" fill-rule="nonzero"/>
</symbol><symbol id="ico-camera" viewBox="0 0 50 36">
    <path d="M40.839 5.994c2.649 0 4.833 2.153 4.833 4.82v13.852c0 2.714-2.184 4.867-4.833 4.867H9.284c-2.695 0-4.833-2.2-4.833-4.867V10.861c0-2.714 2.184-4.867 4.833-4.867h7.76l.837-2.2c.326-.795 1.07-1.45 1.673-1.45h10.968c.65 0 1.348.655 1.673 1.45l.837 2.2h7.807zM25.5 11.114c3.84 0 7.016 3.093 7.016 6.993 0 3.901-3.176 7.04-7.016 7.04s-7.016-3.091-7.016-6.992c0-3.9 3.176-7.04 7.016-7.04zm-.439 16.665c5.552 0 10.087-4.498 10.087-10.063S30.613 7.606 25.06 7.606c-5.551 0-10.086 4.499-10.086 10.063 0 5.565 4.535 10.11 10.086 10.11zM40.41 11.115a1.753 1.753 0 1 0 .001-3.507 1.753 1.753 0 0 0-.001 3.507z" fill-rule="nonzero"/>
</symbol><symbol id="ico-card-add" viewBox="0 0 22 22">
    <title>
        card-add
    </title>
    <g fill-rule="nonzero">
        <path d="M11 22C4.925 22 0 17.075 0 11S4.925 0 11 0s11 4.925 11 11-4.925 11-11 11zm0-2a9 9 0 1 0 0-18 9 9 0 0 0 0 18z"/>
        <path d="M10 7a1 1 0 1 1 2 0v8a1 1 0 0 1-2 0V7z"/>
        <path d="M7 12a1 1 0 0 1 0-2h8a1 1 0 0 1 0 2H7z"/>
    </g>
</symbol><symbol id="ico-cart" viewBox="0 0 23 24">
    <title>
        cart
    </title>
    <g fill-rule="nonzero">
        <path d="M8 24a3 3 0 1 1 0-6 3 3 0 0 1 0 6zm0-2a1 1 0 1 0 0-2 1 1 0 0 0 0 2z"/>
        <path d="M20 24a3 3 0 1 1 0-6 3 3 0 0 1 0 6zm0-2a1 1 0 1 0 0-2 1 1 0 0 0 0 2z"/>
        <path d="M5.67 7a1 1 0 1 1 0-2h10.163a1 1 0 1 1 0 2H5.67zm15.148 4.802a1 1 0 0 1 1.961.392l-.478 2.39A2.995 2.995 0 0 1 19.32 17H8.758a3 3 0 0 1-3-2.61L4.239 2.87A1 1 0 0 0 3.25 2H1a1 1 0 1 1 0-2h2.252a3 3 0 0 1 2.97 2.61l1.52 11.52c.065.501.494.874 1.008.87h10.59a1 1 0 0 0 1-.806l.478-2.392z"/>
    </g>
</symbol><symbol id="ico-case" viewBox="0 0 22 20">
    <title>
        case
    </title>
    <g fill-rule="nonzero">
        <path d="M3 6a1 1 0 0 0-1 1v10a1 1 0 0 0 1 1h16a1 1 0 0 0 1-1V7a1 1 0 0 0-1-1H3zm0-2h16a3 3 0 0 1 3 3v10a3 3 0 0 1-3 3H3a3 3 0 0 1-3-3V7a3 3 0 0 1 3-3z"/>
        <path d="M16 19a1 1 0 0 1-2 0V3a1 1 0 0 0-1-1H9a1 1 0 0 0-1 1v16a1 1 0 0 1-2 0V3a3 3 0 0 1 3-3h4a3 3 0 0 1 3 3v16z"/>
    </g>
</symbol><symbol id="ico-check-outline" viewBox="0 0 52 52">
    <title>
        check-outline
    </title>
    <g fill-rule="nonzero">
        <path d="M26 0C11.664 0 0 11.664 0 26c0 14.337 11.664 26 26 26 14.337 0 26-11.663 26-26C52 11.664 40.337 0 26 0zm0 48C13.869 48 4 38.131 4 26S13.869 4 26 4s22 9.869 22 22-9.869 22-22 22z"/>
        <path d="M32.464 18.72l-8.85 10.619-4.505-3.003a2 2 0 1 0-2.218 3.328l6 4a1.998 1.998 0 0 0 2.646-.384l10-12a2 2 0 1 0-3.073-2.56z"/>
    </g>
</symbol><symbol id="ico-check" viewBox="0 0 13 9">
    <title>
        Shape
    </title>
    <path d="M4.437 6.637l6.884-6.37a1 1 0 1 1 1.358 1.467l-7.562 7a1 1 0 0 1-1.359 0L.321 5.552a1 1 0 0 1 1.358-1.468l2.758 2.553z" fill-rule="nonzero"/>
</symbol><symbol id="ico-comment" viewBox="0 0 14 12">
    <title>
        comment
    </title>
    <path d="M14 5.267v.676c0 .032-.018.063-.022.095a4.86 4.86 0 0 1-1.137 2.655c-.842 1.016-1.921 1.685-3.181 2.105a8.118 8.118 0 0 1-2.556.41 16.16 16.16 0 0 1-2.18-.176.519.519 0 0 0-.35.06 6.598 6.598 0 0 1-2.52.86c-.3.036-.601.052-.903.047a.42.42 0 0 1-.361-.223.402.402 0 0 1 .026-.416 1.6 1.6 0 0 1 .13-.177 7.658 7.658 0 0 0 1-1.569.114.114 0 0 0-.032-.166A5.684 5.684 0 0 1 .686 8.022a4.697 4.697 0 0 1-.58-1.47c-.04-.2-.071-.41-.106-.609v-.676c.01-.039.019-.077.025-.116a4.811 4.811 0 0 1 .84-2.249 6.202 6.202 0 0 1 1.96-1.792A7.72 7.72 0 0 1 5.258.18a8.598 8.598 0 0 1 4.06.136 7.43 7.43 0 0 1 2.1.943 6.058 6.058 0 0 1 1.788 1.764c.33.494.562 1.044.685 1.622.042.206.073.414.109.622z" fill-rule="nonzero"/>
</symbol><symbol id="ico-comments" viewBox="0 0 20 20">
    <title>
        comments
    </title>
    <path d="M4.293 14.293A1 1 0 0 1 5 14h12a1 1 0 0 0 1-1V3a1 1 0 0 0-1-1H3a1 1 0 0 0-1 1v13.586l2.293-2.293zm-2.586 5.414C1.077 20.337 0 19.891 0 19V3a3 3 0 0 1 3-3h14a3 3 0 0 1 3 3v10a3 3 0 0 1-3 3H5.414l-3.707 3.707z" fill-rule="nonzero"/>
</symbol><symbol id="ico-distribution" viewBox="0 0 46 46">
    <title>
        Shape
    </title>
    <path d="M6.733 6.698a4.228 4.228 0 0 0 0 6.009 4.195 4.195 0 0 0 2.998 1.23c.786 0 1.572-.245 2.26-.64l1.082 1.084a13.139 13.139 0 0 0-3.195 7.979H8.355c-.443-1.872-2.114-3.3-4.129-3.3C1.916 19.06 0 20.98 0 23.296c0 2.314 1.917 4.235 4.226 4.235 2.015 0 3.686-1.428 4.129-3.3h1.572c.295 2.906 1.524 5.566 3.391 7.585l-1.08 1.083a4.243 4.243 0 0 0-5.26.591 4.252 4.252 0 0 0-1.228 3.005c0 1.132.442 2.216 1.229 3.004a4.195 4.195 0 0 0 2.997 1.231 4.195 4.195 0 0 0 2.998-1.231 4.266 4.266 0 0 0 .59-5.27l1.081-1.083c2.064 1.674 4.62 2.758 7.421 2.955v1.526c-1.867.444-3.292 2.118-3.292 4.137C18.774 44.08 20.69 46 23 46s4.226-1.92 4.226-4.236c0-2.019-1.425-3.693-3.292-4.137v-1.526c2.9-.197 5.553-1.38 7.666-3.202l1.082 1.084a4.266 4.266 0 0 0 .59 5.27 4.195 4.195 0 0 0 2.997 1.23 4.195 4.195 0 0 0 2.998-1.23 4.228 4.228 0 0 0 0-6.009 4.243 4.243 0 0 0-5.258-.59l-1.082-1.084c1.72-2.02 2.9-4.531 3.146-7.339h1.572c.443 1.872 2.114 3.3 4.129 3.3 2.31 0 4.226-1.92 4.226-4.235 0-2.315-1.917-4.236-4.226-4.236-2.015 0-3.686 1.428-4.129 3.3h-1.523c-.148-2.955-1.229-5.615-2.998-7.733l1.081-1.083c.688.443 1.474.64 2.26.64a4.195 4.195 0 0 0 2.999-1.231 4.252 4.252 0 0 0 1.228-3.004 4.252 4.252 0 0 0-1.228-3.005 4.206 4.206 0 0 0-5.996 0 4.252 4.252 0 0 0-1.229 3.005c0 .837.246 1.576.64 2.265l-1.082 1.084c-2.113-1.921-4.865-3.202-7.912-3.399V8.373c1.867-.444 3.292-2.118 3.292-4.137C27.177 1.92 25.261 0 22.951 0s-4.227 1.92-4.227 4.236c0 2.019 1.426 3.693 3.293 4.137v1.526c-2.9.197-5.553 1.38-7.667 3.202l-1.08-1.084a4.266 4.266 0 0 0-.59-5.27c-1.622-1.674-4.276-1.674-5.947-.049zM4.5 26A2.504 2.504 0 0 1 2 23.5C2 22.122 3.122 21 4.5 21S7 22.122 7 23.5C7 24.929 5.878 26 4.5 26zm7.773 12.26a2.5 2.5 0 0 1-3.552 0A2.485 2.485 0 0 1 8 36.494c0-.676.257-1.3.72-1.767A2.53 2.53 0 0 1 10.472 34c.618 0 1.287.26 1.75.727 1.03.935 1.03 2.546.052 3.533zM26 41.5c0 1.378-1.122 2.5-2.5 2.5a2.504 2.504 0 0 1-2.5-2.5c0-1.378 1.122-2.5 2.5-2.5s2.5 1.122 2.5 2.5zm12.27-6.77A2.48 2.48 0 0 1 39 36.5a2.48 2.48 0 0 1-.73 1.77 2.48 2.48 0 0 1-1.77.73 2.48 2.48 0 0 1-1.77-.73A2.48 2.48 0 0 1 34 36.5c0-.677.26-1.302.73-1.77A2.48 2.48 0 0 1 36.5 34c.677 0 1.302.26 1.77.73zM41.5 21c1.378 0 2.5 1.122 2.5 2.5S42.878 26 41.5 26a2.504 2.504 0 0 1-2.5-2.5c0-1.378 1.122-2.5 2.5-2.5zm-18 14C17.172 35 12 29.828 12 23.5S17.172 12 23.5 12 35 17.172 35 23.5 29.828 35 23.5 35zM34.697 8.74a2.531 2.531 0 0 1 3.577 0c.467.468.726 1.091.726 1.766 0 .676-.26 1.3-.726 1.767a2.467 2.467 0 0 1-1.763.727 2.476 2.476 0 0 1-2.489-2.494c-.103-.623.156-1.246.675-1.766zM21 4.5C21 3.122 22.122 2 23.5 2S26 3.122 26 4.5 24.878 7 23.5 7A2.504 2.504 0 0 1 21 4.5zm-9.72 3.271c.463.463.72 1.08.72 1.748 0 .669-.257 1.286-.72 1.748a2.514 2.514 0 0 1-3.547 0 2.514 2.514 0 0 1 0-3.547A2.448 2.448 0 0 1 9.48 7c.72 0 1.336.257 1.8.771zM27 25.028c0 1.927-1.492 3.468-3.358 3.468h-.28v1.589c0 .482-.372.915-.885.915a.9.9 0 0 1-.886-.915v-1.59h-2.052a.9.9 0 0 1-.886-.914c0-.482.373-.915.886-.915h4.057c.886 0 1.585-.723 1.585-1.638 0-.915-.7-1.637-1.585-1.637h-2.238C19.492 23.39 18 21.85 18 19.924c0-1.927 1.492-3.468 3.358-3.468h.28v-1.541c0-.482.372-.915.885-.915a.9.9 0 0 1 .886.915v1.541h2.006a.9.9 0 0 1 .886.915c0 .53-.374.915-.886.915h-4.01c-.887 0-1.586.722-1.586 1.638 0 .915.7 1.637 1.585 1.637h2.238c1.866 0 3.358 1.541 3.358 3.467z" fill-rule="nonzero"/>
</symbol><symbol id="ico-fullscreen" viewBox="0 0 14 14">
    <title>
        fullscreen
    </title>
    <path d="M13.999 0H9.423v1.277l2.467-.044-3.904 3.786.854.88 3.902-3.785v2.509h1.256V0zm0 9.377h-1.256v2.465L8.841 8.1l-.854.88 3.904 3.786H9.424V14H14V9.377h-.001zM6.058 5.238L2.154 1.453h2.467V.22H0V4.843h1.258v-2.51L5.205 6.12l.853-.882zm0 3.523l-.852-.836-3.947 3.74V9.203H0v4.621h.629l3.992-.044v-1.277l-2.467.043 3.904-3.784z" fill-rule="nonzero"/>
</symbol><symbol id="ico-heart-outline" viewBox="0 0 19 15">
    <title>
        header-outline
    </title>
    <path d="M18.076 4.875c0 1.23-.503 2.409-1.397 3.276l-6.83 6.63a.5.5 0 0 1-.697 0L2.32 8.151a4.54 4.54 0 0 1 0-6.552c1.854-1.8 4.854-1.8 6.708 0l.471.457.47-.457a4.816 4.816 0 0 1 3.355-1.35c1.257 0 2.463.485 3.354 1.35a4.564 4.564 0 0 1 1.397 3.276zm-2.912 3.354l.819-.795c.7-.68 1.093-1.6 1.093-2.559 0-.959-.392-1.879-1.093-2.559a3.816 3.816 0 0 0-2.658-1.067c-.998 0-1.954.384-2.658 1.067l-.819.795a.5.5 0 0 1-.696 0l-.82-.795C6.868.893 4.484.893 3.018 2.316a3.54 3.54 0 0 0 0 5.118L9.5 13.726l5.664-5.497z" fill-rule="nonzero"/>
</symbol><symbol id="ico-images" viewBox="0 0 16 14">
    <title>
        images
    </title>
    <path d="M6.017 9.971L4.4 7.841 1.6 11.53h12.8L9.6 5.383 6.017 9.971zM0 1.647C0 .737.719 0 1.593 0h12.814C15.287 0 16 .733 16 1.647v10.706c0 .91-.719 1.647-1.593 1.647H1.593C.713 14 0 13.267 0 12.353V1.647zm4 4.118c.884 0 1.6-.738 1.6-1.647 0-.91-.716-1.647-1.6-1.647-.884 0-1.6.737-1.6 1.647S3.116 5.765 4 5.765z" fill-rule="nonzero"/>
</symbol><symbol id="ico-like" viewBox="0 0 14 12">
    <title>
        like
    </title>
    <path d="M13.791 4.794c-.24.694-1.474 3.463-6.791 7.163L6.86 12C1.544 8.3.448 5.488.21 4.794a3.548 3.548 0 0 1 .864-3.74A3.681 3.681 0 0 1 3.517.004C3.94-.017 6.002-.023 7 1.79 7.998-.023 10.06-.017 10.483.004a3.681 3.681 0 0 1 2.445 1.05 3.549 3.549 0 0 1 .863 3.74z" fill-rule="nonzero"/>
</symbol><symbol id="ico-logo" viewBox="0 0 417 79">
    <title>
        logo
    </title>
    <g fill-rule="evenodd">
        <path d="M414.892 64.531c-1.3-1.345-3.08-2.098-5.015-2.12-1.924-.017-3.699.692-4.992 2.012-1.292 1.318-2.022 3.155-2.054 5.172-.068 4.343 2.866 7.697 6.825 7.802.06.002.119.002.178.002 1.746 0 3.412-.673 4.71-1.906 1.486-1.411 2.332-3.372 2.384-5.52.05-2.099-.673-4.031-2.036-5.442"/>
        <path d="M380.242 57.645a15.2 15.2 0 0 1-7.915 7.338c-3.433 1.383-7.35 1.486-11.03.29-3.309-1.075-5.893-3.119-7.682-6.075-1.86-3.074-2.81-7.064-2.828-11.859.08-5.642 3.242-10.568 8.456-13.177 5.567-2.785 11.201-2.395 16.295 1.127 3.072 2.123 5.26 5.668 6.159 9.982.883 4.238.353 8.748-1.455 12.374zm1.868-27.726a21.862 21.862 0 0 0-.538-.43c-.283-.22-.453-.354-.573-.52-1.845-2.544-4.389-4.542-7.56-5.94-2.957-1.302-6.382-2.013-9.905-2.056-3.92-.047-7.836.72-11.33 2.22-3.705 1.59-6.848 3.985-9.09 6.923-4.958 6.5-6.792 14.196-5.61 23.528 1.458 11.493 7.098 18.925 16.766 22.09 3.473 1.136 6.765 1.706 9.843 1.706 1.68 0 3.295-.17 4.84-.51 4.742-1.044 8.95-3.72 12.505-7.955.088 0 .36 0 .688-.005l.002 3.445.002 3.712v.07h13.145V.139H382.11v29.78z"/>
        <path d="M205.901 61.432c-2.856 2.81-6.746 4.334-10.947 4.295-4.386-.042-8.348-1.752-11.157-4.816-2.81-3.066-4.337-7.345-4.299-12.05.038-4.735 1.557-8.796 4.39-11.744 2.829-2.942 6.699-4.496 11.195-4.496h.025c4.42.006 8.253 1.513 11.083 4.36 2.97 2.987 4.591 7.314 4.565 12.183-.027 4.857-1.751 9.213-4.855 12.268m-4.861-39.888c-5.908-.923-11.226-.733-15.804.564-5.168 1.465-9.58 4.39-13.116 8.694-7.108 8.653-8.373 19.12-3.659 30.27 4.142 9.797 12.428 15.107 24.627 15.783.757.042 1.507.063 2.249.063 3.812 0 7.408-.554 10.716-1.653 3.85-1.28 7.213-3.262 9.999-5.894 2.635-2.49 4.682-5.497 6.085-8.938 1.435-3.521 2.164-7.425 2.165-11.602.003-7.163-2.135-13.472-6.18-18.246-4.073-4.804-9.98-7.93-17.082-9.04"/>
        <path d="M319.951 21.55c-10.829-1.941-18.935 1.209-24.777 9.63v-9.607h-13.276V76.27h13.238v-3.182c0-2.184-.007-4.405-.015-6.553-.02-5.588-.04-11.367.083-17.046.055-2.595.522-5.132 1.347-7.337 2.308-6.158 8.9-9.518 16.032-8.172 5.85 1.105 9.082 5.607 9.101 12.677.017 6.155.013 12.413.01 18.465l-.003 7.86v3.191h13.46v-.07c0-3.742.023-7.514.047-11.161.053-8.342.109-16.967-.13-25.397-.27-9.477-6.062-16.373-15.117-17.996"/>
        <path d="M264.969 21.596c0 1.29.003 2.543.006 3.772.006 2.68.011 5.21-.013 7.757-.017 1.797-.006 3.626.004 5.396.024 4.382.05 8.913-.337 13.332-.339 3.874-1.947 7.094-4.651 9.314-2.625 2.154-6.187 3.2-10.031 2.944-6.676-.443-10.229-5.067-10.275-13.37-.02-3.385-.015-6.827-.01-10.156l.003-4.36V21.562h-13.45v.07c0 3.72-.042 7.48-.082 11.116-.091 8.307-.186 16.896.22 25.288.468 9.702 5.357 16.155 13.767 18.168 1.923.46 4.053.731 6.256.73 6.574 0 13.787-2.416 18.033-9.42h.617v8.748h13.267V21.526H264.97v.07z"/>
        <path d="M153.432 45.388c-2.059-.825-4.215-1.502-6.3-2.158-1.51-.474-3.07-.965-4.583-1.508-1.953-.7-3.688-1.365-5.144-2.415-1.485-1.069-2.235-2.603-2.01-4.103.224-1.48 1.375-2.707 3.08-3.281 1.923-.648 4.494-.773 6.186-.61 4.607.704 8.735 2.292 14.249 5.48l.064.038.033-.066c.6-1.197 1.39-2.828 2.227-4.555a492.852 492.852 0 0 1 2.823-5.766l.03-.058-.057-.033c-8.055-4.72-16.036-6.514-24.398-5.484-6.498.8-10.997 3.11-14.16 7.272-.537.706-1.555 2.554-1.565 2.573l-.02.037.023.035c.012.018 1.192 1.773 1.574 2.638l.139.312c.83 1.854 3.354 7.496 3.563 11.525.089 1.723.23 4.657.23 4.657l.002.044.04.017c.035.014 3.426 1.45 5.416 2.103l2.04.666c3.57 1.162 7.261 2.363 10.81 3.75 2.022.79 4.31 2.43 3.732 5.754-.496 2.856-2.772 3.573-5.261 4.11-.604.13-1.25.138-1.873.146-.176.002-.352.004-.527.009-5.187.139-10.379-1.328-16.338-4.615l-.06-.033-.034.059-.8 1.38c-.579 1-1.13 1.952-1.688 2.901-.601 1.026-1.208 2.049-1.844 3.122l-.854 1.44.052.038c.21.15.408.302.6.449.392.3.763.585 1.168.805 5.995 3.263 12.14 4.9 18.359 4.9 2.948 0 5.913-.369 8.885-1.106 8.3-2.06 12.984-7.15 13.543-14.724.534-7.217-3.286-12.514-11.352-15.745"/>
        <path d="M109.707 54.154c-2.25 6.973-8.257 11.226-15.832 11.221-4.331.045-8.124-1.38-11.235-4.38-3.486-3.36-6.845-6.85-10.299-10.245-.54-.53-1.583-1.61-1.583-1.61s.768-.853 1.337-1.405c3.835-3.723 7.433-7.713 11.464-11.206 5.575-4.83 13.654-5.06 19.644-1.005 5.994 4.059 8.703 11.818 6.504 18.63m12.893-13.27c-2.925-9.647-9.253-16.603-18.742-19.81-12.71-4.296-23.616-.596-32.903 8.912a1940.496 1940.496 0 0 1-18.182 18.399l4.62 5.446s8 8.63 8.9 9.566c2.52 2.625 5.067 5.226 7.832 7.565 2.8 2.37 5.947 4.689 9.343 5.929 11.291 4.123 21.965 2.175 30.622-6.035 8.504-8.063 12.066-18.244 8.51-29.972"/>
        <path d="M40.61 61.487c-8.245 7.896-22.54 4.072-26.302-6.684-2.52-7.205.077-15.444 5.96-19.327 6.945-4.253 14.826-3.7 20.755 1.546.588.52 4.924 4.714 7.016 6.645l9.308-8.971c-1.168-1.225-2.095-2.272-3.1-3.238-5.233-5.042-10.527-9.79-18.054-11.456C14.803 15.267-4.657 35.306.987 56.47c5.92 22.197 33.467 30.02 49.696 13.615 2.223-2.247 4.5-4.443 6.725-6.687-.899-.936-8.9-9.566-8.9-9.566a883.102 883.102 0 0 1-7.898 7.656"/>
    </g>
</symbol><symbol id="ico-more" viewBox="0 0 20 4">
    <title>
        more
    </title>
    <g fill-rule="evenodd">
        <circle cx="10" cy="2" r="2"/>
        <circle cx="18" cy="2" r="2"/>
        <circle cx="2" cy="2" r="2"/>
    </g>
</symbol><symbol id="ico-music" viewBox="0 0 15 17">
    <title>
        music
    </title>
    <path d="M4.855 2.806v10.876c-.69-.111-1.564-.051-2.452.23-1.662.525-2.704 1.576-2.325 2.349.376.772 2.029.97 3.69.446 1.358-.426 2.3-1.208 2.394-1.9v-.966h.004V7.256l7.522-2.076v6.192c-.69-.109-1.565-.049-2.46.233-1.659.524-2.698 1.576-2.322 2.348.377.772 2.029.975 3.689.448 1.445-.457 2.421-1.31 2.405-2.033V0L4.855 2.806z" fill-rule="nonzero"/>
</symbol><symbol id="ico-notifications" viewBox="0 0 22 22">
    <title>
        notifications
    </title>
    <path d="M17 13.002v-5a6 6 0 1 0-12 0v5c0 .729-.195 1.412-.535 2h13.07a3.983 3.983 0 0 1-.535-2zm4 4H1c-1.333 0-1.333-2 0-2a2 2 0 0 0 2-2v-5a8 8 0 1 1 16 0v5a2 2 0 0 0 2 2c1.333 0 1.333 2 0 2zm-9.135 2.5a1 1 0 0 1-1.73 0l-.865.501v1h3.46v-1l-.865-.501zm1.73 1.003a3 3 0 0 1-5.19 0 1 1 0 0 1 .865-1.502h3.46a1 1 0 0 1 .865 1.502z" fill-rule="nonzero"/>
</symbol><symbol id="ico-plan-benefit-1" viewBox="0 0 38 36">
    <title>
        plan-benefit-1
    </title>
    <g fill-rule="nonzero">
        <path d="M34 16.429a1 1 0 1 1 2 0v1.581a17.999 17.999 0 0 1-33.1 9.786A17.998 17.998 0 0 1 25.326 1.56a1 1 0 1 1-.814 1.827A16 16 0 0 0 4.578 26.708 16 16 0 0 0 34 18.009v-1.58z"/>
        <path d="M36.31 2.277a1 1 0 1 1 1.38 1.446l-18.857 18a1 1 0 0 1-1.38 0l-5.143-4.909a1 1 0 0 1 1.38-1.446l4.453 4.25L36.31 2.277z"/>
    </g>
</symbol><symbol id="ico-plan-benefit-2" viewBox="0 0 37 41">
    <title>
        plan-benefit-2
    </title>
    <g fill-rule="nonzero">
        <path d="M17.393 2.262L3.39 9.322A2.533 2.533 0 0 0 2 11.589v16.809a2.532 2.532 0 0 0 1.374 2.277l14 7.06a2.474 2.474 0 0 0 2.232 0l14.002-7.061A2.533 2.533 0 0 0 35 28.408v-16.82c0-.962-.54-1.84-1.393-2.267L19.608 2.262a2.472 2.472 0 0 0-2.215 0zM20.506.475l14 7.06A4.533 4.533 0 0 1 37 11.588v16.82a4.532 4.532 0 0 1-2.492 4.052l-14 7.06c-1.27.64-2.764.64-4.033 0L2.472 32.459A4.53 4.53 0 0 1 0 28.39V11.587C.001 9.87.966 8.3 2.492 7.536L16.495.475a4.473 4.473 0 0 1 4.01 0z"/>
        <path d="M19 17.869l16.532-8.753a1 1 0 1 1 .936 1.768l-17 9a1 1 0 0 1-.936 0l-17-9a1 1 0 0 1 .936-1.768L19 17.87z"/>
        <path d="M20 40a1 1 0 0 1-2 0V19a1 1 0 0 1 2 0v21z"/>
    </g>
</symbol><symbol id="ico-plan-benefit-3" viewBox="0 0 35 35">
    <title>
        plan-benefit-3
    </title>
    <g fill-rule="nonzero">
        <path d="M17.5 35C7.835 35 0 27.165 0 17.5S7.835 0 17.5 0 35 7.835 35 17.5 27.165 35 17.5 35zm0-2C26.06 33 33 26.06 33 17.5 33 8.94 26.06 2 17.5 2 8.94 2 2 8.94 2 17.5 2 26.06 8.94 33 17.5 33z"/>
        <path d="M1 19a1 1 0 0 1 0-2h33a1 1 0 0 1 0 2H1z"/>
        <path d="M12 17.48a24.476 24.476 0 0 0 5.5 14.984A24.447 24.447 0 0 0 23 17.521a24.476 24.476 0 0 0-5.5-14.985A24.447 24.447 0 0 0 12 17.479zM18.243.33C22.47 5.028 24.87 11.121 25 17.521a26.456 26.456 0 0 1-6.757 17.148 1 1 0 0 1-1.486 0C12.53 29.972 10.13 23.879 10 17.479A26.456 26.456 0 0 1 16.757.331a1 1 0 0 1 1.486 0z"/>
    </g>
</symbol><symbol id="ico-plan-benefit-4" viewBox="0 0 37 30">
    <title>
        plan-benefit-4
    </title>
    <g fill-rule="nonzero">
        <path d="M2 11h9a1 1 0 0 1 0 2H1a1 1 0 0 1-1-1V3a1 1 0 1 1 2 0v8z"/>
        <path d="M35 19h-9a1 1 0 0 1 0-2h10a1 1 0 0 1 1 1v9a1 1 0 0 1-2 0v-8z"/>
        <path d="M32.947 9.992a1 1 0 1 1-1.88.68c-1.523-4.208-5.152-7.363-9.614-8.35-4.467-.988-9.138.333-12.395 3.519l-7.381 6.783a1 1 0 1 1-1.354-1.472l7.36-6.762C11.4.752 16.76-.765 21.884.37c5.127 1.134 9.305 4.765 11.062 9.622zm2.376 7.384a1 1 0 1 1 1.354 1.472l-7.36 6.762c-3.717 3.638-9.078 5.155-14.202 4.02-5.127-1.134-9.305-4.765-11.062-9.622a1 1 0 1 1 1.88-.68c1.523 4.208 5.152 7.363 9.614 8.35 4.467.988 9.138-.333 12.395-3.519l7.381-6.783z"/>
    </g>
</symbol><symbol id="ico-plan-benefit-5" viewBox="0 0 26 29">
    <title>
        plan-benefit-5
    </title>
    <path d="M1 18.2a1 1 0 0 1-.772-1.635L13.56.365c.636-.773 1.887-.236 1.765.758L14.13 10.8H25a1 1 0 0 1 .772 1.635l-13.333 16.2c-.636.773-1.887.236-1.765-.758L11.87 18.2H1zm2.118-2H13a1 1 0 0 1 .992 1.123l-.911 7.385 9.8-11.908H13a1 1 0 0 1-.992-1.123l.911-7.385L3.12 16.2z" fill-rule="nonzero"/>
</symbol><symbol id="ico-plan-benefit-6" viewBox="0 0 30 30">
    <title>
        plan-benefit-6
    </title>
    <path d="M26.111 9.8a3.865 3.865 0 0 1 2.94 1.3 3.77 3.77 0 0 1 .905 3.074l-1.963 12.598c-.289 1.875-1.931 3.25-3.834 3.228H8.113a1 1 0 0 1-1-1V13.6a1 1 0 0 1 .088-.412l5.69-12.6A1 1 0 0 1 13.804 0c2.906 0 5.268 2.324 5.268 5.2v4.6h7.04zM24.171 28c.923.01 1.709-.647 1.846-1.534l1.962-12.599a1.77 1.77 0 0 0-.427-1.442 1.872 1.872 0 0 0-1.43-.625h-8.051a1 1 0 0 1-1-1V5.2c0-1.557-1.137-2.859-2.648-3.143l-5.31 11.758V28H24.17zM7.113 14.6H3.845C2.823 14.6 2 15.41 2 16.4v9.8c0 .99.823 1.8 1.845 1.8h3.268V14.6zm1 15.4H3.845C1.725 30 0 28.302 0 26.2v-9.8c0-2.102 1.725-3.8 3.845-3.8h4.268a1 1 0 0 1 1 1V29a1 1 0 0 1-1 1z" fill-rule="nonzero"/>
</symbol><symbol id="ico-play" viewBox="0 0 21 27">
    <title>
        play-ico
    </title>
    <path d="M2.524 26.573C1.13 27.486 0 26.885 0 25.241V1.76C0 .11 1.13-.486 2.524.427l17.43 11.419c1.395.913 1.394 2.394 0 3.307l-17.43 11.42z" fill-rule="evenodd"/>
</symbol><symbol id="ico-plus" viewBox="0 0 18 18">
    <title>
        plus
    </title>
    <g fill-rule="nonzero">
        <path d="M8 1a1 1 0 1 1 2 0v16a1 1 0 0 1-2 0V1z"/>
        <path d="M1 10a1 1 0 1 1 0-2h16a1 1 0 0 1 0 2H1z"/>
    </g>
</symbol><symbol id="ico-profile" viewBox="0 0 18 20">
    <title>
        profile
    </title>
    <g fill-rule="nonzero">
        <path d="M18 19a1 1 0 0 1-2 0v-2a3 3 0 0 0-3-3H5a3 3 0 0 0-3 3v2a1 1 0 0 1-2 0v-2a5 5 0 0 1 5-5h8a5 5 0 0 1 5 5v2z"/>
        <path d="M9 10A5 5 0 1 1 9 0a5 5 0 0 1 0 10zm0-2a3 3 0 1 0 0-6 3 3 0 0 0 0 6z"/>
    </g>
</symbol><symbol id="ico-promo-benefiit-1" viewBox="0 0 35 35">
    <title>
        promo-benefiit-1
    </title>
    <path d="M34.906 14.456c.395 1.51-.492 3.059-1.982 3.46l-6.918 1.86a4.765 4.765 0 0 0-.032-3.138l5.979-1.607-3.126-11.944-16.61 4.467 2.635 10.072-2.6 1.93-2.99-11.427c-.392-1.51.494-3.057 1.983-3.46L28.256.094c1.49-.398 3.017.5 3.414 2.009l3.236 12.353zm-9.193 8.581a.806.806 0 0 0-.37-.49.787.787 0 0 0-.605-.082l-4.818 1.293 3.464-3.804a2.464 2.464 0 0 0 .268-3.026 2.349 2.349 0 0 0-2.557-.963 2.34 2.34 0 0 0-.79.384l-7.117 5.291h-.022c-.658.49-1.55.506-2.225.04a2.042 2.042 0 0 1-.793-1.183l-1.936-7.424a5.22 5.22 0 0 0-3.279 1.922l-4.72 5.997a.998.998 0 0 0-.18.873l3.272 12.494c.058.221.2.41.396.525a.84.84 0 0 0 .647.086l2.271-.611 1.647-.442a14.617 14.617 0 0 0 7.26-4.575 2.095 2.095 0 0 0 1.953 1.122 2.101 2.101 0 0 0 1.837-1.306 2.086 2.086 0 0 0 2.278.862 2.121 2.121 0 0 0 1.555-1.894 2.074 2.074 0 0 0 2.378.136 2.136 2.136 0 0 0 .968-2.206l-.782-3.019zm.714-17.557L15.463 8.426a.959.959 0 0 0-.57 1.138.943.943 0 0 0 1.055.697l10.969-2.95a.959.959 0 0 0 .556-1.135.943.943 0 0 0-1.046-.696zm.893 3.417l-10.96 2.946A.957.957 0 0 0 15.725 13c.13.496.621.8 1.115.689l10.969-2.95a.957.957 0 0 0 .633-1.158.942.942 0 0 0-1.116-.688l-.007.004zm-2.914 4.44a.957.957 0 0 0-.634 1.158c.13.496.622.8 1.116.688l3.814-1.024a.957.957 0 0 0 .666-1.17.942.942 0 0 0-1.155-.676l-3.807 1.024z" fill-rule="nonzero"/>
</symbol><symbol id="ico-promo-benefiit-2" viewBox="0 0 37 36">
    <title>
        promo-benefiit-2
    </title>
    <path d="M15.521 36c-1.573 0-2.884-1.312-2.884-2.886 0-1.575 1.31-2.887 2.884-2.887 1.573 0 2.884 1.312 2.884 2.887C18.34 34.688 17.095 36 15.521 36zm13.635 0c1.574 0 2.885-1.312 2.885-2.886 0-1.575-1.311-2.887-2.885-2.887-1.573 0-2.884 1.312-2.884 2.887 0 1.574 1.311 2.886 2.884 2.886zM8.77 7.594L7.72 2.61c0-.132-.066-.197-.066-.263a1.336 1.336 0 0 0-.917-.853L1.82.05C1.033-.147.247.247.05 1.034c-.197.787.197 1.575.983 1.771l4.065 1.181 4.916 23.748c.066.722.722 1.247 1.443 1.247H32.63c.787 0 1.442-.656 1.442-1.444 0-.787-.655-1.443-1.442-1.443H12.57l-.655-3.28h21.108c1.115 0 2.032-.722 2.229-1.771l1.704-8.594c.263-1.247-.72-2.362-2.032-2.493L9.162 7.529c-.13 0-.262 0-.393.065z" fill-rule="nonzero"/>
</symbol><symbol id="ico-promo-benefiit-3" viewBox="0 0 35 35">
    <title>
        promo-benefiit-3
    </title>
    <path d="M17.414 0C7.822 0 0 7.835 0 17.5S7.822 35 17.414 35C27.007 35 35 27.165 35 17.5S27.008 0 17.414 0zm13.83 22.975h-4.635c.251-1.283.405-2.668.436-4.156h5.174a14.9 14.9 0 0 1-.975 4.156zm.976-6.787h-5.249a25.324 25.324 0 0 0-.641-4.047h4.96a14.9 14.9 0 0 1 .93 4.047zM29.97 9.51h-4.45c-1.058-2.81-2.566-5.037-4.225-6.436a14.914 14.914 0 0 1 8.676 6.436zM18.81 4.079c1.61.747 3.033 2.716 4.018 5.43h-4.018V4.08zm0 8.062h4.78c.283 1.261.483 2.62.583 4.047h-5.363v-4.047zm5.43 6.678a25.199 25.199 0 0 1-.411 4.156h-5.02v-4.156h5.43zm-21.664 0h5.122c.03 1.488.184 2.874.436 4.156H3.55a14.9 14.9 0 0 1-.976-4.156zm8.093 0h5.429v4.156H11.06a26.365 26.365 0 0 1-.392-4.156zm.063-2.63c.095-1.428.286-2.787.557-4.048h4.808v4.047h-5.365zM16.097 4.01v5.5h-4.078c.98-2.803 2.419-4.811 4.078-5.5zm-2.675-.914c-1.649 1.4-3.147 3.62-4.2 6.414H4.825c1.952-3.091 5-5.414 8.598-6.414zm-9.917 9.045h4.907a25.324 25.324 0 0 0-.641 4.047H2.574c.122-1.415.443-2.773.93-4.047zm1.392 13.465h3.938c.914 2.665 2.297 4.718 3.867 6.078a14.932 14.932 0 0 1-7.805-6.078zm6.817 0h4.383v5.443c-1.843-.6-3.411-2.51-4.383-5.443zm7.095 5.389v-5.389h4.335c-.982 2.85-2.54 4.735-4.335 5.389zm3.198.718c1.584-1.359 2.979-3.423 3.9-6.107h3.99a14.93 14.93 0 0 1-7.89 6.107z" fill-rule="nonzero"/>
</symbol><symbol id="ico-promo-benefiit-4" viewBox="0 0 28 36">
    <title>
        promo-benefiit-4
    </title>
    <path d="M5.117 0C2.303 0 0 2.371 0 5.223a5.192 5.192 0 0 0 3.539 4.924v15.706C1.49 26.54 0 28.521 0 30.814 0 33.666 2.303 36 5.117 36s5.129-2.334 5.129-5.186a5.256 5.256 0 0 0-3.551-4.96v-.25c0-2.371.716-3.295 2.034-4.137 1.318-.84 3.394-1.356 5.635-1.911 2.24-.555 4.67-1.162 6.682-2.687 1.828-1.386 3.141-3.63 3.366-6.71A5.203 5.203 0 0 0 28 5.223C28 2.371 25.685 0 22.871 0c-2.814 0-5.117 2.371-5.117 5.223a5.193 5.193 0 0 0 3.502 4.91c-.167 2.193-.945 3.304-2.109 4.187-1.317 1-3.325 1.592-5.523 2.137-2.198.544-4.56 1.028-6.572 2.311-.12.078-.24.153-.357.238v-8.86a5.203 5.203 0 0 0 3.55-4.923C10.246 2.371 7.932 0 5.118 0zm0 3.211c1.108 0 1.985.889 1.985 2.012s-.877 1.975-1.985 1.975a1.942 1.942 0 0 1-1.973-1.975c0-1.123.865-2.012 1.973-2.012zm17.754 0c1.108 0 1.985.889 1.985 2.012s-.877 1.975-1.985 1.975a1.942 1.942 0 0 1-1.973-1.975c0-1.123.865-2.012 1.973-2.012zM5.117 28.803c1.108 0 1.985.888 1.985 2.011 0 1.123-.877 1.975-1.985 1.975a1.942 1.942 0 0 1-1.973-1.975c0-1.123.865-2.011 1.973-2.011z" fill-rule="nonzero"/>
</symbol><symbol id="ico-promo-benefiit-5" viewBox="0 0 39 32">
    <title>
        promo-benefiit-5
    </title>
    <path d="M29.603 29.614a2.022 2.022 0 1 1-2.86-2.86 2.022 2.022 0 0 1 2.86 2.86zm-18.72-12.766L25.72 31.011c3.31 3.16 8.436-1.971 5.279-5.28L16.842 10.885C19.415 5.7 12.537-1.346 6.264.223l5.495 5.492-.458 5.589-5.587.458L.222 6.269c-1.565 6.274 5.475 13.152 10.66 10.58zM9.396 29.614a2.024 2.024 0 1 1 2.862-2.861 2.024 2.024 0 0 1-2.862 2.86zm18.72-12.766l-1.97 1.88-5.733-6.013 1.744-1.829C19.585 5.7 26.463-1.346 32.736.223L27.24 5.715l.458 5.589 5.587.458 5.492-5.493c1.565 6.274-5.475 13.152-10.66 10.58zm-15.262 3.793l5.644 5.387-5.22 4.983c-3.31 3.16-8.436-1.971-5.28-5.28l4.856-5.09z" fill-rule="evenodd"/>
</symbol><symbol id="ico-promo-benefiit-6" viewBox="0 0 31 31">
    <title>
        promo-benefiit-6
    </title>
    <path d="M31 0L10.25 3.308v20.25c-1.057-1.038-2.672-1.702-4.485-1.702C2.58 21.856 0 23.903 0 26.428S2.58 31 5.765 31c3.184 0 5.765-2.047 5.765-4.572l.009-16.753 18.19-2.93-.003 11.163c-1.056-1.051-2.681-1.728-4.51-1.728-3.183 0-5.764 2.048-5.764 4.572 0 2.525 2.581 4.572 5.765 4.572 3.184 0 5.783-1.952 5.783-4.477V0z" fill-rule="nonzero"/>
</symbol><symbol id="ico-quotemark" viewBox="0 0 241 180">
    <title>
        quotemark
    </title>
    <path d="M138.245 180S128 180 128 169.749v-15.377c0-10.251 10.245-10.251 10.245-10.251 26.518-1.81 49.118-18.392 59.966-41.307h-34.352c-14.163 0-25.614-11.457-25.614-25.628V25.628C138.245 11.458 149.696 0 163.86 0h51.528C229.549 0 241 11.457 241 25.628v51.558C241 133.869 194.896 180 138.245 180zm-128 0S0 180 0 169.749v-15.377c0-10.251 10.245-10.251 10.245-10.251 26.518-1.81 49.118-18.392 59.966-41.307H35.859c-14.163 0-25.614-11.457-25.614-25.628V25.628C10.245 11.458 21.696 0 35.86 0h51.528C101.549 0 113 11.457 113 25.628v51.558C113 133.869 67.197 180 10.245 180z" fill-rule="nonzero"/>
</symbol><symbol id="ico-repost" viewBox="0 0 17 11">
    <title>
        repost
    </title>
    <path d="M10.42 0v2.44C6.811 3.36 1.67 5.82 0 11c4.174-3.673 10.075-3.273 10.42-3.257v2.44L17 5.097 10.42 0z" fill-rule="evenodd"/>
</symbol><symbol id="ico-search" viewBox="0 0 20 20">
    <title>
        search
    </title>
    <g fill-rule="nonzero">
        <path d="M8.5 17a8.5 8.5 0 1 1 0-17 8.5 8.5 0 0 1 0 17zm0-2a6.5 6.5 0 1 0 0-13 6.5 6.5 0 0 0 0 13z"/>
        <path d="M19.707 18.293a1 1 0 0 1-1.414 1.414l-5.2-5.2a1 1 0 0 1 1.414-1.414l5.2 5.2z"/>
    </g>
</symbol><symbol id="ico-select-down" viewBox="0 0 12 7">
    <title>
        select-down
    </title>
    <path d="M6 4.586L10.293.293a1 1 0 0 1 1.414 1.414l-5 5a1 1 0 0 1-1.414 0l-5-5A1 1 0 1 1 1.707.293L6 4.586z" fill-rule="nonzero"/>
</symbol><symbol id="ico-share" viewBox="0 0 15 10">
    <title>
        share
    </title>
    <path d="M11.932 2v2h-.682c-.273 0-.443.333-.273.533l1.705 2.134a.36.36 0 0 0 .545 0l1.705-2.134A.333.333 0 0 0 14.659 4h-.682V.667A.676.676 0 0 0 13.295 0H2.727c-.375 0-.682.3-.682.667v.666c0 .367.307.667.682.667h9.205zm.34 6c.376 0 .683.3.683.667v.666a.676.676 0 0 1-.682.667H1.705a.676.676 0 0 1-.682-.667V6H.34c-.273 0-.443-.333-.273-.533l1.705-2.134a.36.36 0 0 1 .545 0l1.705 2.134c.17.233 0 .533-.273.533h-.682v2h9.205z" fill-rule="evenodd"/>
</symbol><symbol id="ico-social-fb" viewBox="0 0 8 15">
    <title>
        social-fb
    </title>
    <path d="M5.333 5H8l-.333 2.5H5.333V15H1.875V7.5H0V5h1.875V3.32c0-1.093.292-1.92.875-2.48S4.306 0 5.667 0H8v2.5H6.583c-.527 0-.868.078-1.02.234-.153.157-.23.417-.23.782V5z" fill-rule="evenodd"/>
</symbol><symbol id="ico-social-gplus" viewBox="0 0 17 15">
    <title>
        social-gplus
    </title>
    <path d="M8.264 8.281c.393.313.689.56.885.742.197.183.394.47.59.86.197.39.296.807.296 1.25 0 1.041-.486 1.946-1.456 2.715C7.608 14.616 6.27 15 4.565 15c-1.47 0-2.597-.3-3.384-.898C.394 13.502 0 12.799 0 11.992c0-1.041.55-1.888 1.653-2.539.813-.495 1.928-.794 3.345-.898-.21-.365-.315-.703-.315-1.016 0-.182.013-.312.04-.39h-.158c-1.102 0-1.98-.34-2.637-1.016-.63-.625-.944-1.367-.944-2.227 0-1.094.459-2.018 1.377-2.773C3.331.378 4.565 0 6.061 0h5.272l-2.36 1.29H8.46c.603.702.905 1.457.905 2.265 0 .494-.105.944-.315 1.347-.21.404-.413.697-.61.88a8.664 8.664 0 0 1-.846.663v.04c-.289.286-.433.507-.433.663 0 .183.131.378.394.586l.708.547zM3.4 2.818c0 .656.17 1.3.512 1.93.39.68.89 1.021 1.499 1.021.414 0 .755-.138 1.023-.416.244-.252.366-.63.366-1.135 0-.656-.183-1.324-.548-2.005-.415-.706-.902-1.06-1.463-1.06-.463 0-.816.165-1.06.493-.22.277-.329.668-.329 1.172zm4.533 8.366c0-.32-.129-.605-.388-.857-.259-.25-.776-.605-1.552-1.062a.92.92 0 0 1-.136-.017 1.014 1.014 0 0 0-.175-.017c-.647 0-1.294.091-1.94.274-.984.32-1.475.8-1.475 1.44 0 .525.284.948.854 1.267.569.32 1.32.48 2.25.48.803 0 1.43-.137 1.883-.411.453-.274.68-.64.68-1.097zm6.305-7.92H17v1.423h-2.762v3.39h-1.205v-3.39H10.2V3.264h2.833V0h1.205v3.264z" fill-rule="evenodd"/>
</symbol><symbol id="ico-social-insta" viewBox="0 0 13 13">
    <title>
        social-insta
    </title>
    <path d="M3.792 6.5c0-1.806.902-2.708 2.708-2.708s2.708.902 2.708 2.708S8.306 9.208 6.5 9.208 3.792 8.306 3.792 6.5zm.034-2.674c-.474.473-.79 1.004-.948 1.59H0V1.626C0 1.151.158.767.474.474.835.158 1.23 0 1.659 0h9.75c.429 0 .801.158 1.117.474.316.316.474.7.474 1.151v3.792h-2.844c-.158-.587-.474-1.118-.948-1.591C8.464 3.08 7.561 2.708 6.5 2.708c-1.038 0-1.93.373-2.674 1.118zm8.09-.982v-1.32a.421.421 0 0 0-.135-.305.421.421 0 0 0-.304-.136H10.19a.421.421 0 0 0-.305.136.421.421 0 0 0-.135.304v1.32c0 .114.045.215.135.305.068.068.17.102.305.102h1.287c.135 0 .237-.034.304-.102a.421.421 0 0 0 .136-.304zm-2.708 6.33c.723-.722 1.084-1.613 1.084-2.674H13v4.875c0 .406-.158.79-.474 1.151a1.458 1.458 0 0 1-1.117.474h-9.75c-.452 0-.835-.158-1.151-.474C.169 12.187 0 11.804 0 11.375V6.5h2.742c0 1.06.361 1.952 1.084 2.674.744.745 1.636 1.118 2.674 1.118 1.06 0 1.964-.373 2.708-1.118z" fill-rule="evenodd"/>
</symbol><symbol id="ico-social-soundcloud" viewBox="0 0 25 11">
    <title>
        social-soundcloud
    </title>
    <path d="M.283 6.579c-.052 0-.093.04-.1.099L0 8.085l.183 1.383c.007.058.048.098.1.098.05 0 .092-.04.1-.098L.6 8.085.383 6.678c-.008-.058-.05-.1-.1-.1zm1.028-.769c-.008-.06-.051-.102-.104-.102s-.097.043-.104.102L.857 8.085l.246 2.224c.007.06.05.103.104.103.053 0 .095-.042.104-.102l.28-2.225-.28-2.275zm3.873-2.098c-.1 0-.184.084-.19.19L4.8 8.087l.196 2.704a.194.194 0 0 0 .189.19c.1 0 .183-.084.19-.19l.22-2.704-.22-4.185a.195.195 0 0 0-.19-.19zM3.18 5.166c-.078 0-.141.063-.147.147l-.22 2.773.22 2.682c.006.084.07.146.147.146.076 0 .14-.062.146-.146l.25-2.682-.25-2.774c-.007-.083-.07-.146-.146-.146zm4.04 5.814a.236.236 0 0 0 .233-.233l.192-2.659-.192-5.572a.236.236 0 0 0-.232-.233.235.235 0 0 0-.232.234l-.17 5.57.17 2.661c.004.13.106.232.232.232zm4.17.013a.323.323 0 0 0 .318-.32v.001-.001l.134-2.583-.134-6.435a.323.323 0 0 0-.317-.32.323.323 0 0 0-.317.32l-.12 6.433.12 2.586a.322.322 0 0 0 .317.319zm-2.1-.01c.15 0 .27-.122.274-.277v.001l.163-2.618-.163-5.612A.278.278 0 0 0 9.29 2.2a.277.277 0 0 0-.275.277L8.87 8.089l.145 2.618a.277.277 0 0 0 .275.276zm-5.112-.025c.089 0 .16-.072.168-.167l.236-2.705-.236-2.574c-.007-.095-.079-.166-.168-.166-.09 0-.163.072-.168.167l-.208 2.573.208 2.705c.006.095.077.167.168.167zm-1.989-.148c.065 0 .118-.052.126-.124l.265-2.6-.265-2.7c-.008-.072-.06-.124-.126-.124s-.118.052-.125.124l-.233 2.7.233 2.6c.006.072.06.124.125.124zm8.147-8.427a.298.298 0 0 0-.296.299l-.132 5.407.132 2.602a.298.298 0 0 0 .296.297c.163 0 .292-.131.296-.299v.002l.149-2.602-.149-5.408a.298.298 0 0 0-.296-.298zM6.2 10.986a.216.216 0 0 0 .21-.212l.207-2.686-.207-5.143a.216.216 0 0 0-.21-.211.215.215 0 0 0-.211.211l-.183 5.143.183 2.687c.005.118.097.21.21.21zm2.305-.254v-.001l.178-2.643-.178-5.759a.257.257 0 0 0-.253-.255.256.256 0 0 0-.253.255l-.157 5.76.157 2.643a.256.256 0 0 0 .253.253.257.257 0 0 0 .253-.254v.001zm13.421-5.964c-.421 0-.823.087-1.19.242C20.492 2.203 18.168 0 15.333 0c-.693 0-1.37.138-1.967.372-.232.091-.294.185-.296.367v9.888c.003.19.149.349.332.368l8.524.005C23.623 11 25 9.605 25 7.884c0-1.72-1.377-3.116-3.075-3.116zM12.441.73a.344.344 0 0 0-.34.342l-.138 7.019.139 2.547c.002.186.154.34.339.34a.344.344 0 0 0 .338-.343v.003l.151-2.547-.15-7.02a.344.344 0 0 0-.34-.341z" fill-rule="nonzero"/>
</symbol><symbol id="ico-social-tw" viewBox="0 0 15 12">
    <title>
        social-tw
    </title>
    <path d="M15 1.438A5.949 5.949 0 0 1 13.475 3v.375c0 2.188-.8 4.172-2.4 5.953C9.475 11.11 7.352 12 4.703 12A8.593 8.593 0 0 1 0 10.625c.339.042.583.063.73.063 1.42 0 2.692-.438 3.814-1.313a3.127 3.127 0 0 1-1.78-.61c-.529-.385-.889-.88-1.08-1.484.255.042.445.063.572.063.212 0 .488-.042.827-.125a3.116 3.116 0 0 1-1.764-1.047A2.852 2.852 0 0 1 .604 4.25v-.031c.466.25.932.375 1.398.375C1.092 4.01.636 3.167.636 2.062c0-.52.137-1.02.413-1.5 1.631 1.98 3.74 3.032 6.324 3.157-.042-.146-.064-.375-.064-.688 0-.854.297-1.573.89-2.156C8.792.292 9.523 0 10.392 0s1.61.323 2.225.969c.635-.104 1.292-.354 1.97-.75-.212.729-.668 1.291-1.367 1.687A5.318 5.318 0 0 0 15 1.438z" fill-rule="evenodd"/>
</symbol><symbol id="ico-soundbar" viewBox="0 0 19 15">
    <title>
        soundbar
    </title>
    
    <path d="M1442.874 4523l-.84.833a9.35 9.35 0 0 1 2.779 6.667 9.35 9.35 0 0 1-2.779 6.667l.84.833a10.535 10.535 0 0 0 3.126-7.5c0-2.927-1.194-5.583-3.126-7.5zm-7.71.433a.506.506 0 0 0-.31.147l-4.723 4.123a.729.729 0 0 1-.385.147h-2.523a.227.227 0 0 0-.223.22v4.86c0 .118.104.22.223.22h2.523c.119 0 .296.06.385.148l4.722 4.122c.09.074.237.148.311.148.074 0 .149-.103.149-.221v-13.693c0-.118-.06-.221-.149-.221zm5.186 2.07l-.84.833a5.838 5.838 0 0 1 1.74 4.164 5.816 5.816 0 0 1-1.74 4.16l.836.837a6.988 6.988 0 0 0 2.092-4.997c0-1.94-.794-3.713-2.088-4.997zm-2.533 2.499l-.825.847c.436.421.695.999.695 1.651 0 .653-.259 1.23-.695 1.652l.825.847a3.465 3.465 0 0 0 1.058-2.499c0-.966-.396-1.86-1.058-2.498z" transform="translate(-1427 -4523)" fill-rule="nonzero"/>
</symbol><symbol id="ico-ssl" viewBox="0 0 30 30">
    <title>
        ssl
    </title>
    <g fill-rule="nonzero">
        <path d="M24.375 18.125A4.38 4.38 0 0 0 20 13.75a4.38 4.38 0 0 0-4.375 4.375v3.125h-2.5V30h13.75v-8.75h-2.5v-3.125zm-1.25 3.125h-6.25v-3.125A3.129 3.129 0 0 1 20 15a3.129 3.129 0 0 1 3.125 3.125v3.125z"/>
        <path d="M26.875 0H3.125A3.126 3.126 0 0 0 0 3.125v1.25h30v-1.25C30 1.4 28.6 0 26.875 0z"/>
        <path d="M0 16.875C0 18.6 1.4 20 3.125 20h11.25v-1.875A5.631 5.631 0 0 1 20 12.5a5.631 5.631 0 0 1 5.625 5.625V20h1.25C28.6 20 30 18.6 30 16.875v-7.5H0v7.5zm3.125-3.125h8.75v3.75h-8.75v-3.75z"/>
    </g>
</symbol><symbol id="ico-stop" viewBox="0 0 11 17">
    <title>
        stop@2x
    </title>
    <g fill-rule="nonzero">
        <path d="M1.698 16.881c-.877 0-1.588-.675-1.588-1.507V1.626C.11.794.82.12 1.698.12c.878 0 1.59.675 1.59 1.507v13.748c0 .832-.712 1.507-1.59 1.507z"/>
        <path d="M9.301 16.881c-.877 0-1.588-.675-1.588-1.507V1.626C7.713.794 8.424.12 9.3.12c.878 0 1.59.675 1.59 1.507v13.748c0 .832-.712 1.507-1.59 1.507z"/>
    </g>
</symbol><symbol id="ico-swiper-left" viewBox="0 0 8 14">
    <title>
        swiper-left
    </title>
    <path d="M2.414 7l5.293-5.293A1 1 0 0 0 6.293.293l-6 6a1 1 0 0 0 0 1.414l6 6a1 1 0 1 0 1.414-1.414L2.414 7z" fill-rule="nonzero"/>
</symbol><symbol id="ico-swiper-right" viewBox="0 0 8 14">
    <title>
        swiper-right
    </title>
    <path d="M5.586 7L.293 1.707A1 1 0 0 1 1.707.293l6 6a1 1 0 0 1 0 1.414l-6 6a1 1 0 1 1-1.414-1.414L5.586 7z" fill-rule="nonzero"/>
</symbol><symbol id="ico-time" viewBox="0 0 15 15">
    <title>
        time
    </title>
    <g fill-rule="nonzero">
        <path d="M7.5 14.75a7.25 7.25 0 1 1 0-14.5 7.25 7.25 0 0 1 0 14.5zm0-1.5a5.75 5.75 0 1 0 0-11.5 5.75 5.75 0 0 0 0 11.5z"/>
        <path d="M8.75 7.69l1.78 1.78a.75.75 0 0 1-1.06 1.06l-2-2A.75.75 0 0 1 7.25 8V4a.75.75 0 0 1 1.5 0v3.69z"/>
    </g>
</symbol><symbol id="ico-uploader-add" viewBox="0 0 60 60">
    <title>
        uploader-add
    </title>
    <g fill-rule="nonzero">
        <path d="M30 60C13.431 60 0 46.569 0 30 0 13.431 13.431 0 30 0c16.569 0 30 13.431 30 30 0 16.569-13.431 30-30 30zm0-2c15.464 0 28-12.536 28-28S45.464 2 30 2 2 14.536 2 30s12.536 28 28 28z"/>
        <path d="M29 18.4a1 1 0 0 1 2 0v23.2a1 1 0 0 1-2 0V18.4z"/>
        <path d="M18.4 31a1 1 0 0 1 0-2h23.2a1 1 0 0 1 0 2H18.4z"/>
    </g>
</symbol><symbol id="ico-video" viewBox="0 0 20 12">
    <title>
        video
    </title>
    <path d="M19.644.63l-4.6 2.606c-.066.045-.133.135-.133.202v-1.28C14.911.965 13.956 0 12.778 0H2.133C.956 0 0 .966 0 2.157v7.686C0 11.033.956 12 2.133 12h10.645c1.178 0 2.133-.966 2.133-2.157V8.427c0 .09.045.18.133.202l4.6 2.63a.238.238 0 0 0 .356-.203V.831c0-.18-.2-.292-.356-.202zm-9.533 5.64L5.422 9.28c-.155.113-.378-.022-.378-.201l.045-6.113c0-.202.222-.314.378-.202l4.666 3.101c.134.09.134.315-.022.405z" fill-rule="nonzero"/>
</symbol></svg>