<?xml version="1.0" encoding="UTF-8"?>
<svg viewBox="0 0 1920 123" version="1.1" xmlns="http://www.w3.org/2000/svg" xmlns:xlink="http://www.w3.org/1999/xlink">
    <!-- Generator: Sketch 49.2 (51160) - http://www.bohemiancoding.com/sketch -->
    <desc>Created with Sketch.</desc>
    <g id="Page-1" stroke="none" stroke-width="1" fill="none" fill-rule="evenodd">
        <g id="1_c" transform="translate(0.000000, -449.000000)">

            <g id="promoSvg" transform="translate(-7160.000000, -1495.000000)">

                <path d="M9081,1944.28232 L9081,2191 L7157,2191 L7157,2067.10302 C6997.53206,2155.81302 6862.16622,2283.08782 6722.64922,2402.59463 C6613.22089,2496.33331 6492.62683,2570.92021 6349.33068,2598.65545 C6215.14182,2624.62538 6086.56245,2593.9898 5962.86971,2541.2888 C5858.9166,2496.99815 5759.63863,2441.10308 5650.98791,2408.50484 C5544.88296,2376.6702 5433.79441,2371.13022 5325.24435,2393.48104 C5097.16926,2440.41403 4902.35963,2587.32019 4727.7692,2733.87416 C4522.21456,2906.42555 4338.97835,3099.9729 4112.67772,3247.60817 C3880.96953,3398.78549 3620.15149,3498.11765 3341.0784,3500.7654 C3142.31654,3502.64375 2945.93505,3461.62841 2751.99772,3422.67878 C2709.32645,3414.10692 2666.2298,3405.53591 2622.84785,3397.41077 L0.337438391,2252.10997 C2476.11935,1568.98346 4287.85887,1105.93645 5435.55597,862.968958 C6583.25308,620.001461 8316.98206,332.472723 10636.7429,0.382744208 L14100.7506,799.530632 L13761.9451,2652.38896 C13680.4484,2674.24639 13597.6763,2691.91418 13513.8402,2704.96644 C12972.9026,2789.20969 12417.4693,2664.18781 11931.0109,2422.48471 C11796.9174,2355.86354 11667.8882,2279.04969 11545.8214,2192.30034 C11426.34,2107.40367 11319.5759,2006.2633 11210.5323,1908.6701 C11002.2484,1722.20596 10782.5504,1547.02494 10510.7456,1465.21059 C10328.1451,1410.25825 10138.6662,1405.8696 9956.16181,1462.93721 C9767.28453,1521.98309 9598.92347,1632.56502 9433.38527,1738.03584 C9331.19196,1803.14386 9229.34093,1873.46448 9120.13436,1926.3446 C9107.19906,1932.60768 9094.15159,1938.58599 9081.00005,1944.28229 Z M9081,1944.28232 L9081,1495 L7157,1495 L7157,2067.10302 C7212.32706,2036.32528 7270.55535,2010.18969 7332.86482,1990.63125 C7551.23406,1922.07878 7782.96649,1940.25622 8005.33884,1977.81342 C8129.0978,1998.70709 8256.02341,2010.30531 8380.98708,2022.10314 C8504.84164,2033.79539 8629.76575,2040.09922 8753.82003,2027.84065 C8866.70671,2016.68452 8977.10072,1989.28402 9081.00005,1944.28229 Z" fill="#F5F5F5"></path>
            </g>

        </g>
    </g>
</svg>
