<svg width="1920px" height="1057px" viewBox="0 0 1920 1057" version="1.1" xmlns="http://www.w3.org/2000/svg" xmlns:xlink="http://www.w3.org/1999/xlink">
    <defs>
        <linearGradient x1="100%" y1="2.53214336%" x2="-0.647379557%" y2="46.4503738%" id="linearGradient-1">
            <stop stop-color="#2CC1A5" offset="0%"></stop>
            <stop stop-color="#1CA9B4" offset="54.7979758%"></stop>
            <stop stop-color="#8E5ACD" offset="100%"></stop>
        </linearGradient>
    </defs>
    <g id="Cosound" stroke="none" stroke-width="1" fill="none" fill-rule="evenodd">
        <g id="3" fill="url(#linearGradient-1)">
            <path d="M1920,1057.06029 C1859.00516,1026.9413 1800.23431,992.304577 1744.32363,954.091425 C1687.33867,915.146511 1633.33012,871.869428 1583.149,824.498261 C1534.02973,778.137423 1491.77808,725.16794 1448.25423,673.673233 C1365.12279,575.289757 1276.04125,481.332697 1157.08208,426.695664 C1077.16372,389.99519 990.821423,375.945572 903.682133,390.401182 C813.500939,405.354957 729.357168,445.145126 646.835438,482.780948 C595.89171,506.013525 544.766412,531.64801 491.409345,548.851295 C435.160221,566.985226 376.311533,574.254343 317.353552,571.908281 C259.842783,569.619253 203.138175,558.799059 147.272009,545.586427 C98.2200672,533.985035 48.4790383,522.358211 2.83164692e-09,508.063527 L1.89733942e-06,0 L1920,0 L1920,1057.06029 Z" id="login-bg"></path>
        </g>
    </g>
</svg>
