<svg width="27px" viewBox="0 0 27 44" version="1.1" xmlns="http://www.w3.org/2000/svg" xmlns:xlink="http://www.w3.org/1999/xlink">
    <defs>
        <linearGradient x1="1.20320638%" y1="86.8724673%" x2="111.754557%" y2="5.18940401%" id="linearGradient-1">
            <stop stop-color="#2CC1A5" offset="0%"></stop>
            <stop stop-color="#1CA9B4" offset="26.5881045%"></stop>
            <stop stop-color="#8E5ACD" offset="100%"></stop>
        </linearGradient>
    </defs>
    <g id="Page-1" stroke="none" stroke-width="1" fill="none" fill-rule="evenodd">
        <g id="mouse" fill="url(#linearGradient-1)" fill-rule="nonzero">
            <path d="M13.5,0 C6.03529412,0 0,6.15460123 0,13.7668712 L0,30.2331288 C0,37.8453988 6.03529412,44 13.5,44 C20.9647059,44 27,37.8453988 27,30.2331288 L27,13.7668712 C27,6.20858896 20.9117647,0 13.5,0 Z M25.4117647,30.2871166 C25.4117647,36.9815951 20.0647059,42.4343558 13.5,42.4343558 C6.93529412,42.4343558 1.58823529,36.9815951 1.58823529,30.2871166 L1.58823529,13.7668712 C1.58823529,7.07239264 6.93529412,1.6196319 13.5,1.6196319 C20.0647059,1.6196319 25.4117647,7.07239264 25.4117647,13.7668712 L25.4117647,30.2871166 Z" id="Shape"></path>
            <circle id="Oval" cx="14" cy="11" r="2"></circle>
        </g>
    </g>
</svg>
